<svg id="Layer_1" data-name="Layer 1" xmlns="http://www.w3.org/2000/svg" width="140" height="140" viewBox="0 0 140 140"><defs><style>.cls-1{fill:#02956e;}</style></defs><title>world-carbon</title><path class="cls-1" d="M69.94,115.39a45.44,45.44,0,1,1,.17,0ZM45.71,67.62c.34.44.65.88,1,1.3,1.23,1.72,2.39,3.35,4.67,4.17,3.27,1.18,6.53,2.64,9.68,4l1,.43a2.82,2.82,0,0,1,1.31,1.05,14.41,14.41,0,0,0,9.25,8.5c.35.11.74.31.9,1.38.11.7.23,1.39.35,2.07.21,1.19.43,2.42.56,3.61A3.37,3.37,0,0,1,74,96c-.46.86-1,1.68-1.53,2.55s-1.17,1.84-1.68,2.82a6.46,6.46,0,0,1-3.69,3.46c-3.17,1-4.26,3.72-5.21,6.09l-.51,1.26,1.32.31.48.12a8.4,8.4,0,0,0,1.1.24,46.2,46.2,0,0,0,5.82.38A42.63,42.63,0,0,0,92.28,107c2.72-1.63,3-2.15,2.61-5.09l-.07-.54a9.4,9.4,0,0,0-5-7.71,2,2,0,0,1-1.16-2.15c.22-4-1.12-6.95-4.08-8.88a3.53,3.53,0,0,1-1.44-2.52c-.24-1.24-.54-2.47-.83-3.66L82,75.05a1.87,1.87,0,0,1,.58-2.13c.54-.47,1-1,1.52-1.46a19.12,19.12,0,0,1,1.61-1.52A8.19,8.19,0,0,1,88,68.74c.6-.22,1.23-.39,1.9-.57a14.62,14.62,0,0,0,3.57-1.32l.27-.15c1.84-1.07,3.43-2,5.35-2h.44a3.38,3.38,0,0,0,1.05-.21l.35-.1.89-.22v-.92a1.46,1.46,0,0,1,0-.16,1.73,1.73,0,0,0-.24-1.26c-.43-.62-.89-1.24-1.33-1.83s-.68-.92-1-1.38a2.39,2.39,0,0,0-2-1.12,2.75,2.75,0,0,0-1.45.46,3.8,3.8,0,0,1-2.08.57,6.32,6.32,0,0,1-1.27-.14,11.68,11.68,0,0,0-2.31-.24,9.44,9.44,0,0,0-3.33.59A41,41,0,0,1,82.64,60a3.09,3.09,0,0,1-.75.11c-.33,0-.74,0-1.08-1.11-.55-1.84-1.13-3.74-1.59-5.67a1.77,1.77,0,0,1,0-.81c.29-.37.58-.76.86-1.14C81.85,49,83.39,47,86.42,46.66c.69-.07,2.3-.24,2.76-1.47s-.39-2.17-1.23-3.07a3.79,3.79,0,0,1-.9-4.27l.11-.37c.59-2,1-3,2.54-3.44l2.37-.67L90,32C85.91,29.09,76.93,26.86,72,26.86a10.59,10.59,0,0,0-2.43.24l-2,.49L69,29.06c1.64,1.65,1.06,2.8-.3,5l-.36.6a4.86,4.86,0,0,0-.46,3.23c.43,2.2,1,4.35,1.58,6.15a1.44,1.44,0,0,1-.64,1.8c-.38.3-.74.61-1.08.91a13.91,13.91,0,0,1-1.66,1.3,4,4,0,0,0-1.91,4.53A2.57,2.57,0,0,1,63.3,55c-1.06,1.19-2.1,2.43-3.11,3.63s-2,2.32-3,3.46a6.31,6.31,0,0,1-1.82,1.37c-2.25,1.15-4.57,2.33-7.37,2.33h0a10.4,10.4,0,0,1-1.28-.08L44,65.4ZM42.14,79.12c.09.19.19.36.29.54a3.51,3.51,0,0,1,.47,1.07c.1,1,.14,1.95.19,3s.09,2.17.21,3.27a5.89,5.89,0,0,0,1.31,3c1.5,1.77,3.1,3.41,4.74,5.07a1.69,1.69,0,0,1,.43,2.07c-.29.76-.54,1.52-.79,2.31l-.36,1.1-.12.37.41,1.22.68,2c1.58,4.75,1.88,5.07,6.48,6.75l.2.07a4.31,4.31,0,0,0,1.49.31,2.64,2.64,0,0,0,2.52-2.11,7.11,7.11,0,0,1,.49-1,9.12,9.12,0,0,0,.64-1.34,4.71,4.71,0,0,1,2.93-3,9.5,9.5,0,0,0,5.6-5.24,2.64,2.64,0,0,1,.4-.69c1.79-2,2.19-4.5,1.19-7.39a3.82,3.82,0,0,0-2-2.38,10.71,10.71,0,0,1-6.86-6.41,1.79,1.79,0,0,0-.47-.68c-.21-.18-.42-.39-.64-.61a7,7,0,0,0-2-1.54c-2.44-1.1-4.94-2.15-7.36-3.17l-3.76-1.59-.08,0a3,3,0,0,1-.8-.43l-.23-.3c-2-2.54-4-5.17-5.82-7.84a1,1,0,0,1-.15-1,1.23,1.23,0,0,1,1.07-.61c1-.07,1.93-.11,2.88-.15,1.11,0,2.26-.1,3.39-.18A12,12,0,0,0,51.24,63l.07,0a12.56,12.56,0,0,0,6.63-5c.38-.53.82-1,1.28-1.55a20,20,0,0,0,1.59-2,5,5,0,0,0,1-3.29c-.32-1.84.18-3,1.68-3.76,4.09-2.17,3.63-5.5,2.52-7.92s-.93-4.63.75-6.58a2.88,2.88,0,0,0,.47-2.58c-.55-1.62-1.22-3.08-3.28-3.08a9.21,9.21,0,0,0-1.73.21c-.39.07-.76.16-1,.23C45.31,31.47,34.48,41.17,29,56.54a4.36,4.36,0,0,0,0,3.07C32.48,67.28,35.89,74,42.14,79.12ZM27.22,65.64c-3.4,11.65,7,34.28,18.32,39.69L48,106.48l-.79-2.55c-.08-.25-.16-.49-.24-.72a6.4,6.4,0,0,1-.32-1.11c0-.16-.05-.32-.08-.48a3.86,3.86,0,0,1-.1-1.19c1.47-2.7.88-5.11-1.75-7.14l0,0A2.52,2.52,0,0,0,44.4,93c-2.76-2.37-3.76-4.48-3.36-7.08a1.58,1.58,0,0,0,0-.57c.54-4-1.77-6.49-3.85-8.24a22.85,22.85,0,0,1-6.38-8.9,18,18,0,0,0-.92-1.84c-.16-.29-.33-.6-.5-.93L28,62.85ZM98.15,54.79c.35,0,.57.19,1.37,1,.38.39.85.89,1.47,1.44a8.5,8.5,0,0,1,3.16,7.47c-.11,1.47-.21,1.59-1.51,1.8-.6.1-1.23.14-1.9.19-1.84.13-3.93.27-5.73,1.79a9.26,9.26,0,0,1-5.24,2,6.46,6.46,0,0,0-4.21,2.59c-.25.28-.49.54-.74.78a1.94,1.94,0,0,0-.4,1.71c0,.06,0,.11,0,.16a10.14,10.14,0,0,0,4.37,7.83,3.6,3.6,0,0,1,1.72,3.51c-.37,3.24,1,5.68,4.17,7.46A2.56,2.56,0,0,1,96,96.64c.15,1,.38,2,.63,3.1.11.48.23,1,.35,1.51l.4,1.84,1.47-1.18.42-.33A7.73,7.73,0,0,0,100,101c8-7.88,12.41-17.29,13.05-28,.88-14.78-4.6-27.2-16.3-36.92a4.78,4.78,0,0,0-3-1.33,4.35,4.35,0,0,0-2.42.83,4.42,4.42,0,0,0-2.22,2.9,3.76,3.76,0,0,0,1.22,3,3.24,3.24,0,0,1,1,3.59A7.65,7.65,0,0,0,91,46.53l0,.32a1.35,1.35,0,0,1-1.16,1.25c-1.28.32-2.61.67-3.67.95a5.46,5.46,0,0,0-3.7,2.9,5.53,5.53,0,0,0,.22,4.76l.42.88.94-.26.82-.21a15.08,15.08,0,0,0,2-.6,7.92,7.92,0,0,1,3-.54,14.82,14.82,0,0,1,2.26.2,7.49,7.49,0,0,0,1.17.1A4.14,4.14,0,0,0,95,55.92,10.56,10.56,0,0,1,98.15,54.79Z"/><path class="cls-1" d="M102.61,127a1.18,1.18,0,0,1-.91-.32,1.75,1.75,0,0,1-.15-1.38l.18-.93c.94-4.79,1.92-9.74,3-14.57a2,2,0,0,1,.8-1.07h.07a2.26,2.26,0,0,1,1.23.5c1.14,1,2.2,2.16,3.33,3.35l1.4,1.48.8.83.84-.79.44-.41c.29-.26.54-.49.78-.75,12.32-13,18.16-28.6,17.35-46.42A61.71,61.71,0,0,0,81.25,9.1a64.83,64.83,0,0,0-11.14-1,63.19,63.19,0,0,0-18.46,2.79,2.42,2.42,0,0,1-.7.11,1.07,1.07,0,0,1-.84-.32,1.47,1.47,0,0,1-.22-1.17,1.61,1.61,0,0,1,.65-.48A63.48,63.48,0,0,1,70,6c1.53,0,3.09.06,4.64.17a61.37,61.37,0,0,1,25,7c18.51,10,29.71,25.28,33.29,45.37,3.72,20.88-1.88,39.6-16.63,55.64l-1.16,1.25-1,1.1.82.8,1.33,1.31c1,1,2,2,3,2.92.69.65.75,1.07.61,1.54s-.37.62-1.45.83c-4.53.89-9.13,1.82-13.58,2.72l-1.54.31a3.28,3.28,0,0,1-.64.07ZM106,114.28l-1.71,8.62-.34,1.72,12.4-2.51-1.53-1.53-5.8-5.83-2.59-2.6Z"/><path class="cls-1" d="M70.08,134c-1.12,0-2.26,0-3.39-.09a62.73,62.73,0,0,1-38.11-15C16.42,108.54,9.1,95.5,6.81,80.16,3.72,59.4,9.51,41,24,25.47l.23-.24.49-.53a1.66,1.66,0,0,0,.32-.62l.11-.32.27-.72-.55-.53-1.26-1.18a39.1,39.1,0,0,1-2.91-2.89,2.41,2.41,0,0,1-.57-1.4,2.2,2.2,0,0,1,1.21-.86c4.27-.94,8.64-1.8,12.87-2.64L37,13a1.63,1.63,0,0,1,.31,0,1.13,1.13,0,0,1,.89.39,1.17,1.17,0,0,1,.21,1c-1,5.23-2.08,10.6-3.19,15.95-.15.72-.53,1.16-1,1.16a1.65,1.65,0,0,1-1.08-.54c-1.12-1.09-2.23-2.26-3.3-3.39L28.42,26l-.68-.71-.81.55-.32.21a2.72,2.72,0,0,0-.54.41A60.79,60.79,0,0,0,9,59.72c-2.62,15.88.4,30.63,9,43.84,9.71,15,23.6,24.17,41.29,27.36a59.65,59.65,0,0,0,10.58,1,63.89,63.89,0,0,0,18.45-2.81,1.53,1.53,0,0,1,.44-.07,1.32,1.32,0,0,1,1,.46,1.28,1.28,0,0,1,.28,1,1.09,1.09,0,0,1-.4.37A63.12,63.12,0,0,1,70.08,134ZM23.69,17.88l9.8,10,2.13-10.75L36,15.43Z"/></svg>