<svg id="Layer_1" data-name="Layer 1" xmlns="http://www.w3.org/2000/svg" width="100" height="100" viewBox="0 0 100 100"><defs><style>.cls-1{fill:none;stroke:#06956e;stroke-linecap:round;stroke-width:1.5px;}</style></defs><title>d-abt-continuosimp</title><g id="Page-1"><g id="c78"><path id="Stroke-655" class="cls-1" d="M30.69,59.82a5.09,5.09,0,1,1-5.09-5.18h0a5.13,5.13,0,0,1,5.09,5.18Z"/><path id="Stroke-657" class="cls-1" d="M42.83,47.42a5.09,5.09,0,1,1-5.09-5.18h0a5.13,5.13,0,0,1,5.09,5.18Z"/><path id="Stroke-659" class="cls-1" d="M79.5,40.18A5.09,5.09,0,1,1,74.41,35a5.13,5.13,0,0,1,5.09,5.18Z"/><path id="Stroke-661" class="cls-1" d="M61.16,56.73a5.09,5.09,0,1,1-5.09-5.18,5.13,5.13,0,0,1,5.09,5.18h0Z"/><path id="Stroke-663" class="cls-1" d="M33.68,50.51,28.57,55.7"/><path id="Stroke-665" class="cls-1" d="M51,54.73,41.8,50.57"/><path id="Stroke-667" class="cls-1" d="M60.14,53.64,70.32,43.28"/></g></g></svg>