<svg id="Layer_1" data-name="Layer 1" xmlns="http://www.w3.org/2000/svg" width="100" height="100" viewBox="0 0 100 100"><defs><style>.cls-1{fill:#06956e;}</style></defs><title>d-abt-accountability</title><path class="cls-1" d="M30.5,31.66h1.35c2.72,0,5.45,0,8.17,0a1,1,0,0,0,.66-.28,6.68,6.68,0,0,1,2.92-2,.58.58,0,0,0,.33-.31,4.92,4.92,0,0,1,3.6-3.19,8.75,8.75,0,0,1,5.26.11,5.05,5.05,0,0,1,3.26,3,.65.65,0,0,0,.36.34,6.22,6.22,0,0,1,2.92,2,.82.82,0,0,0,.72.31H69.5V74.5h-39Zm2.09,40.73h34.8V33.8H60.91l.76,3.36H38.32l.83-3.37H32.59ZM59,35.08c-.88-2.22-2.16-3.85-4.71-3.93-.13-1.87-.72-2.73-2.23-3.18A6.59,6.59,0,0,0,48,28a2.54,2.54,0,0,0-1.93,1.86c-.17,1-.66,1.3-1.58,1.47a5,5,0,0,0-3.41,3.72Z"/><path class="cls-1" d="M47.12,61.11c.6-.55,1.2-1.06,1.75-1.61q5.94-6,11.86-12a2.44,2.44,0,0,1,.27-.25.79.79,0,0,1,1,.06.77.77,0,0,1,.09,1,4.19,4.19,0,0,1-.36.38l-13.82,14c-.55.56-.93.56-1.49,0l-6.35-6.44a.86.86,0,0,1-.28-1,.8.8,0,0,1,1.38-.18l3,3.07Z"/></svg>