<svg id="Layer_1" data-name="Layer 1" xmlns="http://www.w3.org/2000/svg" width="150" height="150" viewBox="0 0 150 150"><defs><style>.cls-1{fill:#02956e;}</style></defs><title>d-cta-phn</title><path class="cls-1" d="M104.63,99.09c-.92,2.16-3.39,3.57-5.37,4.67A16.84,16.84,0,0,1,91.07,106c-4.1,0-7.79-1.67-11.54-3a41.09,41.09,0,0,1-7.71-3.65A74.31,74.31,0,0,1,50.69,78.17,41.18,41.18,0,0,1,47,70.46c-1.36-3.74-3-7.44-3-11.54a16.83,16.83,0,0,1,2.25-8.19c1.1-2,2.51-4.45,4.67-5.37A19.6,19.6,0,0,1,57,44a2.25,2.25,0,0,1,.92.13c.92.31,1.89,2.46,2.33,3.35C61.7,50,63.07,52.54,64.52,55c.71,1.15,2,2.55,2,3.92,0,2.68-8,6.6-8,9,0,1.19,1.1,2.73,1.72,3.79a43.81,43.81,0,0,0,18,18c1.06.62,2.6,1.72,3.79,1.72,2.38,0,6.3-8,9-8,1.36,0,2.77,1.32,3.92,2,2.46,1.45,5,2.82,7.53,4.23.88.44,3,1.41,3.35,2.33A2.25,2.25,0,0,1,106,93,19.57,19.57,0,0,1,104.63,99.09Z"/></svg>