<svg id="Layer_1" data-name="Layer 1" xmlns="http://www.w3.org/2000/svg" width="150" height="150" viewBox="0 0 150 150"><defs><style>.cls-1{fill:#06956e;}</style></defs><title>d-cta-req</title><path class="cls-1" d="M88.11,107.38l-35.26-1A14.27,14.27,0,0,1,39,91.72l1-35.26A14.27,14.27,0,0,1,54.67,42.62l30.6.87a2.93,2.93,0,0,1-.17,5.85l-30.6-.87a8.41,8.41,0,0,0-8.64,8.16l-1,35.26A8.41,8.41,0,0,0,53,100.53l35.26,1a8.41,8.41,0,0,0,8.64-8.16l.36-12.77a2.93,2.93,0,0,1,5.85.17l-.36,12.77A14.27,14.27,0,0,1,88.11,107.38Z"/><path class="cls-1" d="M61.33,84l-.15,9.7a.73.73,0,0,0,.7.75l9.69.4a.73.73,0,0,0,.54-.2l32.86-31L94.42,52.48l-32.86,31A.73.73,0,0,0,61.33,84Zm33-26.77h0a.88.88,0,0,1,0,1.24L69.25,82.23a.88.88,0,0,1-1.24,0h0a.88.88,0,0,1,0-1.24L93.11,57.25A.88.88,0,0,1,94.35,57.28Zm15.33-4.71-3.92-4.15a4.83,4.83,0,0,0-6.82-.2l-2.79,2.64L106.69,62l2.79-2.64A4.83,4.83,0,0,0,109.68,52.57Z"/></svg>