<svg id="Layer_1" data-name="Layer 1" xmlns="http://www.w3.org/2000/svg" width="22" height="22" viewBox="0 0 22 22"><defs><style>.cls-1{fill:#9e9e9e;}</style></defs><title>d-h-lgn</title><path class="cls-1" d="M11,2A9,9,0,0,0,4.05,16.72a7.67,7.67,0,0,0,.63.68,9,9,0,0,0,12.63,0,8.6,8.6,0,0,0,.64-.7A9,9,0,0,0,11,2ZM5.66,17.06a10,10,0,0,1,1.14-.49c.57-.2,1.17-.35,1.75-.49a1.69,1.69,0,0,0,1-2.66c-.17-.24-.4-.45-.58-.69A5.74,5.74,0,0,1,7.85,9.86a4.71,4.71,0,0,1,.33-2.55,3.08,3.08,0,0,1,5.79.4,5.56,5.56,0,0,1-.26,3.83,5,5,0,0,1-1.08,1.63A1.69,1.69,0,0,0,13,15.92a5.12,5.12,0,0,0,1,.28,11.3,11.3,0,0,1,2.34.85,8,8,0,0,1-10.69,0Zm11.59-.92-.25.27a11.37,11.37,0,0,0-3.34-1.18.82.82,0,0,1-.46-1.35c.14-.17.3-.32.44-.49a6.81,6.81,0,0,0,1.45-4.15,5.82,5.82,0,0,0-.36-2.06,3.92,3.92,0,0,0-4.59-2.5A3.83,3.83,0,0,0,7.3,7.15,5.74,5.74,0,0,0,7,10.3a6.44,6.44,0,0,0,1.75,3.54.83.83,0,0,1,.11.14.8.8,0,0,1-.52,1.25l-.74.17a11.86,11.86,0,0,0-2.61,1c-.08-.09-.17-.17-.25-.27a8.09,8.09,0,1,1,12.49,0Z"/></svg>