<?xml version="1.0" encoding="utf-8"?>
<!-- Generator: Adobe Illustrator 17.0.0, SVG Export Plug-In . SVG Version: 6.00 Build 0)  -->
<!DOCTYPE svg PUBLIC "-//W3C//DTD SVG 1.1//EN" "http://www.w3.org/Graphics/SVG/1.1/DTD/svg11.dtd">
<svg version="1.1" id="Layer_1" xmlns="http://www.w3.org/2000/svg" xmlns:xlink="http://www.w3.org/1999/xlink" x="0px" y="0px"
	 width="22px" height="22px" viewBox="0 0 22 22" enable-background="new 0 0 22 22" xml:space="preserve">
<g>
	<path fill="#02956E" d="M16.736,15.662c-0.179,0.418-0.655,0.691-1.039,0.904C15.193,16.838,14.682,17,14.111,17
		c-0.793,0-1.508-0.324-2.232-0.588c-0.521-0.187-1.024-0.417-1.492-0.707c-1.449-0.895-3.196-2.642-4.091-4.091
		c-0.29-0.468-0.52-0.972-0.707-1.491C5.324,9.398,5,8.682,5,7.889c0-0.571,0.162-1.083,0.435-1.585
		c0.213-0.383,0.486-0.861,0.904-1.04C6.62,5.136,7.216,5,7.523,5c0.06,0,0.119,0,0.18,0.025c0.179,0.06,0.366,0.477,0.451,0.648
		c0.273,0.486,0.537,0.98,0.818,1.458c0.136,0.222,0.392,0.494,0.392,0.759c0,0.519-1.542,1.278-1.542,1.739
		c0,0.23,0.213,0.529,0.332,0.733c0.861,1.552,1.934,2.625,3.485,3.486c0.205,0.119,0.503,0.332,0.733,0.332
		c0.46,0,1.219-1.542,1.739-1.542c0.264,0,0.536,0.256,0.758,0.392c0.478,0.281,0.972,0.545,1.458,0.818
		c0.171,0.086,0.588,0.273,0.648,0.451C17,14.358,17,14.418,17,14.477C17,14.784,16.864,15.38,16.736,15.662z"/>
</g>
</svg>
