<?xml version="1.0" encoding="utf-8"?>
<!-- Generator: Adobe Illustrator 17.1.0, SVG Export Plug-In . SVG Version: 6.00 Build 0)  -->
<!DOCTYPE svg PUBLIC "-//W3C//DTD SVG 1.1//EN" "http://www.w3.org/Graphics/SVG/1.1/DTD/svg11.dtd">
<svg version="1.1" id="Layer_1" xmlns="http://www.w3.org/2000/svg" xmlns:xlink="http://www.w3.org/1999/xlink" x="0px" y="0px"
	 width="31px" height="31px" viewBox="0 0 31 31" enable-background="new 0 0 31 31" xml:space="preserve">
<path fill="#999999" d="M24.9,11.3c-0.1-0.2-0.3-0.3-0.6-0.3H10.6L9.5,7.8C9.4,7.5,9.2,7.3,8.9,7.3L6.8,7C6.4,7,6.1,7.2,6,7.6
	C6,8,6.2,8.3,6.6,8.4l1.7,0.2l4,12c0,0-0.1,0.1-0.1,0.1c-0.3,0.2-0.5,0.5-0.7,0.8c-0.1,0.2-0.1,0.5-0.1,0.7c0,0.4,0.1,0.7,0.3,1
	c0.2,0.3,0.5,0.5,0.8,0.7c0.2,0.1,0.5,0.1,0.7,0.1c0.4,0,0.7-0.1,1-0.3c0.3-0.2,0.5-0.5,0.7-0.8c0.1-0.2,0.1-0.5,0.1-0.7
	c0-0.1,0-0.3-0.1-0.4h4.4c0,0.1-0.1,0.3-0.1,0.4c0,0.4,0.1,0.7,0.3,1c0.2,0.3,0.5,0.5,0.8,0.7c0.2,0.1,0.5,0.1,0.7,0.1
	c0.4,0,0.7-0.1,1-0.3c0.3-0.2,0.5-0.5,0.7-0.8c0.1-0.2,0.1-0.5,0.1-0.7c0-0.4-0.1-0.7-0.3-1c-0.2-0.3-0.5-0.5-0.8-0.7
	c-0.2-0.1-0.4-0.1-0.6-0.1c0,0,0,0-0.1,0h-7.4l-0.9-2.7l9.7,0.1c0.3,0,0.5-0.2,0.6-0.5l1.8-5.5C25,11.7,25,11.5,24.9,11.3"/>
<rect x="0.5" y="0.5" fill="none" width="30" height="30"/>
</svg>
