<?xml version="1.0" encoding="utf-8"?>
<!-- Generator: Adobe Illustrator 17.1.0, SVG Export Plug-In . SVG Version: 6.00 Build 0)  -->
<!DOCTYPE svg PUBLIC "-//W3C//DTD SVG 1.1//EN" "http://www.w3.org/Graphics/SVG/1.1/DTD/svg11.dtd">
<svg version="1.1" id="Layer_1" xmlns="http://www.w3.org/2000/svg" xmlns:xlink="http://www.w3.org/1999/xlink" x="0px" y="0px"
	 width="41px" height="41px" viewBox="0 0 41 41" enable-background="new 0 0 41 41" xml:space="preserve">
<g>
	<path fill="#00A176" d="M31.6,31.1c-0.6,0.7-1.2,1.3-2,1.8c-3.1,2-6.4,2.2-9.8,0.6c-0.2-0.1-0.3-0.1-0.5,0
		c-5.6,2.6-12.2-0.7-13.4-6.8c-0.8-3.8,0.9-7.7,4.1-9.9c0.2-0.1,0.3-0.3,0.3-0.5c0.4-3.3,1.9-5.8,4.8-7.4c5.4-3.1,12.2-0.4,14,5.6
		c0.2,0.7,0.3,1.4,0.4,2.2c0,0.1,0.1,0.3,0.2,0.3c2.4,1.6,3.8,3.9,4.2,6.7c0.2,1.7,0,3.3-0.6,4.8c0,0.1-0.1,0.1-0.1,0.2
		c0.5-1.8,0.3-3.4-0.7-5c-1-1.5-2.4-2.4-4.2-2.7c0.5,4.5-1.4,7.6-5.4,9.5C24,32.6,28.3,34.3,31.6,31.1z M24.2,18.3
		c-2.4-2.6-6.5-2.4-8.6-0.3c1,1.1,2.2,1.8,3.8,2c-1.3,0.5-2.4,1.7-1.9,3.6c-0.5-0.7-1-1.2-1.7-1.6c-0.7-0.4-1.4-0.7-2.1-0.8
		c-0.9,3.3,1.2,6.8,4.6,7.5c0.4-1.5,0.3-2.9-0.3-4.3c0.5,0.5,1.2,0.9,1.9,0.9c0.8,0,1.4-0.2,2-0.7c-0.7,1.8-0.5,3.3-0.2,3.9
		c2.9-0.9,4.9-4.1,4.1-7.3c-0.3,0.1-0.7,0.3-1,0.4c-0.8,0.4-1.5,1-2.1,1.7c0.2-1.6-0.4-2.7-1.9-3.3C22.1,19.8,23.2,19.2,24.2,18.3z
		 M14.4,15.8c3.9-2.5,7.6-2.4,11.1,0.5c0.8-1.8,0.6-4.6-1.5-6.5c-2-1.9-5-2.1-7.3-0.6C14.6,10.6,13.6,13.5,14.4,15.8z M17.1,30.8
		c-2-0.7-3.6-1.9-4.7-3.7c-1.1-1.8-1.5-3.8-1.2-5.8c-1.9,0.1-4,2.4-4.4,4.8c-0.5,2.6,1,5.3,3.5,6.4C12.8,33.5,15.6,32.6,17.1,30.8z"
		/>
</g>
<rect x="0.5" y="0.5" fill="none" width="40" height="40"/>
</svg>
