<?xml version="1.0" encoding="utf-8"?>
<!-- Generator: Adobe Illustrator 17.1.0, SVG Export Plug-In . SVG Version: 6.00 Build 0)  -->
<!DOCTYPE svg PUBLIC "-//W3C//DTD SVG 1.1//EN" "http://www.w3.org/Graphics/SVG/1.1/DTD/svg11.dtd">
<svg version="1.1" id="Layer_1" xmlns="http://www.w3.org/2000/svg" xmlns:xlink="http://www.w3.org/1999/xlink" x="0px" y="0px"
	 width="41px" height="41px" viewBox="0 0 41 41" enable-background="new 0 0 41 41" xml:space="preserve">
<path fill="#00A176" d="M10.2,9.5v22h16.2c2.4,0,4.3-1.9,4.3-4.3V9.5H10.2z M17.5,14.9l0.5-0.5c0.1-0.1,0.2-0.1,0.4-0.1h0
	c0.1,0,0.2,0.1,0.3,0.1c0.2,0.2,0.5,0.5,0.5,0.5c0.1,0.1,0.2,0.1,0.4,0.1c0.1,0,0.3,0,0.4-0.1l2.3-2.3c0.2-0.2,0.5-0.2,0.7,0
	l0.5,0.5c0.1,0.1,0.1,0.2,0.1,0.4c0,0.1,0,0.3-0.1,0.3l-3.5,3.5c-0.1,0.1-0.2,0.1-0.4,0.1c-0.1,0-0.3,0-0.4-0.1l-1.7-1.7
	c-0.1-0.1-0.1-0.2-0.1-0.4C17.4,15.1,17.4,15,17.5,14.9z M27.9,27.8H13.7v-2h14.1V27.8z M27.9,23.5H13.7v-2h14.1V23.5z"/>
<rect x="0.5" y="0.5" fill="none" width="40" height="40"/>
</svg>
