<?xml version="1.0" encoding="utf-8"?>
<!-- Generator: Adobe Illustrator 17.0.0, SVG Export Plug-In . SVG Version: 6.00 Build 0)  -->
<!DOCTYPE svg PUBLIC "-//W3C//DTD SVG 1.1//EN" "http://www.w3.org/Graphics/SVG/1.1/DTD/svg11.dtd">
<svg version="1.1" id="Layer_1" xmlns="http://www.w3.org/2000/svg" xmlns:xlink="http://www.w3.org/1999/xlink" x="0px" y="0px"
	 width="70px" height="70px" viewBox="0 0 70 70" enable-background="new 0 0 70 70" xml:space="preserve">
<g>
	<path fill="#02956E" d="M48.861,46.265c-0.432,1.01-1.584,1.669-2.511,2.184c-1.218,0.659-2.452,1.05-3.833,1.05
		c-1.916,0-3.644-0.783-5.395-1.422c-1.259-0.452-2.474-1.008-3.606-1.71c-3.502-2.162-7.724-6.384-9.886-9.886
		c-0.702-1.132-1.257-2.348-1.71-3.604c-0.639-1.75-1.422-3.48-1.422-5.396c0-1.381,0.391-2.616,1.05-3.831
		c0.515-0.927,1.174-2.081,2.184-2.513c0.679-0.31,2.121-0.639,2.862-0.639c0.144,0,0.288,0,0.434,0.061
		c0.432,0.146,0.884,1.154,1.091,1.566c0.659,1.174,1.298,2.369,1.977,3.523c0.329,0.535,0.947,1.194,0.947,1.833
		c0,1.255-3.727,3.089-3.727,4.202c0,0.556,0.515,1.278,0.803,1.77c2.081,3.75,4.675,6.344,8.422,8.424
		c0.495,0.288,1.215,0.803,1.772,0.803c1.111,0,2.947-3.727,4.202-3.727c0.639,0,1.296,0.618,1.831,0.947
		c1.156,0.679,2.348,1.318,3.523,1.977c0.414,0.207,1.422,0.659,1.566,1.091c0.063,0.146,0.063,0.29,0.063,0.434
		C49.5,44.144,49.171,45.586,48.861,46.265z"/>
</g>
</svg>
