<?xml version="1.0" encoding="utf-8"?>
<!-- Generator: Adobe Illustrator 17.0.0, SVG Export Plug-In . SVG Version: 6.00 Build 0)  -->
<!DOCTYPE svg PUBLIC "-//W3C//DTD SVG 1.1//EN" "http://www.w3.org/Graphics/SVG/1.1/DTD/svg11.dtd">
<svg version="1.1" id="Layer_1" xmlns="http://www.w3.org/2000/svg" xmlns:xlink="http://www.w3.org/1999/xlink" x="0px" y="0px"
	 width="40px" height="40px" viewBox="0 0 40 40" enable-background="new 0 0 40 40" xml:space="preserve">
<g>
	<g>
		<path fill="#E2E2E2" d="M30.789,15.451c0,0-0.215-1.568-0.875-2.258c-0.837-0.906-1.776-0.911-2.206-0.964
			C24.627,12,20.005,12,20.005,12h-0.01c0,0-4.622,0-7.703,0.23c-0.43,0.053-1.368,0.057-2.206,0.964
			c-0.66,0.69-0.875,2.258-0.875,2.258s-0.22,1.841-0.22,3.682v1.726c0,1.841,0.22,3.682,0.22,3.682s0.215,1.568,0.875,2.258
			c0.838,0.906,1.938,0.878,2.428,0.972C14.276,27.946,20,28,20,28s4.626-0.007,7.707-0.237c0.43-0.053,1.369-0.058,2.206-0.964
			c0.66-0.691,0.875-2.258,0.875-2.258s0.22-1.841,0.22-3.682v-1.726C31.009,17.292,30.789,15.451,30.789,15.451z M17.701,23.153
			v-6.407l5.85,3.139L17.701,23.153z"/>
	</g>
</g>
</svg>
