<?xml version="1.0" encoding="utf-8"?>
<!-- Generator: Adobe Illustrator 17.0.0, SVG Export Plug-In . SVG Version: 6.00 Build 0)  -->
<!DOCTYPE svg PUBLIC "-//W3C//DTD SVG 1.1//EN" "http://www.w3.org/Graphics/SVG/1.1/DTD/svg11.dtd">
<svg version="1.1" id="Layer_1" xmlns="http://www.w3.org/2000/svg" xmlns:xlink="http://www.w3.org/1999/xlink" x="0px" y="0px"
	 width="80px" height="80px" viewBox="0 0 80 80" enable-background="new 0 0 80 80" xml:space="preserve">
<g>
	
		<circle fill="none" stroke="#06956E" stroke-width="1.5" stroke-linecap="round" stroke-linejoin="round" cx="40" cy="40" r="22.5"/>
	<path fill="none" stroke="#06956E" stroke-width="1.5" stroke-linecap="round" stroke-linejoin="round" d="M45.829,48.336
		c0,3.219-2.61,5.829-5.829,5.829s-5.829-2.61-5.829-5.829"/>
	<path fill="none" stroke="#06956E" stroke-width="1.5" stroke-linecap="round" stroke-linejoin="round" d="M30.893,31.107
		c0.485-1.106,1.578-1.821,2.786-1.821c1.644,0.086,2.957,1.399,3.043,3.043c0.044,0.385,0.011,0.774-0.096,1.146
		c-0.257,1.006-0.819,1.907-1.607,2.582l-4.125,3.557l-4.05-3.557c-0.789-0.675-1.35-1.577-1.607-2.582
		c-0.108-0.372-0.14-0.762-0.096-1.146c0.086-1.644,1.399-2.957,3.043-3.043C29.37,29.291,30.439,30.009,30.893,31.107z"/>
	<path fill="none" stroke="#06956E" stroke-width="1.5" stroke-linecap="round" stroke-linejoin="round" d="M48.989,31.107
		c0.485-1.106,1.578-1.821,2.786-1.821c1.644,0.086,2.957,1.399,3.043,3.043c0.044,0.385,0.011,0.774-0.096,1.146
		c-0.257,1.006-0.819,1.907-1.607,2.582l-4.125,3.557l-4.05-3.557c-0.789-0.675-1.35-1.577-1.607-2.582
		c-0.108-0.372-0.14-0.762-0.096-1.146c0.086-1.644,1.399-2.957,3.043-3.043C47.467,29.291,48.536,30.009,48.989,31.107z"/>
</g>
</svg>
