<?xml version="1.0" encoding="utf-8"?>
<!-- Generator: Adobe Illustrator 17.0.0, SVG Export Plug-In . SVG Version: 6.00 Build 0)  -->
<!DOCTYPE svg PUBLIC "-//W3C//DTD SVG 1.1//EN" "http://www.w3.org/Graphics/SVG/1.1/DTD/svg11.dtd">
<svg version="1.1" id="Layer_1" xmlns="http://www.w3.org/2000/svg" xmlns:xlink="http://www.w3.org/1999/xlink" x="0px" y="0px"
	 width="80px" height="80px" viewBox="0 0 80 80" enable-background="new 0 0 80 80" xml:space="preserve">
<g id="Page-1_5_">
	<g id="u17_2_">
		<path id="Stroke-361_2_" fill="none" stroke="#06956E" stroke-width="1.5" d="M40,43.622L40,43.622
			c-5.807,0-10.514-4.706-10.514-10.511V19.807c0.006-0.451,0.376-0.813,0.828-0.807c0.012,0,0.024,0.001,0.035,0.001h19.301
			c0.451,0,0.817,0.366,0.817,0.817v0v13.303c0,5.805-4.707,10.511-10.514,10.511h0l0,0L40,43.622z"/>
		<path id="Stroke-363_2_" fill="none" stroke="#06956E" stroke-width="1.5" d="M49.06,61H30.894c0-2.401,1.947-4.347,4.349-4.347
			l0,0h9.424c2.401-0.025,4.369,1.901,4.394,4.302C49.06,60.97,49.06,60.985,49.06,61L49.06,61z"/>
		<path id="Stroke-365_2_" fill="none" stroke="#06956E" stroke-width="1.5" d="M37.468,43.304v3.405
			c-1.699,1.398-1.943,3.909-0.544,5.608c0.163,0.198,0.346,0.381,0.544,0.544v3.814"/>
		<path id="Stroke-365-2_2_" fill="none" stroke="#06956E" stroke-width="1.5" d="M42.532,56.664v-3.803
			c1.699-1.398,1.943-3.909,0.544-5.608c-0.163-0.198-0.346-0.381-0.544-0.544l0,0v-3.405"/>
		<path id="Stroke-367_2_" fill="none" stroke="#06956E" stroke-width="1.5" d="M29.486,21.839c-4.859-3.122-7.948,0-7.948,0.068
			c-2.314,2.781-1.981,6.9,0.749,9.274l9.39,8.468"/>
		<path id="Stroke-369_2_" fill="none" stroke="#06956E" stroke-width="1.5" d="M50.514,21.884c4.859-3.122,7.948,0,7.948,0.068
			c2.314,2.781,1.981,6.9-0.749,9.274l-9.39,8.468"/>
		<path id="Stroke-371_2_" fill="none" stroke="#06956E" stroke-width="1.5" stroke-linejoin="round" d="M40.079,22.293l2.6,5.267
			l5.836,0.851l-4.224,4.098l0.988,5.789l-5.2-2.736l-5.189,2.736l0.988-5.789l-4.212-4.098l5.813-0.84l2.6-5.267l0,0V22.293z"/>
	</g>
</g>
</svg>
