<?xml version="1.0" encoding="utf-8"?>
<!-- Generator: Adobe Illustrator 17.0.0, SVG Export Plug-In . SVG Version: 6.00 Build 0)  -->
<!DOCTYPE svg PUBLIC "-//W3C//DTD SVG 1.1//EN" "http://www.w3.org/Graphics/SVG/1.1/DTD/svg11.dtd">
<svg version="1.1" id="Layer_1" xmlns="http://www.w3.org/2000/svg" xmlns:xlink="http://www.w3.org/1999/xlink" x="0px" y="0px"
	 width="40px" height="40px" viewBox="0 0 40 40" enable-background="new 0 0 40 40" xml:space="preserve">
<path fill="#E2E2E2" d="M29,13.894c-0.662,0.321-1.374,0.538-2.121,0.636c0.762-0.5,1.348-1.292,1.624-2.235
	c-0.714,0.463-1.504,0.799-2.345,0.98C25.484,12.491,24.524,12,23.462,12c-2.039,0-3.693,1.808-3.693,4.039
	c0,0.317,0.033,0.625,0.096,0.92c-3.069-0.168-5.79-1.776-7.612-4.22c-0.318,0.597-0.5,1.29-0.5,2.031
	c0,1.401,0.652,2.638,1.643,3.362c-0.605-0.021-1.175-0.203-1.673-0.505c0,0.017,0,0.034,0,0.051c0,1.957,1.273,3.59,2.962,3.961
	c-0.31,0.092-0.636,0.142-0.973,0.142c-0.238,0-0.469-0.025-0.695-0.072c0.47,1.605,1.834,2.773,3.45,2.805
	c-1.264,1.083-2.856,1.729-4.586,1.729c-0.298,0-0.592-0.019-0.881-0.056C12.634,27.331,14.575,28,16.661,28
	c6.793,0,10.507-6.155,10.507-11.492c0-0.175-0.004-0.349-0.011-0.523C27.879,15.415,28.505,14.704,29,13.894z"/>
</svg>
