<?xml version="1.0" encoding="utf-8"?>
<!-- Generator: Adobe Illustrator 17.1.0, SVG Export Plug-In . SVG Version: 6.00 Build 0)  -->
<!DOCTYPE svg PUBLIC "-//W3C//DTD SVG 1.1//EN" "http://www.w3.org/Graphics/SVG/1.1/DTD/svg11.dtd">
<svg version="1.1" id="Layer_1" xmlns="http://www.w3.org/2000/svg" xmlns:xlink="http://www.w3.org/1999/xlink" x="0px" y="0px"
	 width="41px" height="41px" viewBox="0 0 41 41" enable-background="new 0 0 41 41" xml:space="preserve">
<rect x="0.5" y="0.5" fill="none" width="40" height="40"/>
<g>
	<path fill="#00A076" d="M31.4,21.7c0,3.1,0,6.2,0,9.4c0,1.5-0.7,2.4-1.9,2.7c-0.3,0.1-0.5,0.1-0.8,0.1c-5.4,0-10.8,0-16.3,0
		c-1.8,0-2.7-0.9-2.7-2.7c0-2.9,0-5.7,0-8.6c0-3.4,0-6.7,0-10.1c0-1.4,0.7-2.4,1.9-2.6c0.2-0.1,0.5-0.1,0.7-0.1c1.5,0,2.9,0,4.4,0
		c0.3,0,0.5-0.1,0.6-0.4c0.6-1.4,1.8-2.1,3.2-2c1.4,0,2.6,0.7,3.2,2c0.1,0.3,0.3,0.4,0.6,0.4c1.4,0,2.8,0,4.2,0c2,0,2.9,0.9,2.9,2.9
		C31.4,15.6,31.4,18.6,31.4,21.7z M26.5,12c0,0.8,0,1.6,0,2.3c-4,0-8,0-12,0c0-0.8,0-1.5,0-2.3c-0.8,0-1.6,0-2.4,0
		c0,6.5,0,12.9,0,19.3c5.7,0,11.3,0,16.9,0c0-6.5,0-12.9,0-19.4C28.2,12,27.4,12,26.5,12z M20.5,9.6c-0.7,0-1.2,0.5-1.2,1.2
		c0,0.7,0.5,1.2,1.2,1.2c0.7,0,1.2-0.5,1.3-1.2C21.7,10.1,21.2,9.6,20.5,9.6z"/>
	<path fill="#00A076" d="M25,21.2l-5.3,5.3c-0.1,0.1-0.3,0.2-0.5,0.2c-0.2,0-0.4-0.1-0.5-0.2L16,23.9c-0.1-0.1-0.2-0.3-0.2-0.5
		s0.1-0.4,0.2-0.5l0.7-0.7c0.1-0.1,0.3-0.2,0.5-0.2h0c0.2,0,0.4,0.1,0.5,0.2c0.3,0.3,0.8,0.8,0.8,0.8c0.2,0.2,0.3,0.2,0.6,0.2
		c0.2,0,0.4-0.1,0.6-0.2l3.5-3.5c0.3-0.3,0.8-0.3,1,0l0.7,0.7c0.1,0.1,0.2,0.3,0.2,0.5C25.2,20.8,25.1,21,25,21.2z"/>
</g>
</svg>
