<?xml version="1.0" encoding="utf-8"?>
<!-- Generator: Adobe Illustrator 17.0.0, SVG Export Plug-In . SVG Version: 6.00 Build 0)  -->
<!DOCTYPE svg PUBLIC "-//W3C//DTD SVG 1.1//EN" "http://www.w3.org/Graphics/SVG/1.1/DTD/svg11.dtd">
<svg version="1.1" id="Layer_1" xmlns="http://www.w3.org/2000/svg" xmlns:xlink="http://www.w3.org/1999/xlink" x="0px" y="0px"
	 width="60px" height="60px" viewBox="0 0 60 60" enable-background="new 0 0 60 60" xml:space="preserve">
<g>
	<path fill="#E2E2E2" d="M44.25,22.65c0,0.574-0.481,1.05-1.063,1.05H19.812c-0.581,0-1.063-0.476-1.063-1.05v-2.1
		c0-0.574,0.481-1.05,1.063-1.05h23.375c0.581,0,1.063,0.476,1.063,1.05V22.65z M44.25,31.05c0,0.574-0.481,1.05-1.063,1.05H19.812
		c-0.581,0-1.063-0.476-1.063-1.05v-2.1c0-0.574,0.481-1.05,1.063-1.05h23.375c0.581,0,1.063,0.476,1.063,1.05V31.05z M44.25,39.45
		c0,0.574-0.481,1.05-1.063,1.05H19.812c-0.581,0-1.063-0.476-1.063-1.05v-2.1c0-0.574,0.481-1.05,1.063-1.05h23.375
		c0.581,0,1.063,0.476,1.063,1.05V39.45z"/>
</g>
</svg>
