<?xml version="1.0" encoding="utf-8"?>
<!-- Generator: Adobe Illustrator 17.0.0, SVG Export Plug-In . SVG Version: 6.00 Build 0)  -->
<!DOCTYPE svg PUBLIC "-//W3C//DTD SVG 1.1//EN" "http://www.w3.org/Graphics/SVG/1.1/DTD/svg11.dtd">
<svg version="1.1" id="Layer_1" xmlns="http://www.w3.org/2000/svg" xmlns:xlink="http://www.w3.org/1999/xlink" x="0px" y="0px"
	 width="80px" height="80px" viewBox="0 0 80 80" enable-background="new 0 0 80 80" xml:space="preserve">
<g id="Page-1_4_">
	<g id="c78_2_">
		<path id="Stroke-655_2_" fill="none" stroke="#06956E" stroke-width="1.5" stroke-linecap="round" d="M20.686,49.824
			c0,2.858-2.28,5.176-5.093,5.176c-2.813,0-5.093-2.317-5.093-5.176c0-2.858,2.28-5.176,5.093-5.176h0
			C18.405,44.649,20.686,46.966,20.686,49.824L20.686,49.824z"/>
		<path id="Stroke-657_2_" fill="none" stroke="#06956E" stroke-width="1.5" stroke-linecap="round" d="M32.826,37.419
			c0,2.858-2.28,5.176-5.093,5.176s-5.093-2.317-5.093-5.176s2.28-5.176,5.093-5.176l0,0C30.546,32.243,32.826,34.56,32.826,37.419
			L32.826,37.419z"/>
		<path id="Stroke-659_2_" fill="none" stroke="#06956E" stroke-width="1.5" stroke-linecap="round" d="M69.5,30.176
			c0,2.858-2.28,5.176-5.093,5.176c-2.813,0-5.093-2.317-5.093-5.176S61.594,25,64.407,25C67.22,25,69.5,27.317,69.5,30.176
			L69.5,30.176L69.5,30.176z"/>
		<path id="Stroke-661_2_" fill="none" stroke="#06956E" stroke-width="1.5" stroke-linecap="round" d="M51.163,46.73
			c0,2.858-2.28,5.176-5.093,5.176s-5.093-2.317-5.093-5.176s2.28-5.176,5.093-5.176C48.883,41.554,51.163,43.871,51.163,46.73
			L51.163,46.73L51.163,46.73L51.163,46.73z"/>
		<path id="Stroke-663_2_" fill="none" stroke="#06956E" stroke-width="1.5" stroke-linecap="round" d="M23.678,40.514l-5.106,5.189
			"/>
		<path id="Stroke-665_2_" fill="none" stroke="#06956E" stroke-width="1.5" stroke-linecap="round" d="M40.991,44.73l-9.188-4.162"
			/>
		<path id="Stroke-667_2_" fill="none" stroke="#06956E" stroke-width="1.5" stroke-linecap="round" d="M50.139,43.635
			l10.186-10.351"/>
	</g>
</g>
</svg>
