<?xml version="1.0" encoding="utf-8"?>
<!-- Generator: Adobe Illustrator 17.0.0, SVG Export Plug-In . SVG Version: 6.00 Build 0)  -->
<!DOCTYPE svg PUBLIC "-//W3C//DTD SVG 1.1//EN" "http://www.w3.org/Graphics/SVG/1.1/DTD/svg11.dtd">
<svg version="1.1" id="Layer_1" xmlns="http://www.w3.org/2000/svg" xmlns:xlink="http://www.w3.org/1999/xlink" x="0px" y="0px"
	 width="40px" height="40px" viewBox="0 0 40 40" enable-background="new 0 0 40 40" xml:space="preserve">
<path fill="#E2E2E2" d="M14.918,28.5h-3.812V16.4h3.812V28.5z M24.553,16.7c1.482,0,2.541,0.4,3.282,1.3
	C28.576,18.9,29,20.1,29,21.6v6.9h-3.812V22c0-1.7-0.635-2.5-1.906-2.5c-1.059,0-1.694,0.5-2.012,1.4v7.6h-3.812
	c0-7.3,0-11.3,0-12.1h3.071l0.212,2.4h0.106C21.694,17.4,22.965,16.7,24.553,16.7z M11,13.3c0-1.2,0.635-1.8,2.012-1.8
	c1.271,0,2.012,0.6,2.012,1.8s-0.635,1.8-2.012,1.8S11,14.5,11,13.3z"/>
</svg>
