<svg id="Layer_1" data-name="Layer 1" xmlns="http://www.w3.org/2000/svg" width="60" height="60" viewBox="0 0 60 60"><defs><style>.cls-1{fill:#02956e;}</style></defs><title>req-comm</title><path class="cls-1" d="M25.07,29.92a1.93,1.93,0,1,0,2,1.93A1.94,1.94,0,0,0,25.07,29.92Zm9.87,0a1.93,1.93,0,1,0,1.95,1.93A1.94,1.94,0,0,0,34.94,29.92Zm12.3-2.08c0-5.22-1.57-9.29-4.57-12.11S35.43,11.52,30,11.52s-9.69,1.42-12.66,4.21-4.53,6.89-4.57,12.11A3.33,3.33,0,0,0,11,30.77v3.67a3.36,3.36,0,0,0,3.37,3.34h2.45c2.42,6.67,8.61,10.7,13.18,10.7s10.76-4,13.18-10.7h2.45A3.36,3.36,0,0,0,49,34.45V30.77A3.33,3.33,0,0,0,47.23,27.83ZM30,46.15c-2.56,0-6.67-2-9.31-5.91a16.22,16.22,0,0,0,5.92,1.32A3.45,3.45,0,0,0,29.65,43c1.81,0,3.27-1,3.27-2.3s-1.46-2.3-3.27-2.3a3.53,3.53,0,0,0-3,1.37c-2.75-.17-5.86-.8-7.74-3.05a15,15,0,0,1-.79-4.87c0-.49,0-1,0-1.42,3.35-.46,6.36-3.75,6.46-8,0-.49.2,0,.75.7h0c.13.18.29.37.47.58C29,27.43,33.09,27,35.19,28.67a4.91,4.91,0,0,0-1.08-2c3.43.38,6.14,1.41,7.64,2.77.07.78.11,1.59.11,2.45C41.87,41.1,34,46.15,30,46.15ZM43.91,27.43a16,16,0,0,0-3-7.53c-2.43-3.09-6.1-4.66-10.91-4.66s-8.48,1.57-10.91,4.66a16,16,0,0,0-3,7.53H14.8C15,18.33,20.25,13.52,30,13.52S45,18.33,45.2,27.43Z"/></svg>