<svg id="Layer_1" data-name="Layer 1" xmlns="http://www.w3.org/2000/svg" width="60" height="60" viewBox="0 0 60 60"><defs><style>.cls-1{fill:#02956e;}</style></defs><title>req-retrieval</title><path class="cls-1" d="M13,29.19a1.85,1.85,0,1,0-1.88-1.85A1.87,1.87,0,0,0,13,29.19Zm2.08.47H10.92A2.4,2.4,0,0,0,8.5,32v5.73a.81.81,0,0,0,.81.81.82.82,0,0,0,.82-.81V32.59h.42s0,13.48,0,14.37a1.11,1.11,0,0,0,2.21,0V38.61h.45V47a1.11,1.11,0,0,0,2.21,0V32.59h.42v5.16a.82.82,0,0,0,.83.81.81.81,0,0,0,.81-.81V32A2.4,2.4,0,0,0,15.08,29.66Zm6.71-5V24.3a.76.76,0,0,1,0-.28,6,6,0,0,1,.88-3.08,4.52,4.52,0,0,1,4-1.74H44.15a4.52,4.52,0,0,1,4,1.74A6,6,0,0,1,49,24a.73.73,0,0,1,0,.28v.37a1.14,1.14,0,0,1,.31,0h1.18V14c0-1.47-.6-2.52-2.57-2.52H22.87A2.29,2.29,0,0,0,20.3,14V24.63h1.18A1.13,1.13,0,0,1,21.8,24.67Zm-.31.54H19.85a.52.52,0,0,0-.52.51v4.6a.51.51,0,0,0,.52.51h1.63a.51.51,0,0,0,.52-.51v-4.6A.51.51,0,0,0,21.49,25.21Zm-1.18,6.2V36.2a.89.89,0,0,0,.9.88h.6V31.37a1.12,1.12,0,0,1-.31,0ZM51,25.21H49.35a.52.52,0,0,0-.52.51v4.6a.51.51,0,0,0,.52.51H51a.51.51,0,0,0,.52-.51v-4.6A.52.52,0,0,0,51,25.21ZM49,31.37v5.71h.6a.89.89,0,0,0,.9-.88V31.42H49.35A1.14,1.14,0,0,1,49,31.37Zm-1.64-9.93a3.58,3.58,0,0,0-3.24-1.35H26.68a3.58,3.58,0,0,0-3.24,1.35,5.28,5.28,0,0,0-.73,2.7.82.82,0,0,0,0,.16V44.38a.89.89,0,0,0,.9.88h.9v2.4a.87.87,0,0,0,.9.84h1.79a.87.87,0,0,0,.9-.84v-2.4H42.75v2.4a.87.87,0,0,0,.9.84h1.79a.87.87,0,0,0,.9-.84v-2.4h.9a.89.89,0,0,0,.9-.88V24.3a.93.93,0,0,0,0-.16A5.27,5.27,0,0,0,47.39,21.44Zm-22.76,3.5a.8.8,0,0,1,.81-.79h20a.8.8,0,0,1,.81.79v6.89a.79.79,0,0,1-.48.72,2.38,2.38,0,0,0-2.06-1.2h-4.1a2.39,2.39,0,0,0-2.1,1.27h-12a.8.8,0,0,1-.81-.79Zm3.06,18.72h0l-2.37-.2h0a.88.88,0,1,1,.16-1.75h0l2.37.2h0a.88.88,0,1,1-.16,1.75Zm17.83-.2h0l-2.37.2h0A.88.88,0,1,1,43,41.91h0l2.37-.2h0a.88.88,0,1,1,.16,1.75Zm.82-3.08L45,40.45c-2.62.12-4.62.22-5.65,1.88H31.12c-1.52-1.68-3-1.75-5.45-1.88l-1.19-.07v-.54l.39,0c2.65.13,4.84.2,6.49,1.88h7.69c1.12-1.66,3.88-1.75,6.71-1.88l.58,0Zm-4.72-9.52A1.89,1.89,0,1,0,39.76,29,1.87,1.87,0,0,0,41.62,30.86Z"/></svg>