<svg id="Layer_1" data-name="Layer 1" xmlns="http://www.w3.org/2000/svg" width="60" height="60" viewBox="0 0 60 60"><defs><style>.cls-1{fill:#fff;}</style></defs><title>req-sustain-wh</title><path class="cls-1" d="M13.37,34.31A10.56,10.56,0,0,0,18.2,35l3.14-5.22,2.38,1.31L19.6,23.37l-8.39.07,2.38,1.88-2.24,4.35C10.23,31.67,12.15,33.63,13.37,34.31Zm-1.82-.23,5.1,9.57c1,1.33,3,1.64,5,1.59H27V36.18L16.8,36.11A6.25,6.25,0,0,1,11.56,34.08ZM34.32,11.6l-10.72-.11c-1.64.27-2.85,1.83-3.79,3.63L17.21,19.9,25,24.29l5-9A6.37,6.37,0,0,1,34.32,11.6Zm6.45,24.75-6,.06-.17-2.73-4.3,7.65,4.51,7.18.31-3,4.82-.38c2.27-.1,2.89-2.79,2.81-4.2A10.9,10.9,0,0,0,40.78,36.35ZM47.5,28l-2.86-4.63-7.58,4.8L42.42,37a6.49,6.49,0,0,1,1.09,5.58l5.29-9.46C49.37,31.53,48.6,29.69,47.5,28ZM30.28,17l3,5.32L31,23.83l8.69.1,4-7.47-2.78,1.2-2.67-4.09c-1.18-2-3.8-1.21-5-.45A10.81,10.81,0,0,0,30.28,17Z"/></svg>