<svg id="Layer_1" data-name="Layer 1" xmlns="http://www.w3.org/2000/svg" width="60" height="60" viewBox="0 0 60 60"><defs><style>.cls-1{fill:#fff;}</style></defs><title>req-compliance-wh</title><path class="cls-1" d="M44.6,14.17c-5.25-.11-8.85-1.42-13.93-5.91A1.12,1.12,0,0,0,30,8a1.06,1.06,0,0,0-.65.24c-5.08,4.49-8.68,5.8-14,5.91a.91.91,0,0,0-.86.9V31.88c0,8.17,5.35,13.45,14.75,19.88A1.18,1.18,0,0,0,30,52a1.24,1.24,0,0,0,.74-.21C40.11,45.33,45.48,40,45.48,31.88V15.07A.91.91,0,0,0,44.6,14.17ZM38.21,27.9l-9.38,9.56a1.29,1.29,0,0,1-.93.39,1.26,1.26,0,0,1-.93-.39l-4.55-4.64a1.37,1.37,0,0,1,0-1.89l1.24-1.27a1.28,1.28,0,0,1,.93-.41h0a1.17,1.17,0,0,1,.89.39l1.41,1.44a1.41,1.41,0,0,0,2,0l6.22-6.36a1.3,1.3,0,0,1,1.85,0L38.21,26a1.28,1.28,0,0,1,.38.95A1.35,1.35,0,0,1,38.21,27.9Z"/></svg>