<svg id="Layer_1" data-name="Layer 1" xmlns="http://www.w3.org/2000/svg" width="100" height="100" viewBox="0 0 100 100"><defs><style>.cls-1{fill:none;stroke:#06956e;stroke-linecap:round;stroke-linejoin:round;stroke-width:1.5px;}</style></defs><title>d-abt-enjoyingwork</title><circle class="cls-1" cx="50" cy="50" r="22.5"/><path class="cls-1" d="M55.83,58.34a5.83,5.83,0,1,1-11.66,0"/><path class="cls-1" d="M40.89,41.11a3,3,0,0,1,2.79-1.82,3.21,3.21,0,0,1,3,3,2.93,2.93,0,0,1-.1,1.15A5,5,0,0,1,45,46.06l-4.13,3.56-4.05-3.56a5,5,0,0,1-1.61-2.58,2.93,2.93,0,0,1-.1-1.15,3.21,3.21,0,0,1,3-3A3,3,0,0,1,40.89,41.11Z"/><path class="cls-1" d="M59,41.11a3,3,0,0,1,2.79-1.82,3.21,3.21,0,0,1,3,3,2.92,2.92,0,0,1-.1,1.15,5,5,0,0,1-1.61,2.58L59,49.61l-4-3.56a5,5,0,0,1-1.61-2.58,2.92,2.92,0,0,1-.1-1.15,3.21,3.21,0,0,1,3-3A3,3,0,0,1,59,41.11Z"/></svg>