<svg id="Layer_1" data-name="Layer 1" xmlns="http://www.w3.org/2000/svg" width="100" height="100" viewBox="0 0 100 100"><defs><style>.cls-1,.cls-2{fill:none;stroke:#06956e;stroke-width:1.5px;}.cls-2{stroke-linejoin:round;}</style></defs><title>d-abt-oneteamonegoal</title><g id="Page-1"><g id="u17"><path id="Stroke-361" class="cls-1" d="M50,53.62h0A10.51,10.51,0,0,1,39.49,43.11V29.81a.82.82,0,0,1,.83-.81H59.65a.82.82,0,0,1,.82.82h0v13.3A10.51,10.51,0,0,1,50,53.63h0Z"/><path id="Stroke-363" class="cls-1" d="M59.06,71H40.89a4.35,4.35,0,0,1,4.35-4.35h9.42A4.35,4.35,0,0,1,59.06,71v0Z"/><path id="Stroke-365" class="cls-1" d="M47.47,53.3v3.41a4,4,0,0,0,0,6.15v3.81"/><path id="Stroke-365-2" class="cls-1" d="M52.53,66.66v-3.8a4,4,0,0,0,0-6.15h0V53.3"/><path id="Stroke-367" class="cls-1" d="M39.49,31.84c-4.86-3.12-7.95,0-7.95.07a6.65,6.65,0,0,0,.75,9.27l9.39,8.47"/><path id="Stroke-369" class="cls-1" d="M60.51,31.88c4.86-3.12,7.95,0,7.95.07a6.65,6.65,0,0,1-.75,9.27l-9.39,8.47"/><path id="Stroke-371" class="cls-2" d="M50.08,32.29l2.6,5.27,5.84.85-4.22,4.1,1,5.79-5.2-2.74L44.89,48.3l1-5.79-4.21-4.1,5.81-.84,2.6-5.27h0Z"/></g></g></svg>