<svg id="Layer_1" data-name="Layer 1" xmlns="http://www.w3.org/2000/svg" width="26" height="26" viewBox="0 0 26 26"><defs><style>.cls-1{fill:#757576;}</style></defs><title>d-blog-eml</title><path class="cls-1" d="M20.45,9a1.55,1.55,0,0,0-1.17-1l-.23,0H7L6.83,8a1.61,1.61,0,0,0-.76.33,1.46,1.46,0,0,0-.55.9s0,.09,0,.14v7.21l0,.16a1.39,1.39,0,0,0,.33.67,1.62,1.62,0,0,0,1,.55h12a1.59,1.59,0,0,0,1-.33,1.45,1.45,0,0,0,.58-.89,1.42,1.42,0,0,0,0-.28q0-1.93,0-3.87,0-1.64,0-3.28A.85.85,0,0,0,20.45,9ZM19,8.79h0L13.49,13.9l-.26.24a.28.28,0,0,1-.4,0L7.58,9.25l-.47-.44,0,0ZM6.81,17.18a.05.05,0,0,1-.06,0,.49.49,0,0,1-.33-.38,1.13,1.13,0,0,1,0-.23q0-3.67,0-7.34v0l4.47,4.18,0,0Zm1.07.07,3.57-3.34,0,0,1.36,1.28a.28.28,0,0,0,.4,0L14.54,14l0,0,3.53,3.29Zm11.75-.39a.6.6,0,0,1-.41.35,0,0,0,0,1,0,0l-2-1.84-2-1.91,0,0,4.55-4.25v0q0,3.61,0,7.21A1.09,1.09,0,0,1,19.62,16.85Z"/></svg>