<svg id="Layer_1" data-name="Layer 1" xmlns="http://www.w3.org/2000/svg" width="26" height="26" viewBox="0 0 26 26"><defs><style>.cls-1{fill:#757576;}</style></defs><title>d-blog-tw</title><path class="cls-1" d="M19.5,8.42A4.84,4.84,0,0,1,18,8.9a3,3,0,0,0,1.17-1.68A5,5,0,0,1,17.45,8,2.53,2.53,0,0,0,15.5,7a2.87,2.87,0,0,0-2.67,3,3.43,3.43,0,0,0,.07.69A7.32,7.32,0,0,1,7.4,7.55,3.33,3.33,0,0,0,7,9.08,3.15,3.15,0,0,0,8.23,11.6,2.42,2.42,0,0,1,7,11.22v0a3,3,0,0,0,2.14,3,2.36,2.36,0,0,1-1.2.05,2.74,2.74,0,0,0,2.49,2.1,5,5,0,0,1-3.31,1.3,4.79,4.79,0,0,1-.64,0A6.91,6.91,0,0,0,10.59,19c4.91,0,7.59-4.62,7.59-8.62q0-.2,0-.39A5.89,5.89,0,0,0,19.5,8.42Z"/></svg>