<svg id="Layer_1" data-name="Layer 1" xmlns="http://www.w3.org/2000/svg" width="30" height="30" viewBox="0 0 30 30"><defs><style>.cls-1{fill:#fff;}</style></defs><title>d-float-req</title><path class="cls-1" d="M19,24.35H9a4.11,4.11,0,0,1-4-4.18V9.83A4.11,4.11,0,0,1,9,5.65h8.63a.86.86,0,0,1,0,1.72H9A2.42,2.42,0,0,0,6.65,9.83V20.17A2.42,2.42,0,0,0,9,22.64H19a2.42,2.42,0,0,0,2.37-2.47V16.43a.83.83,0,1,1,1.65,0v3.75A4.11,4.11,0,0,1,19,24.35Z"/><path class="cls-1" d="M11.23,17.74l0,2.85a.21.21,0,0,0,.2.21l2.73,0a.2.2,0,0,0,.15-.06l9-9.38L20.3,8.21l-9,9.38A.22.22,0,0,0,11.23,17.74Zm9.09-8.12h0a.26.26,0,0,1,0,.36l-6.88,7.16a.24.24,0,0,1-.35,0h0a.26.26,0,0,1,0-.36L20,9.61A.24.24,0,0,1,20.32,9.61ZM24.6,8.1,23.46,6.92a1.32,1.32,0,0,0-1.92,0l-.77.8,3.06,3.19.77-.8A1.46,1.46,0,0,0,24.6,8.1Z"/></svg>