<svg id="Layer_1" data-name="Layer 1" xmlns="http://www.w3.org/2000/svg" width="40" height="40" viewBox="0 0 40 40"><defs><style>.cls-1{fill:#757576;}.cls-2{fill:none;stroke:#757576;stroke-miterlimit:10;}</style></defs><title>d-learnmore-grey</title><path class="cls-1" d="M22.9,20.21l-4.81,4.2a.36.36,0,0,1-.47,0L17.1,24a.28.28,0,0,1-.1-.21.3.3,0,0,1,.1-.21L21.15,20,17.1,16.46a.26.26,0,0,1,0-.41l.52-.45a.36.36,0,0,1,.47,0l4.81,4.2a.26.26,0,0,1,0,.41Z"/><circle class="cls-2" cx="20" cy="20" r="13.5"/></svg>