<?xml version="1.0" encoding="utf-8"?>
<!-- Generator: Adobe Illustrator 17.0.0, SVG Export Plug-In . SVG Version: 6.00 Build 0)  -->
<!DOCTYPE svg PUBLIC "-//W3C//DTD SVG 1.1//EN" "http://www.w3.org/Graphics/SVG/1.1/DTD/svg11.dtd">
<svg version="1.1" id="Layer_1" xmlns="http://www.w3.org/2000/svg" xmlns:xlink="http://www.w3.org/1999/xlink" x="0px" y="0px"
	 width="40px" height="40px" viewBox="0 0 40 40" enable-background="new 0 0 40 40" xml:space="preserve">
<path fill="#E2E2E2" d="M29.21,14.276c-0.678,0.301-1.406,0.505-2.17,0.596c0.78-0.469,1.379-1.211,1.662-2.095
	c-0.73,0.434-1.539,0.749-2.4,0.919C25.612,12.96,24.63,12.5,23.543,12.5c-2.087,0-3.779,1.695-3.779,3.787
	c0,0.297,0.033,0.586,0.098,0.863c-3.141-0.158-5.925-1.665-7.789-3.957c-0.325,0.559-0.512,1.21-0.512,1.904
	c0,1.314,0.667,2.473,1.681,3.152c-0.619-0.02-1.202-0.19-1.712-0.474c0,0.016,0,0.032,0,0.048c0,1.835,1.303,3.365,3.031,3.713
	c-0.317,0.087-0.651,0.133-0.996,0.133c-0.244,0-0.48-0.024-0.711-0.068c0.481,1.504,1.876,2.599,3.53,2.63
	c-1.293,1.016-2.923,1.621-4.693,1.621c-0.305,0-0.606-0.018-0.901-0.053c1.672,1.074,3.659,1.701,5.793,1.701
	c6.951,0,10.752-5.77,10.752-10.774c0-0.164-0.004-0.328-0.011-0.49C28.062,15.702,28.703,15.035,29.21,14.276z"/>
</svg>
