<?xml version="1.0" encoding="utf-8"?>
<!-- Generator: Adobe Illustrator 17.1.0, SVG Export Plug-In . SVG Version: 6.00 Build 0)  -->
<!DOCTYPE svg PUBLIC "-//W3C//DTD SVG 1.1//EN" "http://www.w3.org/Graphics/SVG/1.1/DTD/svg11.dtd">
<svg version="1.1" id="Layer_1" xmlns="http://www.w3.org/2000/svg" xmlns:xlink="http://www.w3.org/1999/xlink" x="0px" y="0px"
	 width="41px" height="41px" viewBox="0 0 41 41" enable-background="new 0 0 41 41" xml:space="preserve">
<rect x="0.5" y="0.5" fill="none" width="40" height="40"/>
<path fill="#00A076" d="M31.1,24.2c-0.5-0.7-0.1-2-0.1-2s-0.6-2.8-1.6-2.8c-1,0,1.3,0,0.5-1.4c-0.8-1.4-3.3-2.7-3.3-2.7L23,14.1
	l-2.4-0.7l2-3.4V9.4c0,0-0.4-0.5-1.1-0.4c-0.7,0.1-0.8-0.1-0.8-0.1S20.2,9.4,20.1,9c-0.1-0.4-0.8-0.3-1.2,0c-0.4,0.3-1,0.8-1.4,0.1
	c-0.4-0.7-0.7,0.3-0.7,0.3l2.7,4.1l-2,0.6l-3.1,1.4c0,0-0.6,0.8-1.1,1.9c-0.6,1.4-2.1,0.6-1.8,2.2c0.3,1.1-2.1,0.9-2,2.7
	c0.1,1.9,0,3,0,3S7,32.3,12,32.3h17.8C32.1,32.3,33,26.8,31.1,24.2"/>
</svg>
