<?xml version="1.0" encoding="utf-8"?>
<!-- Generator: Adobe Illustrator 17.1.0, SVG Export Plug-In . SVG Version: 6.00 Build 0)  -->
<!DOCTYPE svg PUBLIC "-//W3C//DTD SVG 1.1//EN" "http://www.w3.org/Graphics/SVG/1.1/DTD/svg11.dtd">
<svg version="1.1" id="Layer_1" xmlns="http://www.w3.org/2000/svg" xmlns:xlink="http://www.w3.org/1999/xlink" x="0px" y="0px"
	 width="41px" height="41px" viewBox="0 0 41 41" enable-background="new 0 0 41 41" xml:space="preserve">
<g>
	<path fill="#00A176" d="M6.3,33.2c0-5.9,0-11.8,0-17.7c0-0.2,0.1-0.3,0.1-0.5c0.6-1.9,2.3-2.7,4.1-2.5c-0.1,1.9,1.2,2.8,2.5,2.9
		c0.6,0,1.1-0.1,1.6-0.4c0.9-0.6,1.2-1.5,1.1-2.5c2.7,0,5.3,0,7.9,0c0.2,1.9,1,2.8,2.5,2.9c0.6,0,1.1-0.1,1.6-0.5
		c0.8-0.6,1.1-1.5,1.1-2.5c0.4,0,0.8,0,1.2,0c1.8,0,3.3,1.5,3.3,3.3c0,5.6,0,11.3,0,16.9c0,1.9-1.5,3.4-3.3,3.4
		c-6.8,0-13.5,0-20.3,0c-1.4,0-2.7-0.9-3.1-2.2C6.4,33.7,6.3,33.4,6.3,33.2z M8,19.3c0,0.1,0,0.2,0,0.3c0,4.3,0,8.7,0,13
		c0,1.2,0.7,1.9,1.9,1.9c6.6,0,13.3,0,19.9,0c1.2,0,1.9-0.7,1.9-1.9c0-4.3,0-8.7,0-13c0-0.1,0-0.2,0-0.3C23.7,19.3,15.8,19.3,8,19.3
		z"/>
	<path fill="#00A176" d="M13.4,9.2c0.1,0,0.2,0.1,0.3,0.1c0.4,0.2,0.7,0.5,0.7,1c0,0.9,0,1.9,0,2.8c0,0.7-0.6,1.2-1.4,1.1
		c-0.7,0-1.2-0.6-1.2-1.2c0-0.8,0-1.7,0-2.5c0-0.6,0.3-1.1,0.9-1.3c0,0,0.1,0,0.1-0.1C13,9.2,13.2,9.2,13.4,9.2z"/>
	<path fill="#00A176" d="M26.5,9.2c0.1,0,0.2,0.1,0.3,0.1c0.4,0.2,0.7,0.5,0.7,1c0,0.9,0,1.9,0,2.8c0,0.7-0.6,1.2-1.4,1.1
		c-0.7,0-1.2-0.6-1.2-1.2c0-0.8,0-1.7,0-2.5c0-0.6,0.3-1.1,0.9-1.3c0,0,0.1,0,0.1-0.1C26.1,9.2,26.3,9.2,26.5,9.2z"/>
	<path fill="#00A176" d="M11,23.5c0-1.1,0.9-2.1,2.1-2.1c1.1,0,2.1,0.9,2.1,2.1c0,1.1-0.9,2.1-2.1,2.1C11.9,25.6,11,24.7,11,23.5z"
		/>
	<path fill="#00A176" d="M19.8,25.6c-1.1,0-2.1-0.9-2.1-2.1c0-1.1,0.9-2.1,2.1-2.1c1.1,0,2.1,0.9,2.1,2.1
		C21.9,24.6,20.9,25.6,19.8,25.6z"/>
	<path fill="#00A176" d="M26.5,25.6c-1.1,0-2.1-0.9-2.1-2.1c0-1.1,0.9-2.1,2.1-2.1c1.1,0,2.1,0.9,2.1,2.1
		C28.6,24.6,27.7,25.6,26.5,25.6z"/>
	<path fill="#00A176" d="M15.1,30.2c0,1.1-0.9,2.1-2.1,2.1c-1.1,0-2.1-0.9-2.1-2.1c0-1.1,0.9-2.1,2.1-2.1
		C14.2,28.2,15.1,29.1,15.1,30.2z"/>
	<path fill="#00A176" d="M19.8,28.2c1.1,0,2.1,0.9,2.1,2.1c0,1.1-0.9,2.1-2.1,2.1c-1.1,0-2.1-0.9-2.1-2.1
		C17.7,29.1,18.6,28.2,19.8,28.2z"/>
	<path fill="#00A176" d="M26.5,32.3c-1.1,0-2.1-0.9-2.1-2.1c0-1.1,0.9-2.1,2.1-2.1c1.1,0,2.1,0.9,2.1,2.1
		C28.6,31.4,27.7,32.3,26.5,32.3z"/>
</g>
<rect x="0.5" y="0.5" fill="none" width="40" height="40"/>
</svg>
