<?xml version="1.0" encoding="utf-8"?>
<!-- Generator: Adobe Illustrator 17.0.0, SVG Export Plug-In . SVG Version: 6.00 Build 0)  -->
<!DOCTYPE svg PUBLIC "-//W3C//DTD SVG 1.1//EN" "http://www.w3.org/Graphics/SVG/1.1/DTD/svg11.dtd">
<svg version="1.1" id="Layer_1" xmlns="http://www.w3.org/2000/svg" xmlns:xlink="http://www.w3.org/1999/xlink" x="0px" y="0px"
	 width="80px" height="80px" viewBox="0 0 80 80" enable-background="new 0 0 80 80" xml:space="preserve">
<g>
	
		<line fill="none" stroke="#06956E" stroke-width="1.5" stroke-linecap="round" stroke-miterlimit="10" x1="40" y1="19" x2="40" y2="61"/>
	
		<line fill="none" stroke="#06956E" stroke-width="1.5" stroke-linecap="round" stroke-miterlimit="10" x1="25.078" y1="24.582" x2="54.922" y2="24.582"/>
	
		<line fill="none" stroke="#06956E" stroke-width="1.5" stroke-linecap="round" stroke-miterlimit="10" x1="33.335" y1="61" x2="46.664" y2="61"/>
	<polygon fill="none" stroke="#06956E" stroke-width="1.5" stroke-linecap="round" stroke-linejoin="round" points="25.078,24.582 
		29.361,33.381 33.643,42.18 25.078,42.18 16.5,42.18 20.782,33.381 	"/>
	<path fill="none" stroke="#06956E" stroke-width="1.5" stroke-linecap="round" stroke-linejoin="round" d="M25.078,50.686
		c4.73,0,8.565-3.808,8.565-8.506l0,0H16.5c0,4.698,3.835,8.506,8.565,8.506C25.069,50.686,25.074,50.686,25.078,50.686z"/>
	<polygon fill="none" stroke="#06956E" stroke-width="1.5" stroke-linecap="round" stroke-linejoin="round" points="54.922,24.582 
		59.204,33.381 63.5,42.18 54.922,42.18 46.357,42.18 50.639,33.381 	"/>
	<path fill="none" stroke="#06956E" stroke-width="1.5" stroke-linecap="round" stroke-linejoin="round" d="M54.922,50.686
		c4.73,0,8.565-3.808,8.565-8.506v0h-17.13C46.357,46.878,50.191,50.686,54.922,50.686L54.922,50.686z"/>
</g>
</svg>
