<?xml version="1.0" encoding="utf-8"?>
<!-- Generator: Adobe Illustrator 17.1.0, SVG Export Plug-In . SVG Version: 6.00 Build 0)  -->
<!DOCTYPE svg PUBLIC "-//W3C//DTD SVG 1.1//EN" "http://www.w3.org/Graphics/SVG/1.1/DTD/svg11.dtd">
<svg version="1.1" id="Layer_1" xmlns="http://www.w3.org/2000/svg" xmlns:xlink="http://www.w3.org/1999/xlink" x="0px" y="0px"
	 width="31px" height="31px" viewBox="0 0 31 31" enable-background="new 0 0 31 31" xml:space="preserve">
<path fill="#999999" d="M22.3,10.3c-2.4,0-4.1-0.6-6.5-2.7c-0.1-0.1-0.2-0.1-0.3-0.1s-0.2,0-0.3,0.1c-2.4,2-4,2.6-6.5,2.7
	c-0.2,0-0.4,0.2-0.4,0.4v7.6c0,3.7,2.5,6.1,6.8,9c0.1,0.1,0.2,0.1,0.3,0.1s0.2,0,0.3-0.1c4.4-2.9,6.8-5.3,6.8-9v-7.6
	C22.7,10.5,22.5,10.3,22.3,10.3z M19.3,16.5L15,20.9c-0.1,0.1-0.3,0.2-0.4,0.2c-0.2,0-0.3-0.1-0.4-0.2L12,18.8
	c-0.1-0.1-0.2-0.3-0.2-0.4s0.1-0.3,0.2-0.4l0.6-0.6c0.1-0.1,0.3-0.2,0.4-0.2l0,0c0.2,0,0.3,0.1,0.4,0.2c0.2,0.2,0.7,0.7,0.7,0.7
	c0.1,0.1,0.3,0.2,0.5,0.2s0.3-0.1,0.5-0.2l2.9-2.9c0.2-0.2,0.6-0.2,0.9,0l0.6,0.6c0.1,0.1,0.2,0.3,0.2,0.4
	C19.5,16.3,19.4,16.4,19.3,16.5z"/>
<rect x="0.5" y="0.5" fill="none" width="30" height="30"/>
</svg>
