<?xml version="1.0" encoding="utf-8"?>
<!-- Generator: Adobe Illustrator 17.0.0, SVG Export Plug-In . SVG Version: 6.00 Build 0)  -->
<!DOCTYPE svg PUBLIC "-//W3C//DTD SVG 1.1//EN" "http://www.w3.org/Graphics/SVG/1.1/DTD/svg11.dtd">
<svg version="1.1" id="Layer_1" xmlns="http://www.w3.org/2000/svg" xmlns:xlink="http://www.w3.org/1999/xlink" x="0px" y="0px"
	 width="70px" height="70px" viewBox="0 0 70 70" enable-background="new 0 0 70 70" xml:space="preserve">
<g>
	<path fill="#010101" d="M57.31,52.058c-0.006-0.021-0.014-0.043-0.027-0.065c-3.824-6.543-7.648-13.086-11.472-19.629
		c-1.912-3.271-3.824-6.543-5.736-9.814c-0.904-1.547-1.809-3.095-2.713-4.642c-0.612-1.046-1.056-2.366-2.279-2.812
		c-0.746-0.272-1.567,0.062-2.078,0.602c-0.464,0.49-0.749,1.278-1.075,1.864c-0.516,0.927-1.032,1.853-1.548,2.78
		c-1.843,3.309-3.686,6.619-5.529,9.928c-3.671,6.591-7.342,13.183-11.013,19.774c-0.632,1.134-2,2.763-0.965,4.078
		c0.317,0.403,0.756,0.754,1.292,0.799c1.3,0.109,2.639,0.025,3.944,0.025c5.167,0,10.334,0,15.501,0c5.185,0,10.371,0,15.556,0
		c1.22,0,2.441,0,3.661,0c1.089,0,2.321,0.172,3.38-0.106C57.441,54.52,57.75,53.072,57.31,52.058z M52.999,51.576
		c-12.189,0.004-24.377,0.108-36.566,0.112c5.935-10.633,12.182-21.092,18.13-31.717C40.717,30.502,46.847,41.045,52.999,51.576z"/>
	<path fill="#010101" d="M31.692,31.235h-0.001l1.469,11.176c0,0.88,0.719,1.593,1.606,1.593c0.887,0,1.606-0.713,1.606-1.593
		l1.469-11.176H37.84c0.014-0.119,0.023-0.239,0.023-0.362c0-1.697-1.387-3.073-3.097-3.073c-1.711,0-3.097,1.376-3.097,3.073
		C31.669,30.996,31.678,31.116,31.692,31.235z"/>
	<ellipse fill="#010101" cx="34.766" cy="47.646" rx="2.294" ry="2.276"/>
</g>
</svg>
