<?xml version="1.0" encoding="utf-8"?>
<!-- Generator: Adobe Illustrator 17.1.0, SVG Export Plug-In . SVG Version: 6.00 Build 0)  -->
<!DOCTYPE svg PUBLIC "-//W3C//DTD SVG 1.1//EN" "http://www.w3.org/Graphics/SVG/1.1/DTD/svg11.dtd">
<svg version="1.1" id="Layer_1" xmlns="http://www.w3.org/2000/svg" xmlns:xlink="http://www.w3.org/1999/xlink" x="0px" y="0px"
	 viewBox="0 0 26 26" enable-background="new 0 0 26 26" xml:space="preserve">
<g>
	<g>
		<path fill="#FFFFFF" d="M20.4,9c-0.2-0.5-0.6-0.9-1.2-1c-0.1,0-0.2,0-0.2,0c0,0,0,0,0,0c-4,0-8,0-12,0C6.9,8,6.9,8,6.8,8
			c-0.3,0-0.5,0.2-0.8,0.3C5.8,8.6,5.6,8.9,5.5,9.3c0,0,0,0.1,0,0.1c0,0.2,0,0.5,0,0.7c0,1.4,0,2.8,0,4.2c0,0.8,0,1.5,0,2.3
			c0,0.1,0,0.1,0,0.2c0,0.3,0.2,0.5,0.3,0.7c0.3,0.3,0.6,0.5,1,0.5c0.1,0,0.1,0,0.2,0c1.1,0,2.2,0,3.2,0c0.6,0,1.2,0,1.8,0
			c0.6,0,1.2,0,1.8,0c1.7,0,3.4,0,5,0c0.4,0,0.7-0.1,1-0.3c0.3-0.2,0.5-0.5,0.6-0.9c0-0.1,0-0.2,0-0.3c0-1.3,0-2.6,0-3.9
			c0-1.1,0-2.2,0-3.3C20.5,9.2,20.5,9.1,20.4,9z M19,8.8C19,8.8,19,8.8,19,8.8C19,8.8,18.9,8.8,19,8.8c-1.8,1.7-3.7,3.4-5.5,5.1
			c-0.1,0.1-0.2,0.2-0.3,0.2c-0.1,0.1-0.3,0.1-0.4,0c-1.7-1.6-3.5-3.3-5.2-4.9C7.4,9.1,7.3,9,7.1,8.8c0,0,0,0,0,0
			C11,8.8,15,8.8,19,8.8z M6.8,17.2C6.8,17.2,6.8,17.2,6.8,17.2c-0.2-0.1-0.3-0.2-0.4-0.4c0-0.1,0-0.2,0-0.2c0-2.4,0-4.9,0-7.3
			c0,0,0,0,0,0c1.5,1.4,3,2.8,4.5,4.2c0,0,0,0,0,0C9.5,14.7,8.2,15.9,6.8,17.2z M7.9,17.2c1.2-1.1,2.4-2.2,3.6-3.3c0,0,0,0,0,0
			c0.5,0.4,0.9,0.9,1.4,1.3c0.1,0.1,0.3,0.1,0.4,0c0.4-0.4,0.9-0.8,1.3-1.2c0,0,0,0,0,0c1.2,1.1,2.4,2.2,3.5,3.3
			C14.7,17.2,11.3,17.2,7.9,17.2z M19.6,16.9c-0.1,0.2-0.2,0.3-0.4,0.4c0,0,0,0,0,0c-0.7-0.6-1.3-1.2-2-1.8c-0.7-0.6-1.4-1.3-2-1.9
			c0,0,0,0,0,0c1.5-1.4,3-2.8,4.5-4.2c0,0,0,0,0,0c0,2.4,0,4.8,0,7.2C19.7,16.6,19.7,16.7,19.6,16.9z"/>
	</g>
</g>
</svg>
