<?xml version="1.0" encoding="utf-8"?>
<!-- Generator: Adobe Illustrator 17.1.0, SVG Export Plug-In . SVG Version: 6.00 Build 0)  -->
<!DOCTYPE svg PUBLIC "-//W3C//DTD SVG 1.1//EN" "http://www.w3.org/Graphics/SVG/1.1/DTD/svg11.dtd">
<svg version="1.1" id="Layer_1" xmlns="http://www.w3.org/2000/svg" xmlns:xlink="http://www.w3.org/1999/xlink" x="0px" y="0px"
	 viewBox="0 0 40 40" enable-background="new 0 0 40 40" xml:space="preserve">
<g>
	<g>
		<path fill="#FFFFFF" stroke="#FFFFFF" stroke-miterlimit="10" d="M22.9,20.2l-4.8,4.2c-0.1,0.1-0.2,0.1-0.2,0.1
			c-0.1,0-0.2,0-0.2-0.1L17.1,24C17,23.9,17,23.8,17,23.8c0-0.1,0-0.2,0.1-0.2l4.1-3.5l-4.1-3.5C17,16.4,17,16.3,17,16.2
			c0-0.1,0-0.2,0.1-0.2l0.5-0.5c0.1-0.1,0.2-0.1,0.2-0.1c0.1,0,0.2,0,0.2,0.1l4.8,4.2C23,19.8,23,19.9,23,20S23,20.2,22.9,20.2z"/>
	</g>
	<circle fill="none" stroke="#FFFFFF" stroke-miterlimit="10" cx="20" cy="20" r="13.5"/>
</g>
</svg>
