<?xml version="1.0" encoding="utf-8"?>
<!-- Generator: Adobe Illustrator 17.0.0, SVG Export Plug-In . SVG Version: 6.00 Build 0)  -->
<!DOCTYPE svg PUBLIC "-//W3C//DTD SVG 1.1//EN" "http://www.w3.org/Graphics/SVG/1.1/DTD/svg11.dtd">
<svg version="1.1" id="Layer_1" xmlns="http://www.w3.org/2000/svg" xmlns:xlink="http://www.w3.org/1999/xlink" x="0px" y="0px"
	 width="1213px" height="1149px" viewBox="0 0 1213 1149" enable-background="new 0 0 1213 1149" xml:space="preserve">
<g>
	<polyline fill="none" stroke="#06956E" stroke-width="1.5" stroke-linecap="round" stroke-linejoin="round" points="
		615.789,243.817 620.237,266.923 608.203,257.043 596.169,266.923 600.58,244.019 	"/>
	
		<ellipse fill="none" stroke="#06956E" stroke-width="1.5" stroke-linecap="round" stroke-miterlimit="10" cx="608.203" cy="230.284" rx="16" ry="15.36"/>
	
		<ellipse fill="none" stroke="#06956E" stroke-width="1.5" stroke-linecap="round" stroke-miterlimit="10" cx="608.203" cy="230.284" rx="10.539" ry="10.118"/>
</g>
<g>
	<g>
		<path fill="#9E9E9E" d="M72.998,668.84c-4.961,0-8.998,4.038-8.998,9.002c0,2.083,0.73,4.115,2.054,5.722
			c0.202,0.247,0.416,0.479,0.629,0.683c1.692,1.672,3.935,2.593,6.315,2.593c2.375,0,4.617-0.917,6.312-2.582
			c0.228-0.223,0.437-0.451,0.639-0.697c1.323-1.605,2.051-3.635,2.051-5.718C82,672.879,77.962,668.84,72.998,668.84z
			 M67.658,683.898c0.37-0.183,0.749-0.349,1.142-0.485c0.574-0.196,1.167-0.346,1.755-0.488c1.222-0.292,1.741-1.641,1.007-2.662
			c-0.173-0.242-0.401-0.451-0.583-0.688c-0.647-0.852-1.003-1.814-1.126-2.872c-0.105-0.875-0.041-1.737,0.328-2.553
			c0.547-1.226,1.727-1.937,3.026-1.846c1.317,0.096,2.361,0.934,2.767,2.247c0.406,1.308,0.241,2.584-0.264,3.833
			c-0.251,0.615-0.611,1.158-1.08,1.632c-0.848,0.866-0.665,2.238,0.383,2.749c0.305,0.151,0.661,0.196,0.998,0.283
			c0.816,0.207,1.6,0.475,2.337,0.848c-1.481,1.309-3.361,2.033-5.35,2.033C71.012,685.929,69.138,685.207,67.658,683.898z
			 M79.246,682.982c-0.079,0.096-0.168,0.182-0.251,0.273c-1.047-0.569-2.168-0.956-3.345-1.178c-0.529-0.1-0.944-0.775-0.465-1.354
			c0.137-0.169,0.301-0.319,0.438-0.488c0.984-1.231,1.408-2.658,1.454-4.148c-0.009-0.752-0.109-1.417-0.356-2.06
			c-0.729-1.91-2.612-2.94-4.59-2.502c-1.386,0.305-2.311,1.167-2.835,2.466c-0.41,1.016-0.451,2.074-0.273,3.145
			c0.228,1.349,0.775,2.548,1.746,3.537c0.041,0.041,0.078,0.091,0.109,0.141c0.328,0.51,0.073,1.121-0.52,1.249
			c-0.246,0.055-0.497,0.109-0.743,0.173c-0.914,0.245-1.791,0.57-2.611,1.016c-0.082-0.09-0.167-0.17-0.246-0.266
			c-1.191-1.445-1.847-3.271-1.847-5.143c0-4.461,3.627-8.091,8.086-8.091c4.461,0,8.091,3.629,8.091,8.091
			C81.088,679.714,80.434,681.54,79.246,682.982z"/>
	</g>
</g>
<g>
	<path fill="#9E9E9E" d="M171.5,687.84c-0.389,0-0.766-0.16-1.028-0.434l-3.917-3.905c-1.337,0.925-2.935,1.416-4.556,1.416
		c-4.441,0-8.038-3.597-8.038-8.038s3.597-8.038,8.038-8.038c4.442,0,8.039,3.597,8.039,8.038c0,1.621-0.492,3.22-1.417,4.556
		l3.917,3.916c0.263,0.263,0.423,0.64,0.423,1.028C172.962,687.178,172.299,687.84,171.5,687.84z M162,671.763
		c-2.82,0-5.115,2.295-5.115,5.115c0,2.82,2.295,5.115,5.115,5.115c2.821,0,5.116-2.295,5.116-5.115
		C167.116,674.058,164.821,671.763,162,671.763z"/>
</g>
<g>
	
		<line fill="none" stroke="#06956E" stroke-width="1.5" stroke-linecap="round" stroke-miterlimit="10" x1="508.384" y1="219.923" x2="508.384" y2="261.923"/>
	
		<line fill="none" stroke="#06956E" stroke-width="1.5" stroke-linecap="round" stroke-miterlimit="10" x1="493.462" y1="225.505" x2="523.305" y2="225.505"/>
	
		<line fill="none" stroke="#06956E" stroke-width="1.5" stroke-linecap="round" stroke-miterlimit="10" x1="501.719" y1="261.923" x2="515.048" y2="261.923"/>
	<polygon fill="none" stroke="#06956E" stroke-width="1.5" stroke-linecap="round" stroke-linejoin="round" points="
		493.462,225.505 497.744,234.304 502.027,243.103 493.462,243.103 484.884,243.103 489.166,234.304 	"/>
	<path fill="none" stroke="#06956E" stroke-width="1.5" stroke-linecap="round" stroke-linejoin="round" d="M493.462,251.609
		c4.73,0,8.565-3.808,8.565-8.506l0,0h-17.143c0,4.698,3.835,8.506,8.565,8.506C493.453,251.609,493.457,251.609,493.462,251.609z"
		/>
	<polygon fill="none" stroke="#06956E" stroke-width="1.5" stroke-linecap="round" stroke-linejoin="round" points="
		523.305,225.505 527.588,234.304 531.884,243.103 523.305,243.103 514.74,243.103 519.023,234.304 	"/>
	<path fill="none" stroke="#06956E" stroke-width="1.5" stroke-linecap="round" stroke-linejoin="round" d="M523.305,251.609
		c4.73,0,8.565-3.808,8.565-8.506l0,0h-17.13C514.74,247.801,518.575,251.609,523.305,251.609L523.305,251.609z"/>
</g>
<g>
	<g>
		<path fill="#06956E" d="M990.037,220.51c0.47,0,0.912,0,1.354,0c2.724,0,5.447,0.007,8.17-0.011
			c0.226-0.002,0.52-0.117,0.664-0.28c0.806-0.918,1.744-1.63,2.92-2.023c0.132-0.044,0.285-0.179,0.329-0.306
			c0.603-1.723,1.879-2.717,3.596-3.192c1.756-0.485,3.524-0.48,5.26,0.113c1.546,0.529,2.671,1.512,3.264,3.049
			c0.054,0.14,0.214,0.293,0.358,0.339c1.18,0.383,2.148,1.066,2.925,2.007c0.205,0.248,0.42,0.31,0.719,0.309
			c2.955-0.007,5.909-0.004,8.864-0.004c0.179,0,0.357,0,0.576,0c0,14.295,0,28.551,0,42.837c-12.999,0-25.981,0-39,0
			C990.037,249.075,990.037,234.819,990.037,220.51z M992.132,261.24c11.626,0,23.217,0,34.799,0c0-12.891,0-25.745,0-38.587
			c-2.207,0-4.372,0-6.488,0c0.255,1.129,0.504,2.231,0.759,3.36c-7.818,0-15.526,0-23.344,0c0.285-1.163,0.554-2.261,0.827-3.373
			c-2.156,0-4.342,0-6.553,0C992.132,235.511,992.132,248.355,992.132,261.24z M1018.511,223.931
			c-0.883-2.217-2.156-3.848-4.713-3.928c-0.128-1.87-0.722-2.732-2.234-3.178c-1.327-0.391-2.671-0.378-3.991,0.056
			c-0.94,0.309-1.758,0.885-1.926,1.859c-0.17,0.988-0.665,1.298-1.578,1.474c-1.54,0.295-3.249,2.236-3.412,3.718
			C1006.575,223.931,1012.49,223.931,1018.511,223.931z"/>
	</g>
	<path fill="#06956E" d="M1006.655,249.955c0.605-0.554,1.205-1.06,1.753-1.614c3.96-4.005,7.91-8.021,11.864-12.032
		c0.087-0.088,0.172-0.181,0.271-0.255c0.323-0.24,0.74-0.214,1.028,0.056c0.295,0.277,0.338,0.713,0.087,1.04
		c-0.105,0.137-0.234,0.256-0.356,0.38c-4.606,4.675-9.213,9.35-13.819,14.024c-0.553,0.561-0.934,0.559-1.486-0.001
		c-2.116-2.147-4.23-4.297-6.352-6.438c-0.28-0.283-0.419-0.587-0.277-0.965c0.213-0.568,0.906-0.661,1.38-0.184
		c1.014,1.021,2.021,2.049,3.032,3.074C1004.755,248.029,1005.73,249.018,1006.655,249.955z"/>
</g>
<g id="Page-1">
	<g id="u17">
		<path id="Stroke-361" fill="none" stroke="#06956E" stroke-width="1.5" d="M909.122,244.172L909.122,244.172
			c-5.807,0-10.514-4.706-10.514-10.511v-13.303c0.006-0.451,0.376-0.813,0.828-0.807c0.012,0,0.024,0.001,0.035,0.001h19.302
			c0.451,0,0.817,0.366,0.817,0.817l0,0v13.303c0,5.805-4.707,10.511-10.514,10.511l0,0l0,0L909.122,244.172z"/>
		<path id="Stroke-363" fill="none" stroke="#06956E" stroke-width="1.5" d="M918.182,261.551h-18.166
			c0-2.401,1.947-4.347,4.349-4.347l0,0h9.424c2.401-0.025,4.369,1.901,4.394,4.302C918.182,261.52,918.182,261.536,918.182,261.551
			L918.182,261.551z"/>
		<path id="Stroke-365" fill="none" stroke="#06956E" stroke-width="1.5" d="M906.59,243.855v3.405
			c-1.699,1.398-1.943,3.909-0.544,5.608c0.163,0.198,0.346,0.381,0.544,0.544v3.814"/>
		<path id="Stroke-365-2" fill="none" stroke="#06956E" stroke-width="1.5" d="M911.654,257.215v-3.803
			c1.699-1.398,1.943-3.909,0.544-5.608c-0.163-0.198-0.346-0.381-0.544-0.544l0,0v-3.405"/>
		<path id="Stroke-367" fill="none" stroke="#06956E" stroke-width="1.5" d="M898.608,222.39c-4.859-3.122-7.948,0-7.948,0.068
			c-2.314,2.781-1.981,6.9,0.749,9.274l9.39,8.468"/>
		<path id="Stroke-369" fill="none" stroke="#06956E" stroke-width="1.5" d="M919.636,222.435c4.859-3.122,7.948,0,7.948,0.068
			c2.314,2.781,1.981,6.9-0.749,9.274l-9.39,8.468"/>
		<path id="Stroke-371" fill="none" stroke="#06956E" stroke-width="1.5" stroke-linejoin="round" d="M909.201,222.844l2.6,5.267
			l5.836,0.851l-4.224,4.098l0.988,5.789l-5.2-2.736l-5.189,2.736L905,233.06l-4.212-4.098l5.813-0.84l2.6-5.267l0,0V222.844z"/>
	</g>
</g>
<g id="Page-1_1_">
	<g id="c78">
		<path id="Stroke-655" fill="none" stroke="#06956E" stroke-width="1.5" stroke-linecap="round" d="M789.897,249.808
			c0,2.858-2.28,5.176-5.093,5.176c-2.813,0-5.093-2.317-5.093-5.176s2.28-5.176,5.093-5.176l0,0
			C787.617,244.632,789.897,246.949,789.897,249.808L789.897,249.808z"/>
		<path id="Stroke-657" fill="none" stroke="#06956E" stroke-width="1.5" stroke-linecap="round" d="M802.038,237.402
			c0,2.858-2.28,5.176-5.093,5.176c-2.813,0-5.093-2.317-5.093-5.176s2.28-5.176,5.093-5.176l0,0
			C799.758,232.226,802.038,234.544,802.038,237.402L802.038,237.402z"/>
		<path id="Stroke-659" fill="none" stroke="#06956E" stroke-width="1.5" stroke-linecap="round" d="M838.712,230.159
			c0,2.858-2.28,5.176-5.093,5.176c-2.813,0-5.093-2.317-5.093-5.176s2.28-5.176,5.093-5.176
			C836.431,224.983,838.712,227.3,838.712,230.159L838.712,230.159L838.712,230.159z"/>
		<path id="Stroke-661" fill="none" stroke="#06956E" stroke-width="1.5" stroke-linecap="round" d="M820.375,246.713
			c0,2.858-2.28,5.176-5.093,5.176c-2.813,0-5.093-2.317-5.093-5.176c0-2.858,2.28-5.176,5.093-5.176
			C818.095,241.537,820.375,243.854,820.375,246.713L820.375,246.713L820.375,246.713L820.375,246.713z"/>
		<path id="Stroke-663" fill="none" stroke="#06956E" stroke-width="1.5" stroke-linecap="round" d="M792.889,240.497l-5.106,5.189"
			/>
		<path id="Stroke-665" fill="none" stroke="#06956E" stroke-width="1.5" stroke-linecap="round" d="M810.202,244.713l-9.188-4.162"
			/>
		<path id="Stroke-667" fill="none" stroke="#06956E" stroke-width="1.5" stroke-linecap="round" d="M819.351,243.618l10.186-10.351
			"/>
	</g>
</g>
<g>
	
		<circle fill="none" stroke="#06956E" stroke-width="1.5" stroke-linecap="round" stroke-linejoin="round" cx="708.709" cy="240.401" r="22.5"/>
	<path fill="none" stroke="#06956E" stroke-width="1.5" stroke-linecap="round" stroke-linejoin="round" d="M714.537,248.737
		c0,3.219-2.61,5.829-5.829,5.829c-3.219,0-5.829-2.61-5.829-5.829"/>
	<path fill="none" stroke="#06956E" stroke-width="1.5" stroke-linecap="round" stroke-linejoin="round" d="M699.602,231.508
		c0.485-1.106,1.578-1.821,2.786-1.821c1.644,0.086,2.957,1.399,3.043,3.043c0.044,0.385,0.011,0.774-0.096,1.146
		c-0.257,1.006-0.819,1.907-1.607,2.582l-4.125,3.557l-4.05-3.557c-0.789-0.675-1.35-1.577-1.607-2.582
		c-0.108-0.372-0.14-0.762-0.096-1.146c0.086-1.644,1.399-2.957,3.043-3.043C698.079,229.692,699.148,230.41,699.602,231.508z"/>
	<path fill="none" stroke="#06956E" stroke-width="1.5" stroke-linecap="round" stroke-linejoin="round" d="M717.698,231.508
		c0.485-1.106,1.578-1.821,2.786-1.821c1.644,0.086,2.957,1.399,3.043,3.043c0.044,0.385,0.011,0.774-0.096,1.146
		c-0.257,1.006-0.819,1.907-1.607,2.582l-4.125,3.557l-4.05-3.557c-0.789-0.675-1.35-1.577-1.607-2.582
		c-0.108-0.372-0.141-0.762-0.096-1.146c0.086-1.644,1.399-2.957,3.043-3.043C716.175,229.692,717.244,230.41,717.698,231.508z"/>
</g>
<g>
	<polyline fill="none" stroke="#06956E" stroke-width="1.5" stroke-linecap="round" stroke-linejoin="round" points="
		418.006,827.33 421.481,845.771 412.08,837.885 402.678,845.771 406.124,827.491 	"/>
	
		<ellipse fill="none" stroke="#06956E" stroke-width="1.5" stroke-linecap="round" stroke-miterlimit="10" cx="412.08" cy="816.529" rx="12.5" ry="12.259"/>
	
		<ellipse fill="none" stroke="#06956E" stroke-width="1.5" stroke-linecap="round" stroke-miterlimit="10" cx="412.08" cy="816.529" rx="8.234" ry="8.075"/>
</g>
<g>
	<g>
		<path fill="#06956E" d="M217.08,807.799c0.362,0,0.701,0,1.041,0c2.095,0,4.19,0.006,6.285-0.009
			c0.174-0.001,0.4-0.09,0.511-0.217c0.62-0.712,1.341-1.264,2.246-1.569c0.102-0.034,0.219-0.139,0.253-0.237
			c0.463-1.336,1.446-2.107,2.766-2.475c1.351-0.376,2.711-0.373,4.046,0.088c1.189,0.41,2.054,1.172,2.511,2.365
			c0.042,0.109,0.164,0.227,0.275,0.263c0.908,0.297,1.652,0.827,2.25,1.557c0.157,0.192,0.323,0.24,0.553,0.24
			c2.273-0.006,4.546-0.003,6.818-0.003c0.137,0,0.275,0,0.443,0c0,11.086,0,22.142,0,33.22c-9.999,0-19.985,0-30,0
			C217.08,829.951,217.08,818.896,217.08,807.799z M218.691,839.385c8.943,0,17.859,0,26.768,0c0-9.997,0-19.965,0-29.925
			c-1.698,0-3.363,0-4.99,0c0.196,0.876,0.388,1.73,0.584,2.606c-6.014,0-11.943,0-17.957,0c0.219-0.902,0.426-1.753,0.636-2.616
			c-1.659,0-3.34,0-5.04,0C218.691,819.432,218.691,829.393,218.691,839.385z M238.983,810.452c-0.68-1.719-1.659-2.984-3.626-3.046
			c-0.098-1.45-0.555-2.119-1.719-2.464c-1.021-0.303-2.055-0.293-3.07,0.043c-0.723,0.24-1.353,0.687-1.481,1.441
			c-0.131,0.766-0.511,1.007-1.214,1.143c-1.184,0.229-2.499,1.734-2.624,2.883C229.801,810.452,234.352,810.452,238.983,810.452z"
			/>
	</g>
	<path fill="#06956E" d="M229.863,830.634c0.465-0.43,0.927-0.822,1.349-1.252c3.046-3.106,6.085-6.22,9.126-9.331
		c0.067-0.068,0.132-0.14,0.208-0.197c0.249-0.186,0.569-0.166,0.791,0.044c0.227,0.215,0.26,0.553,0.067,0.807
		c-0.081,0.106-0.18,0.198-0.274,0.294c-3.543,3.626-7.087,7.251-10.63,10.876c-0.425,0.435-0.719,0.433-1.143-0.001
		c-1.628-1.665-3.254-3.332-4.886-4.993c-0.216-0.219-0.322-0.455-0.213-0.748c0.164-0.441,0.697-0.513,1.062-0.143
		c0.78,0.792,1.555,1.589,2.332,2.384C228.401,829.14,229.152,829.907,229.863,830.634z"/>
</g>
<g id="Page-1_3_">
	<g id="u17_1_">
		<path id="Stroke-361_1_" fill="none" stroke="#06956E" stroke-width="1.5" d="M322.08,829.484L322.08,829.484
			c-4.427,0-8.017-3.642-8.017-8.134v-10.294c0.004-0.349,0.287-0.629,0.631-0.625c0.009,0,0.018,0,0.027,0.001h14.717
			c0.344,0,0.623,0.283,0.623,0.632l0,0v10.294c0,4.492-3.589,8.134-8.017,8.134h0l0,0L322.08,829.484z"/>
		<path id="Stroke-363_1_" fill="none" stroke="#06956E" stroke-width="1.5" d="M328.988,842.931h-13.852
			c0-1.858,1.485-3.364,3.316-3.364l0,0h7.186c1.831-0.019,3.331,1.471,3.35,3.329C328.988,842.908,328.988,842.92,328.988,842.931
			L328.988,842.931z"/>
		<path id="Stroke-365_1_" fill="none" stroke="#06956E" stroke-width="1.5" d="M320.149,829.238v2.635
			c-1.296,1.082-1.482,3.025-0.415,4.34c0.125,0.154,0.264,0.295,0.415,0.421v2.951"/>
		<path id="Stroke-365-2_1_" fill="none" stroke="#06956E" stroke-width="1.5" d="M324.01,839.576v-2.942
			c1.296-1.082,1.482-3.025,0.415-4.34c-0.125-0.154-0.264-0.295-0.415-0.421l0,0v-2.635"/>
		<path id="Stroke-367_1_" fill="none" stroke="#06956E" stroke-width="1.5" d="M314.063,812.628c-3.705-2.415-6.06,0-6.06,0.053
			c-1.764,2.152-1.511,5.34,0.571,7.176l7.16,6.553"/>
		<path id="Stroke-369_1_" fill="none" stroke="#06956E" stroke-width="1.5" d="M330.096,812.663c3.705-2.415,6.06,0,6.06,0.053
			c1.764,2.152,1.511,5.34-0.571,7.176l-7.16,6.552"/>
		<path id="Stroke-371_1_" fill="none" stroke="#06956E" stroke-width="1.5" stroke-linejoin="round" d="M322.14,812.98l1.983,4.076
			l4.45,0.659l-3.221,3.171l0.753,4.48l-3.965-2.117l-3.956,2.117l0.753-4.48l-3.212-3.171l4.433-0.65l1.983-4.076l0,0V812.98z"/>
	</g>
</g>
<g id="Page-1_2_">
	<g id="c78_1_">
		<path id="Stroke-655_1_" fill="none" stroke="#06956E" stroke-width="1.5" stroke-linecap="round" d="M488.985,831.481
			c0,2.001-1.546,3.623-3.453,3.623s-3.453-1.622-3.453-3.623s1.546-3.623,3.453-3.623l0,0
			C487.439,827.858,488.985,829.48,488.985,831.481L488.985,831.481z"/>
		<path id="Stroke-657_1_" fill="none" stroke="#06956E" stroke-width="1.5" stroke-linecap="round" d="M497.216,822.797
			c0,2.001-1.546,3.623-3.453,3.623c-1.907,0-3.453-1.622-3.453-3.623s1.546-3.623,3.453-3.623l0,0
			C495.67,819.174,497.216,820.796,497.216,822.797L497.216,822.797z"/>
		<path id="Stroke-659_1_" fill="none" stroke="#06956E" stroke-width="1.5" stroke-linecap="round" d="M522.08,817.727
			c0,2.001-1.546,3.623-3.453,3.623s-3.453-1.622-3.453-3.623c0-2.001,1.546-3.623,3.453-3.623S522.08,815.726,522.08,817.727
			L522.08,817.727L522.08,817.727z"/>
		<path id="Stroke-661_1_" fill="none" stroke="#06956E" stroke-width="1.5" stroke-linecap="round" d="M509.648,829.315
			c0,2.001-1.546,3.623-3.453,3.623c-1.907,0-3.453-1.622-3.453-3.623s1.546-3.623,3.453-3.623S509.648,827.314,509.648,829.315
			L509.648,829.315L509.648,829.315L509.648,829.315z"/>
		<path id="Stroke-663_1_" fill="none" stroke="#06956E" stroke-width="1.5" stroke-linecap="round" d="M491.014,824.964
			l-3.462,3.632"/>
		<path id="Stroke-665_1_" fill="none" stroke="#06956E" stroke-width="1.5" stroke-linecap="round" d="M502.751,827.915
			l-6.229-2.914"/>
		<path id="Stroke-667_1_" fill="none" stroke="#06956E" stroke-width="1.5" stroke-linecap="round" d="M508.954,827.149
			l6.906-7.246"/>
	</g>
</g>
<g>
	
		<circle fill="none" stroke="#06956E" stroke-width="1.5" stroke-linecap="round" stroke-linejoin="round" cx="592.08" cy="824.964" r="18.5"/>
	<path fill="none" stroke="#06956E" stroke-width="1.5" stroke-linecap="round" stroke-linejoin="round" d="M596.872,831.817
		c0,2.647-2.146,4.792-4.792,4.792c-2.647,0-4.792-2.146-4.792-4.792"/>
	<path fill="none" stroke="#06956E" stroke-width="1.5" stroke-linecap="round" stroke-linejoin="round" d="M584.592,817.652
		c0.399-0.91,1.297-1.497,2.29-1.498c1.352,0.07,2.432,1.15,2.502,2.502c0.036,0.316,0.009,0.637-0.079,0.943
		c-0.212,0.827-0.673,1.568-1.321,2.123l-3.392,2.925l-3.33-2.925c-0.648-0.555-1.11-1.296-1.321-2.123
		c-0.089-0.306-0.116-0.626-0.079-0.943c0.07-1.352,1.15-2.432,2.502-2.502C583.34,816.158,584.219,816.749,584.592,817.652z"/>
	<path fill="none" stroke="#06956E" stroke-width="1.5" stroke-linecap="round" stroke-linejoin="round" d="M599.471,817.652
		c0.399-0.91,1.297-1.497,2.29-1.498c1.352,0.07,2.432,1.15,2.502,2.502c0.036,0.316,0.009,0.637-0.079,0.943
		c-0.212,0.827-0.673,1.568-1.321,2.123l-3.392,2.925l-3.33-2.925c-0.648-0.555-1.11-1.296-1.321-2.123
		c-0.089-0.306-0.116-0.626-0.079-0.943c0.07-1.352,1.15-2.432,2.502-2.502C598.219,816.158,599.098,816.749,599.471,817.652z"/>
</g>
<g>
	<g>
		<path fill="#06956E" d="M603.856,621.476h-20.184c-4.498,0-8.158-3.66-8.158-8.158v-20.184c0-4.498,3.66-8.158,8.158-8.158h17.517
			c0.925,0,1.674,0.75,1.674,1.674c0,0.925-0.75,1.674-1.674,1.674h-17.517c-2.652,0-4.809,2.157-4.809,4.809v20.184
			c0,2.652,2.157,4.809,4.809,4.809h20.184c2.652,0,4.809-2.157,4.809-4.809v-7.31c0-0.925,0.75-1.674,1.674-1.674
			c0.925,0,1.674,0.75,1.674,1.674v7.31C612.014,617.816,608.355,621.476,603.856,621.476z"/>
	</g>
	<g>
		<path fill="#06956E" d="M588.159,608.566l0.073,5.553c0.003,0.228,0.187,0.412,0.415,0.415l5.552,0.072
			c0.113,0.002,0.223-0.043,0.303-0.123l18.293-18.293l-6.219-6.219l-18.293,18.293
			C588.201,608.344,588.157,608.453,588.159,608.566z M606.611,592.717l0.007,0.007c0.196,0.196,0.196,0.514,0,0.71l-13.961,13.961
			c-0.196,0.196-0.514,0.196-0.71,0l-0.007-0.007c-0.196-0.196-0.196-0.514,0-0.71l13.961-13.961
			C606.097,592.521,606.415,592.521,606.611,592.717z M615.305,589.771l-2.312-2.312c-1.079-1.079-2.828-1.079-3.906-0.001
			l-1.555,1.555l6.219,6.219l1.555-1.555C616.384,592.6,616.384,590.85,615.305,589.771z"/>
	</g>
</g>
<path fill="#E2E2E2" d="M801.211,597.502c-0.678,0.301-1.406,0.505-2.17,0.596c0.78-0.469,1.379-1.211,1.662-2.095
	c-0.73,0.434-1.539,0.749-2.4,0.919c-0.689-0.736-1.671-1.196-2.758-1.196c-2.087,0-3.779,1.695-3.779,3.787
	c0,0.297,0.033,0.586,0.098,0.863c-3.141-0.158-5.925-1.665-7.789-3.957c-0.325,0.559-0.512,1.21-0.512,1.904
	c0,1.314,0.667,2.473,1.681,3.152c-0.619-0.02-1.202-0.19-1.712-0.474c0,0.016,0,0.032,0,0.048c0,1.835,1.303,3.365,3.031,3.713
	c-0.317,0.087-0.651,0.133-0.996,0.133c-0.243,0-0.48-0.024-0.711-0.068c0.481,1.504,1.876,2.599,3.53,2.63
	c-1.293,1.016-2.923,1.621-4.693,1.621c-0.305,0-0.606-0.018-0.901-0.053c1.672,1.074,3.659,1.701,5.793,1.701
	c6.951,0,10.752-5.77,10.752-10.774c0-0.164-0.004-0.328-0.011-0.49C800.064,598.928,800.705,598.261,801.211,597.502z"/>
<path fill="#E2E2E2" d="M857.202,611.265h-3.6v-12.128h3.6V611.265z M866.302,599.438c1.4,0,2.4,0.401,3.1,1.303
	c0.7,0.902,1.1,2.105,1.1,3.608v6.916h-3.6v-6.515c0-1.704-0.6-2.506-1.8-2.506c-1,0-1.6,0.501-1.9,1.403v7.617h-3.6
	c0-7.317,0-11.326,0-12.128h2.9l0.2,2.406h0.1C863.602,600.139,864.802,599.438,866.302,599.438z M853.502,596.03
	c0-1.203,0.6-1.804,1.9-1.804c1.2,0,1.9,0.601,1.9,1.804s-0.6,1.804-1.9,1.804S853.502,597.233,853.502,596.03z"/>
<g>
	<g>
		<path fill="#E2E2E2" d="M927.985,602.232c-0.003,0.795,0,1.587,0.003,2.383c1.334,0.037,2.669,0.02,4.003,0.047
			c-0.337,1.156-1.104,2.232-2.269,2.65c-2.249,0.992-5.118-0.304-5.825-2.667c-0.854-2.262,0.544-4.992,2.852-5.651
			c1.431-0.505,2.906,0.063,4.13,0.809c0.621-0.581,1.201-1.203,1.772-1.831c-1.391-1.166-3.179-1.881-5.018-1.724
			c-3.607,0.043-6.762,3.378-6.626,6.987c-0.06,2.921,1.948,5.708,4.711,6.617c2.602,0.875,5.802,0.221,7.533-2.012
			c1.264-1.564,1.551-3.649,1.415-5.597C932.439,602.222,930.211,602.229,927.985,602.232z M941.003,602.226
			c-0.003-0.665-0.01-1.333-0.013-1.998h-1.985c-0.007,0.665-0.013,1.333-0.017,1.998c-0.667,0.007-1.331,0.01-1.995,0.013v1.992
			c0.664,0.003,1.331,0.007,1.995,0.013c0.007,0.665,0.007,1.33,0.013,1.998c0.661,0,1.324-0.003,1.988,0
			c0.003-0.668,0.007-1.333,0.013-2.002c0.664-0.003,1.331-0.007,1.995-0.01v-1.992
			C942.334,602.236,941.667,602.232,941.003,602.226z"/>
	</g>
</g>
<g>
	<g>
		<path fill="#E2E2E2" d="M1012.79,598.197c0,0-0.215-1.568-0.875-2.258c-0.837-0.906-1.776-0.911-2.206-0.964
			c-3.081-0.23-7.703-0.23-7.703-0.23h-0.01c0,0-4.622,0-7.703,0.23c-0.43,0.053-1.368,0.057-2.206,0.964
			c-0.66,0.69-0.875,2.258-0.875,2.258s-0.22,1.841-0.22,3.682v1.726c0,1.841,0.22,3.682,0.22,3.682s0.215,1.567,0.875,2.258
			c0.838,0.906,1.938,0.878,2.428,0.972c1.761,0.174,7.486,0.228,7.486,0.228s4.626-0.007,7.707-0.237
			c0.43-0.053,1.369-0.058,2.206-0.964c0.66-0.691,0.875-2.258,0.875-2.258s0.22-1.841,0.22-3.682v-1.726
			C1013.01,600.038,1012.79,598.197,1012.79,598.197z M999.703,605.899v-6.407l5.85,3.139L999.703,605.899z"/>
	</g>
</g>
<g>
	<path fill="#9E9E9E" d="M709.754,695.34c-7.168,0-13-5.832-13-13s5.832-13,13-13s13,5.832,13,13S716.922,695.34,709.754,695.34z
		 M709.754,669.601c-7.024,0-12.739,5.715-12.739,12.739c0,7.024,5.715,12.739,12.739,12.739c7.024,0,12.739-5.715,12.739-12.739
		C722.493,675.316,716.778,669.601,709.754,669.601z"/>
</g>
<path fill="#9E9E9E" d="M706.754,680.037h1.301v-1.35c0-0.635,0-1.509,0.434-2.065c0.361-0.635,0.94-1.032,1.952-1.032
	c1.59,0,2.313,0.238,2.313,0.238l-0.289,2.065c0,0-0.506-0.159-1.012-0.159c-0.506,0-0.94,0.159-0.94,0.715v1.588h2.024
	l-0.145,1.985h-1.952v7.068h-2.385v-6.988h-1.301V680.037z"/>
<path fill="#9E9E9E" d="M756.258,677.761c-0.478,0.241-0.992,0.404-1.532,0.477c0.551-0.375,0.974-0.969,1.173-1.676
	c-0.515,0.347-1.086,0.599-1.694,0.735c-0.487-0.589-1.18-0.957-1.947-0.957c-1.473,0-2.667,1.356-2.667,3.029
	c0,0.237,0.023,0.469,0.069,0.69c-2.217-0.126-4.182-1.332-5.497-3.165c-0.23,0.447-0.361,0.968-0.361,1.523
	c0,1.051,0.471,1.978,1.186,2.522c-0.437-0.016-0.848-0.152-1.208-0.379c0,0.013,0,0.025,0,0.038c0,1.468,0.919,2.692,2.139,2.97
	c-0.224,0.069-0.459,0.106-0.703,0.106c-0.172,0-0.339-0.019-0.502-0.054c0.339,1.203,1.324,2.079,2.491,2.104
	c-0.913,0.812-2.063,1.297-3.312,1.297c-0.215,0-0.428-0.014-0.636-0.042c1.18,0.86,2.582,1.361,4.088,1.361
	c4.906,0,7.588-4.616,7.588-8.619c0-0.131-0.003-0.262-0.008-0.392C755.448,678.902,755.901,678.368,756.258,677.761z"/>
<g>
	<path fill="#1582C5" d="M216.325,114.96l-4.003,3.269c-0.052,0.042-0.129,0.07-0.198,0.07c-0.069,0-0.146-0.028-0.198-0.07
		l-0.43-0.351c-0.052-0.042-0.086-0.098-0.086-0.161c0-0.056,0.034-0.119,0.086-0.161l3.376-2.757l-3.376-2.757
		c-0.052-0.042-0.086-0.105-0.086-0.161c0-0.056,0.034-0.119,0.086-0.161l0.43-0.351c0.052-0.042,0.129-0.07,0.198-0.07
		c0.069,0,0.146,0.028,0.198,0.07l4.003,3.269c0.052,0.042,0.086,0.105,0.086,0.161S216.376,114.918,216.325,114.96z"/>
</g>
<g>
	<path fill="#1582C5" d="M230.411,114.799c0-0.088,0.048-0.187,0.12-0.254l5.605-5.136c0.072-0.066,0.18-0.11,0.277-0.11
		s0.204,0.044,0.277,0.11l0.601,0.551c0.072,0.066,0.12,0.165,0.12,0.254c0,0.088-0.048,0.187-0.12,0.254l-4.727,4.332l4.727,4.332
		c0.072,0.066,0.12,0.165,0.12,0.254c0,0.099-0.048,0.187-0.12,0.254l-0.601,0.551c-0.072,0.066-0.18,0.11-0.277,0.11
		s-0.204-0.044-0.277-0.11l-5.605-5.136C230.459,114.986,230.411,114.887,230.411,114.799z"/>
</g>
<g>
	<path fill="#767677" d="M311.411,114.799c0-0.072,0.034-0.153,0.086-0.207l4.003-4.202c0.052-0.054,0.129-0.09,0.198-0.09
		s0.146,0.036,0.198,0.09l0.43,0.451c0.052,0.054,0.086,0.135,0.086,0.207s-0.034,0.153-0.086,0.207l-3.376,3.544l3.376,3.544
		c0.052,0.054,0.086,0.135,0.086,0.207c0,0.081-0.034,0.153-0.086,0.207l-0.43,0.451c-0.052,0.054-0.129,0.09-0.198,0.09
		s-0.146-0.036-0.198-0.09l-4.003-4.202C311.445,114.952,311.411,114.871,311.411,114.799z"/>
</g>
<text transform="matrix(1 0 0 1 34.458 58.8527)" font-family="'OpenSans-Light'" font-size="35.3102">DESKTOP</text>
<g>
	<text transform="matrix(1 0 0 1 36.9084 513.3405)" font-family="'OpenSans-Light'" font-size="35.3102">MOBILE</text>
</g>
<g>
	<g>
		<line fill="none" stroke="#000000" stroke-miterlimit="10" x1="9" y1="367" x2="10.5" y2="367"/>
		
			<line fill="none" stroke="#000000" stroke-miterlimit="10" stroke-dasharray="2.9926,2.9926" x1="13.493" y1="367" x2="1197.049" y2="367"/>
		<line fill="none" stroke="#000000" stroke-miterlimit="10" x1="1198.546" y1="367" x2="1200.046" y2="367"/>
	</g>
</g>
<g>
	<path fill="#02956E" d="M153.312,612.356c-0.351,0.818-1.285,1.352-2.036,1.769c-0.985,0.534-1.986,0.851-3.104,0.851
		c-1.553,0-2.954-0.634-4.373-1.152c-1.018-0.367-2.003-0.817-2.921-1.385c-2.837-1.752-6.259-5.174-8.011-8.011
		c-0.568-0.918-1.018-1.903-1.386-2.921c-0.517-1.419-1.151-2.82-1.151-4.372c0-1.119,0.317-2.12,0.851-3.105
		c0.417-0.751,0.951-1.686,1.769-2.037c0.551-0.25,1.719-0.517,2.32-0.517c0.117,0,0.234,0,0.351,0.05
		c0.351,0.117,0.718,0.934,0.885,1.268c0.534,0.951,1.052,1.919,1.602,2.854c0.267,0.434,0.768,0.968,0.768,1.486
		c0,1.018-3.021,2.503-3.021,3.404c0,0.451,0.417,1.035,0.651,1.436c1.686,3.038,3.789,5.141,6.826,6.826
		c0.401,0.234,0.985,0.651,1.435,0.651c0.901,0,2.387-3.021,3.405-3.021c0.517,0,1.051,0.5,1.485,0.768
		c0.934,0.551,1.903,1.068,2.854,1.602c0.333,0.167,1.151,0.534,1.268,0.885c0.05,0.117,0.05,0.234,0.05,0.351
		C153.83,610.636,153.563,611.804,153.312,612.356z"/>
</g>
<g>
	<path fill="#02956E" d="M503.039,617.212c-0.537,1.253-1.968,2.07-3.119,2.71c-1.509,0.817-3.042,1.304-4.755,1.304
		c-2.378,0-4.526-0.971-6.699-1.765c-1.56-0.562-3.068-1.252-4.474-2.122c-4.347-2.684-9.588-7.926-12.273-12.273
		c-0.87-1.406-1.56-2.915-2.123-4.474c-0.792-2.173-1.764-4.321-1.764-6.698c0-1.714,0.486-3.247,1.304-4.756
		c0.639-1.151,1.457-2.583,2.71-3.12c0.844-0.383,2.634-0.792,3.554-0.792c0.179,0,0.358,0,0.537,0.077
		c0.537,0.179,1.099,1.431,1.355,1.943c0.818,1.457,1.611,2.94,2.455,4.372c0.409,0.665,1.176,1.483,1.176,2.276
		c0,1.559-4.628,3.835-4.628,5.215c0,0.691,0.639,1.586,0.997,2.199c2.582,4.653,5.804,7.875,10.457,10.457
		c0.614,0.358,1.509,0.997,2.199,0.997c1.381,0,3.657-4.628,5.216-4.628c0.792,0,1.61,0.767,2.276,1.176
		c1.431,0.844,2.915,1.636,4.372,2.455c0.511,0.256,1.764,0.818,1.943,1.355c0.077,0.179,0.077,0.358,0.077,0.537
		C503.832,614.578,503.423,616.367,503.039,617.212z"/>
</g>
<g>
	<path fill="#E2E2E2" d="M94.83,595.876c0,0.574-0.481,1.05-1.063,1.05H70.392c-0.581,0-1.063-0.476-1.063-1.05v-2.1
		c0-0.574,0.481-1.05,1.063-1.05h23.375c0.581,0,1.063,0.476,1.063,1.05V595.876z M94.83,604.276c0,0.574-0.481,1.05-1.063,1.05
		H70.392c-0.581,0-1.063-0.476-1.063-1.05v-2.1c0-0.574,0.481-1.05,1.063-1.05h23.375c0.581,0,1.063,0.476,1.063,1.05V604.276z
		 M94.83,612.676c0,0.574-0.481,1.05-1.063,1.05H70.392c-0.581,0-1.063-0.476-1.063-1.05v-2.1c0-0.574,0.481-1.05,1.063-1.05h23.375
		c0.581,0,1.063,0.476,1.063,1.05V612.676z"/>
</g>
<g>
	<path fill="#1582C5" d="M359.378,585.288c28.918,0,22.2,19.204,22.229,22.17l4.888,4.947h-1.574l-4.253-4.312
		c-2.359,0.256-7.535,2.087-12.983-2.241C362.222,601.525,362.526,596.349,359.378,585.288z M364.205,588.073
		c-3.01-1.424-0.318,0.56-0.318,0.56c2.74,1.89,3.996,4.448,5.464,7.247c1.905,3.647,4.781,8.46,8.73,10.154
		c3.935,1.696,2.073,0.757,0.365-0.513c-1.71-1.288-4.132-5.266-5.509-7.886C371.016,594.004,369.244,590.464,364.205,588.073z"/>
</g>
<circle fill="none" stroke="#1582C5" stroke-miterlimit="10" cx="372.937" cy="603.226" r="35"/>
<circle fill="none" stroke="#E2E2E2" stroke-miterlimit="10" cx="485.832" cy="603.226" r="44.5"/>
<circle fill="none" stroke="#E2E2E2" stroke-miterlimit="10" cx="142.08" cy="825.021" r="34.25"/>
<g>
	
		<line fill="none" stroke="#06956E" stroke-width="1.5" stroke-linecap="round" stroke-miterlimit="10" x1="142.08" y1="809.021" x2="142.08" y2="841.021"/>
	
		<line fill="none" stroke="#06956E" stroke-width="1.5" stroke-linecap="round" stroke-miterlimit="10" x1="130.968" y1="813.274" x2="153.192" y2="813.274"/>
	
		<line fill="none" stroke="#06956E" stroke-width="1.5" stroke-linecap="round" stroke-miterlimit="10" x1="137.117" y1="841.021" x2="147.043" y2="841.021"/>
	<polygon fill="none" stroke="#06956E" stroke-width="1.5" stroke-linecap="round" stroke-linejoin="round" points="
		130.968,813.274 134.157,819.978 137.346,826.681 130.968,826.681 124.58,826.681 127.769,819.978 	"/>
	<path fill="none" stroke="#06956E" stroke-width="1.5" stroke-linecap="round" stroke-linejoin="round" d="M130.968,833.162
		c3.523,0,6.378-2.902,6.378-6.481l0,0H124.58c0,3.579,2.856,6.481,6.378,6.481C130.961,833.162,130.964,833.162,130.968,833.162z"
		/>
	<polygon fill="none" stroke="#06956E" stroke-width="1.5" stroke-linecap="round" stroke-linejoin="round" points="
		153.192,813.274 156.381,819.978 159.58,826.681 153.192,826.681 146.813,826.681 150.002,819.978 	"/>
	<path fill="none" stroke="#06956E" stroke-width="1.5" stroke-linecap="round" stroke-linejoin="round" d="M153.192,833.162
		c3.523,0,6.378-2.902,6.378-6.481l0,0h-12.756C146.813,830.261,149.669,833.162,153.192,833.162L153.192,833.162z"/>
</g>
<polygon fill="#1582C5" points="191.203,671.84 188.962,674.034 193.462,678.34 188.962,682.646 191.203,684.84 197.962,678.34 "/>
<polygon fill="#02956E" points="229.462,673.629 228.308,672.448 223.462,677.185 218.616,672.448 217.462,673.629 222.281,678.34 
	217.462,683.051 218.616,684.232 223.462,679.495 228.308,684.232 229.462,683.051 224.642,678.34 "/>
<g>
	<g>
		<path fill="#9E9E9E" d="M797.2,678.381c-0.197-0.529-0.587-0.864-1.167-1.003c-0.074-0.018-0.152-0.022-0.228-0.033
			c-0.009-0.001-0.018-0.004-0.027-0.005h-12.031c-0.055,0.008-0.111,0.014-0.166,0.023c-0.286,0.046-0.54,0.158-0.761,0.333
			c-0.297,0.237-0.479,0.537-0.546,0.897c-0.009,0.047-0.014,0.094-0.021,0.141v7.212c0.008,0.051,0.015,0.103,0.025,0.155
			c0.046,0.251,0.155,0.477,0.327,0.674c0.266,0.306,0.611,0.487,1.027,0.546c0.061,0.009,0.124,0.012,0.187,0.012
			c1.079,0.001,2.158,0.001,3.237,0.001c0.6,0,1.2,0.001,1.8,0.001c0.599,0.001,1.198,0.002,1.797,0.002
			c1.675,0.001,3.35,0.003,5.025,0.002c0.363,0,0.688-0.114,0.97-0.326c0.308-0.23,0.501-0.528,0.576-0.891
			c0.019-0.093,0.028-0.189,0.028-0.284c0.002-1.289,0.001-2.579,0.001-3.868c0-1.095-0.001-2.19,0.001-3.285
			C797.254,678.58,797.237,678.479,797.2,678.381z M795.711,678.132c0.003,0.004,0.007,0.007,0.01,0.011
			c-0.01,0.005-0.023,0.008-0.03,0.015c-1.815,1.694-3.63,3.388-5.445,5.082c-0.087,0.081-0.174,0.163-0.261,0.244
			c-0.125,0.116-0.279,0.116-0.405-0.001c-1.748-1.63-3.497-3.26-5.245-4.89c-0.156-0.146-0.313-0.291-0.469-0.437
			c-0.007-0.007-0.014-0.014-0.025-0.024H795.711z M783.561,686.52c-0.02,0.018-0.035,0.022-0.061,0.012
			c-0.186-0.07-0.289-0.202-0.326-0.38c-0.015-0.074-0.023-0.15-0.023-0.226c-0.001-2.446-0.001-4.891-0.001-7.337v-0.038
			c1.493,1.394,2.981,2.785,4.472,4.177c-0.005,0.005-0.012,0.012-0.02,0.02C786.255,684.004,784.908,685.262,783.561,686.52z
			 M784.628,686.586c1.189-1.111,2.38-2.223,3.571-3.336c0.006,0.006,0.014,0.012,0.021,0.018c0.455,0.427,0.909,0.854,1.364,1.28
			c0.119,0.112,0.278,0.113,0.398,0.001c0.439-0.41,0.878-0.82,1.317-1.229c0.009-0.008,0.015-0.018,0.021-0.026
			c1.179,1.1,2.352,2.196,3.525,3.291H784.628z M796.379,686.194c-0.074,0.179-0.212,0.293-0.407,0.351
			c-0.021,0.006-0.032-0.001-0.046-0.013c-0.655-0.613-1.309-1.225-1.964-1.838c-0.679-0.636-1.358-1.271-2.038-1.906
			c-0.008-0.007-0.017-0.014-0.022-0.019c1.516-1.416,3.03-2.83,4.546-4.246v0.031c0,2.404,0,4.807,0,7.211
			C796.448,685.911,796.436,686.056,796.379,686.194z"/>
	</g>
</g>
<g>
	<path fill="#1582C5" d="M317.275,676.751l-3.969,4.004c-0.051,0.051-0.128,0.085-0.196,0.085s-0.145-0.034-0.196-0.085
		l-3.969-4.004c-0.051-0.052-0.085-0.129-0.085-0.198c0-0.069,0.034-0.146,0.085-0.197l0.426-0.43
		c0.051-0.051,0.119-0.086,0.196-0.086c0.069,0,0.145,0.035,0.196,0.086l3.348,3.376l3.347-3.376
		c0.051-0.051,0.128-0.086,0.196-0.086c0.068,0,0.145,0.035,0.196,0.086l0.426,0.43c0.051,0.051,0.085,0.128,0.085,0.197
		C317.36,676.621,317.326,676.699,317.275,676.751z"/>
</g>
<rect x="88.951" y="104.714" fill="none" stroke="#000000" stroke-miterlimit="10" width="22" height="22"/>
<rect x="110.951" y="104.714" fill="none" stroke="#000000" stroke-miterlimit="10" width="22" height="22"/>
<rect x="132.951" y="104.714" fill="none" stroke="#000000" stroke-miterlimit="10" width="22" height="22"/>
<rect x="154.951" y="104.714" fill="none" stroke="#000000" stroke-miterlimit="10" width="22" height="22"/>
<g>
	<g>
		<path d="M99.947,106.965c-4.961,0-8.998,4.038-8.998,9.002c0,2.083,0.73,4.115,2.054,5.722c0.202,0.247,0.416,0.479,0.629,0.683
			c1.692,1.672,3.935,2.593,6.315,2.593c2.375,0,4.617-0.917,6.312-2.582c0.228-0.223,0.437-0.451,0.639-0.697
			c1.323-1.605,2.051-3.635,2.051-5.718C108.949,111.003,104.911,106.965,99.947,106.965z M94.607,122.022
			c0.37-0.183,0.749-0.349,1.142-0.485c0.574-0.196,1.167-0.346,1.755-0.488c1.222-0.292,1.741-1.641,1.007-2.662
			c-0.173-0.242-0.401-0.451-0.583-0.688c-0.647-0.852-1.003-1.814-1.126-2.872c-0.105-0.875-0.041-1.737,0.328-2.553
			c0.547-1.226,1.727-1.937,3.026-1.846c1.317,0.096,2.361,0.934,2.767,2.247c0.406,1.308,0.241,2.584-0.264,3.833
			c-0.251,0.615-0.611,1.158-1.08,1.632c-0.848,0.866-0.665,2.238,0.383,2.749c0.305,0.15,0.661,0.196,0.998,0.283
			c0.816,0.207,1.6,0.475,2.337,0.848c-1.481,1.309-3.361,2.033-5.35,2.033C97.961,124.053,96.087,123.331,94.607,122.022z
			 M106.195,121.106c-0.079,0.096-0.168,0.182-0.251,0.273c-1.047-0.569-2.168-0.956-3.345-1.178
			c-0.529-0.1-0.944-0.775-0.465-1.354c0.137-0.169,0.301-0.319,0.438-0.488c0.984-1.231,1.408-2.657,1.454-4.148
			c-0.009-0.752-0.109-1.418-0.356-2.06c-0.729-1.91-2.612-2.94-4.59-2.502c-1.386,0.305-2.311,1.167-2.835,2.466
			c-0.41,1.016-0.451,2.074-0.273,3.145c0.228,1.349,0.775,2.548,1.746,3.537c0.041,0.041,0.078,0.091,0.109,0.141
			c0.328,0.511,0.073,1.121-0.52,1.249c-0.246,0.055-0.497,0.109-0.743,0.173c-0.914,0.245-1.791,0.57-2.611,1.016
			c-0.082-0.09-0.167-0.17-0.246-0.267c-1.191-1.445-1.847-3.271-1.847-5.143c0-4.461,3.627-8.091,8.086-8.091
			c4.461,0,8.091,3.629,8.091,8.091C108.037,117.839,107.383,119.664,106.195,121.106z"/>
	</g>
</g>
<g>
	<path fill="#9E9E9E" d="M128.72,124.299c-0.327,0-0.645-0.135-0.865-0.365l-3.298-3.289c-1.126,0.779-2.472,1.192-3.837,1.192
		c-3.74,0-6.769-3.029-6.769-6.769s3.029-6.769,6.769-6.769c3.741,0,6.769,3.029,6.769,6.769c0,1.365-0.414,2.711-1.193,3.837
		l3.298,3.298c0.221,0.221,0.356,0.539,0.356,0.865C129.951,123.742,129.393,124.299,128.72,124.299z M120.72,110.761
		c-2.375,0-4.308,1.933-4.308,4.308s1.933,4.308,4.308,4.308c2.375,0,4.308-1.933,4.308-4.308S123.095,110.761,120.72,110.761z"/>
</g>
<rect x="88.638" y="157.869" fill="none" stroke="#000000" stroke-miterlimit="10" width="40" height="40"/>
<rect x="128.055" y="157.869" fill="none" stroke="#000000" stroke-miterlimit="10" width="40" height="40"/>
<rect x="203.911" y="104.799" fill="none" stroke="#000000" stroke-miterlimit="10" width="20" height="20"/>
<g>
	<path fill="#1582C5" d="M191.411,114.799c0-0.056,0.034-0.119,0.086-0.161l4.003-3.269c0.052-0.042,0.129-0.07,0.198-0.07
		c0.069,0,0.146,0.028,0.198,0.07l0.43,0.351c0.052,0.042,0.086,0.105,0.086,0.161c0,0.056-0.034,0.119-0.086,0.161l-3.376,2.757
		l3.376,2.757c0.052,0.042,0.086,0.105,0.086,0.161c0,0.063-0.034,0.119-0.086,0.161l-0.43,0.351
		c-0.052,0.042-0.129,0.07-0.198,0.07c-0.069,0-0.146-0.028-0.198-0.07l-4.003-3.269
		C191.445,114.918,191.411,114.855,191.411,114.799z"/>
</g>
<rect x="183.911" y="104.799" fill="none" stroke="#000000" stroke-miterlimit="10" width="20" height="20"/>
<rect x="223.911" y="104.799" fill="none" stroke="#000000" stroke-miterlimit="10" width="20" height="20"/>
<g>
	<path fill="#1582C5" d="M257.29,115.053l-5.605,5.136c-0.072,0.066-0.18,0.11-0.277,0.11s-0.204-0.044-0.277-0.11l-0.601-0.551
		c-0.072-0.066-0.12-0.154-0.12-0.254c0-0.088,0.048-0.187,0.12-0.254l4.727-4.332l-4.727-4.332c-0.072-0.066-0.12-0.165-0.12-0.254
		c0-0.088,0.048-0.187,0.12-0.254l0.601-0.551c0.072-0.066,0.18-0.11,0.277-0.11s0.204,0.044,0.277,0.11l5.605,5.136
		c0.072,0.066,0.12,0.165,0.12,0.254S257.363,114.986,257.29,115.053z"/>
</g>
<rect x="243.911" y="104.799" fill="none" stroke="#000000" stroke-miterlimit="10" width="20" height="20"/>
<g>
	<path fill="#767677" d="M270.411,114.799c0-0.088,0.048-0.187,0.12-0.254l5.605-5.136c0.072-0.066,0.18-0.11,0.277-0.11
		s0.204,0.044,0.277,0.11l0.601,0.551c0.072,0.066,0.12,0.165,0.12,0.254c0,0.088-0.048,0.187-0.12,0.254l-4.727,4.332l4.727,4.332
		c0.072,0.066,0.12,0.165,0.12,0.254c0,0.099-0.048,0.187-0.12,0.254l-0.601,0.551c-0.072,0.066-0.18,0.11-0.277,0.11
		s-0.204-0.044-0.277-0.11l-5.605-5.136C270.459,114.986,270.411,114.887,270.411,114.799z"/>
</g>
<rect x="263.911" y="104.799" fill="none" stroke="#000000" stroke-miterlimit="10" width="20" height="20"/>
<g>
	<path fill="#767677" d="M297.29,115.053l-5.605,5.136c-0.072,0.066-0.18,0.11-0.277,0.11s-0.204-0.044-0.277-0.11l-0.601-0.551
		c-0.072-0.066-0.12-0.154-0.12-0.254c0-0.088,0.048-0.187,0.12-0.254l4.727-4.332l-4.727-4.332c-0.072-0.066-0.12-0.165-0.12-0.254
		c0-0.088,0.048-0.187,0.12-0.254l0.601-0.551c0.072-0.066,0.18-0.11,0.277-0.11s0.204,0.044,0.277,0.11l5.605,5.136
		c0.072,0.066,0.12,0.165,0.12,0.254S297.363,114.986,297.29,115.053z"/>
</g>
<rect x="283.911" y="104.799" fill="none" stroke="#000000" stroke-miterlimit="10" width="20" height="20"/>
<rect x="303.911" y="104.799" fill="none" stroke="#000000" stroke-miterlimit="10" width="20" height="20"/>
<g>
	<path fill="#767677" d="M336.325,115.006l-4.003,4.202c-0.052,0.054-0.129,0.09-0.198,0.09s-0.146-0.036-0.198-0.09l-0.43-0.451
		c-0.052-0.054-0.086-0.126-0.086-0.207c0-0.072,0.034-0.153,0.086-0.207l3.376-3.544l-3.376-3.544
		c-0.052-0.054-0.086-0.135-0.086-0.207s0.034-0.153,0.086-0.207l0.43-0.451c0.052-0.054,0.129-0.09,0.198-0.09
		s0.146,0.036,0.198,0.09l4.003,4.202c0.052,0.054,0.086,0.135,0.086,0.207S336.376,114.952,336.325,115.006z"/>
</g>
<rect x="323.911" y="104.799" fill="none" stroke="#000000" stroke-miterlimit="10" width="20" height="20"/>
<g>
	<g>
		<path fill="#010101" d="M154.96,254.025c-0.006-0.021-0.014-0.043-0.027-0.065c-3.824-6.543-7.648-13.086-11.472-19.629
			c-1.912-3.271-3.824-6.543-5.736-9.814c-0.904-1.547-1.809-3.095-2.713-4.642c-0.612-1.046-1.056-2.366-2.279-2.812
			c-0.746-0.272-1.567,0.062-2.078,0.602c-0.464,0.49-0.749,1.278-1.075,1.864c-0.516,0.927-1.032,1.853-1.548,2.78
			c-1.843,3.309-3.686,6.619-5.529,9.928c-3.671,6.591-7.342,13.183-11.013,19.774c-0.632,1.134-2,2.763-0.965,4.078
			c0.317,0.403,0.756,0.754,1.292,0.799c1.3,0.109,2.639,0.025,3.944,0.025c5.167,0,10.334,0,15.501,0c5.185,0,10.371,0,15.556,0
			c1.22,0,2.441,0,3.661,0c1.089,0,2.321,0.172,3.38-0.106C155.091,256.486,155.4,255.038,154.96,254.025z M150.649,253.543
			c-12.189,0.004-24.377,0.108-36.566,0.112c5.935-10.633,12.182-21.092,18.13-31.717
			C138.367,232.469,144.497,243.012,150.649,253.543z"/>
		<path fill="#010101" d="M129.342,233.202h-0.001l1.469,11.176c0,0.88,0.719,1.593,1.606,1.593c0.887,0,1.606-0.713,1.606-1.593
			l1.469-11.176h-0.001c0.014-0.119,0.023-0.239,0.023-0.362c0-1.697-1.387-3.073-3.097-3.073c-1.711,0-3.097,1.376-3.097,3.073
			C129.319,232.962,129.328,233.083,129.342,233.202z"/>
		<ellipse fill="#010101" cx="132.416" cy="249.612" rx="2.294" ry="2.276"/>
	</g>
	<rect x="97.416" y="202.869" fill="none" stroke="#000000" stroke-miterlimit="10" width="70" height="70"/>
</g>
<rect x="52.08" y="573.226" fill="none" stroke="#000000" stroke-miterlimit="10" width="60" height="60"/>
<rect x="112.08" y="573.226" fill="none" stroke="#000000" stroke-miterlimit="10" width="60" height="60"/>
<rect x="172.08" y="573.226" fill="none" stroke="#000000" stroke-miterlimit="10" width="60" height="60"/>
<rect x="58" y="662.84" fill="none" stroke="#000000" stroke-miterlimit="10" width="30" height="30"/>
<g>
	<path fill="#1582C5" d="M100.376,677.84c0-0.073,0.036-0.153,0.09-0.207l4.201-4.203c0.055-0.054,0.136-0.09,0.207-0.09
		c0.073,0,0.153,0.037,0.208,0.09l0.451,0.451c0.054,0.054,0.089,0.136,0.089,0.207c0,0.073-0.036,0.154-0.089,0.208l-3.543,3.543
		l3.543,3.543c0.054,0.055,0.089,0.136,0.089,0.208c0,0.08-0.036,0.153-0.089,0.207l-0.451,0.451
		c-0.055,0.054-0.136,0.09-0.208,0.09c-0.071,0-0.152-0.037-0.207-0.09l-4.201-4.203
		C100.412,677.994,100.376,677.913,100.376,677.84z"/>
</g>
<rect x="88" y="662.84" fill="none" stroke="#000000" stroke-miterlimit="10" width="30" height="30"/>
<g>
	<path fill="#1582C5" d="M135.995,678.047l-4.201,4.203c-0.055,0.054-0.136,0.09-0.207,0.09c-0.073,0-0.153-0.037-0.208-0.09
		l-0.451-0.451c-0.054-0.054-0.089-0.127-0.089-0.207c0-0.073,0.036-0.153,0.089-0.208l3.543-3.543l-3.543-3.543
		c-0.054-0.055-0.089-0.136-0.089-0.208c0-0.071,0.036-0.153,0.089-0.207l0.451-0.451c0.055-0.054,0.136-0.09,0.208-0.09
		c0.071,0,0.152,0.037,0.207,0.09l4.201,4.203c0.055,0.054,0.09,0.135,0.09,0.207S136.05,677.994,135.995,678.047z"/>
</g>
<rect x="118.462" y="662.84" fill="none" stroke="#000000" stroke-miterlimit="10" width="30" height="30"/>
<g>
	<path fill="#9E9E9E" d="M251.61,677.84c0-0.073,0.036-0.153,0.09-0.207l4.201-4.203c0.055-0.054,0.136-0.09,0.207-0.09
		c0.073,0,0.153,0.037,0.208,0.09l0.451,0.451c0.054,0.054,0.089,0.136,0.089,0.207c0,0.073-0.036,0.154-0.089,0.208l-3.543,3.543
		l3.543,3.543c0.054,0.055,0.089,0.136,0.089,0.208c0,0.08-0.036,0.153-0.089,0.207l-0.451,0.451
		c-0.055,0.054-0.136,0.09-0.208,0.09c-0.071,0-0.152-0.037-0.207-0.09l-4.201-4.203C251.645,677.994,251.61,677.913,251.61,677.84z
		"/>
</g>
<rect x="238.233" y="662.84" fill="none" stroke="#000000" stroke-miterlimit="10" width="30" height="30"/>
<g>
	<path fill="#9E9E9E" d="M286.643,678.047l-4.201,4.203c-0.055,0.054-0.136,0.09-0.207,0.09c-0.073,0-0.153-0.037-0.208-0.09
		l-0.451-0.451c-0.054-0.054-0.089-0.127-0.089-0.207c0-0.073,0.036-0.153,0.089-0.208l3.543-3.543l-3.543-3.543
		c-0.054-0.055-0.089-0.136-0.089-0.208c0-0.071,0.036-0.153,0.089-0.207l0.451-0.451c0.055-0.054,0.136-0.09,0.208-0.09
		c0.071,0,0.152,0.037,0.207,0.09l4.201,4.203c0.055,0.054,0.09,0.135,0.09,0.207S286.698,677.994,286.643,678.047z"/>
</g>
<rect x="268.11" y="662.84" fill="none" stroke="#000000" stroke-miterlimit="10" width="30" height="30"/>
<rect x="298.11" y="662.84" fill="none" stroke="#000000" stroke-miterlimit="10" width="30" height="30"/>
<rect x="97.08" y="780.021" fill="none" stroke="#000000" stroke-miterlimit="10" width="90" height="90"/>
<circle fill="none" stroke="#E2E2E2" stroke-miterlimit="10" cx="232.08" cy="825.021" r="34.25"/>
<rect x="187.08" y="780.021" fill="none" stroke="#000000" stroke-miterlimit="10" width="90" height="90"/>
<circle fill="none" stroke="#E2E2E2" stroke-miterlimit="10" cx="322.08" cy="825.021" r="34.25"/>
<rect x="277.08" y="780.021" fill="none" stroke="#000000" stroke-miterlimit="10" width="90" height="90"/>
<circle fill="none" stroke="#E2E2E2" stroke-miterlimit="10" cx="412.08" cy="825.021" r="34.25"/>
<rect x="367.08" y="780.021" fill="none" stroke="#000000" stroke-miterlimit="10" width="90" height="90"/>
<circle fill="none" stroke="#E2E2E2" stroke-miterlimit="10" cx="502.08" cy="825.021" r="34.25"/>
<rect x="457.08" y="780.021" fill="none" stroke="#000000" stroke-miterlimit="10" width="90" height="90"/>
<circle fill="none" stroke="#E2E2E2" stroke-miterlimit="10" cx="592.08" cy="825.021" r="34.25"/>
<rect x="547.08" y="780.021" fill="none" stroke="#000000" stroke-miterlimit="10" width="90" height="90"/>
<rect x="148.462" y="662.84" fill="none" stroke="#000000" stroke-miterlimit="10" width="30" height="30"/>
<rect x="178.462" y="662.84" fill="none" stroke="#000000" stroke-miterlimit="10" width="30" height="30"/>
<rect x="208.462" y="662.84" fill="none" stroke="#000000" stroke-miterlimit="10" width="30" height="30"/>
<rect x="327.937" y="558.226" fill="none" stroke="#000000" stroke-miterlimit="10" width="90" height="90"/>
<rect x="430.832" y="548.226" fill="none" stroke="#000000" stroke-miterlimit="10" width="110" height="110"/>
<rect x="687.002" y="568.226" fill="none" stroke="#000000" stroke-miterlimit="10" width="70" height="70"/>
<rect x="689.758" y="662.34" fill="none" stroke="#000000" stroke-miterlimit="10" width="40" height="40"/>
<g>
	<path fill="#9E9E9E" d="M749.754,695.34c-7.168,0-13-5.832-13-13s5.832-13,13-13s13,5.832,13,13S756.922,695.34,749.754,695.34z
		 M749.754,669.601c-7.024,0-12.739,5.715-12.739,12.739c0,7.024,5.715,12.739,12.739,12.739c7.024,0,12.739-5.715,12.739-12.739
		C762.493,675.316,756.778,669.601,749.754,669.601z"/>
</g>
<rect x="729.758" y="662.34" fill="none" stroke="#000000" stroke-miterlimit="10" width="40" height="40"/>
<g>
	<path fill="#9E9E9E" d="M789.754,695.34c-7.168,0-13-5.832-13-13s5.832-13,13-13s13,5.832,13,13S796.922,695.34,789.754,695.34z
		 M789.754,669.601c-7.024,0-12.739,5.715-12.739,12.739c0,7.024,5.715,12.739,12.739,12.739c7.024,0,12.739-5.715,12.739-12.739
		C802.493,675.316,796.778,669.601,789.754,669.601z"/>
</g>
<rect x="769.758" y="662.34" fill="none" stroke="#000000" stroke-miterlimit="10" width="40" height="40"/>
<rect x="757.002" y="568.226" fill="none" stroke="#000000" stroke-miterlimit="10" width="70" height="70"/>
<rect x="827.002" y="568.226" fill="none" stroke="#000000" stroke-miterlimit="10" width="70" height="70"/>
<rect x="897.002" y="568.226" fill="none" stroke="#000000" stroke-miterlimit="10" width="70" height="70"/>
<rect x="967.002" y="568.226" fill="none" stroke="#000000" stroke-miterlimit="10" width="70" height="70"/>
<circle fill="none" stroke="#E2E2E2" stroke-miterlimit="10" cx="595.814" cy="603.226" r="44.5"/>
<rect x="540.814" y="548.226" fill="none" stroke="#000000" stroke-miterlimit="10" width="110" height="110"/>
<g>
	<g>
		<path fill="#02956E" d="M519.861,130.678c-0.432,1.01-1.584,1.669-2.511,2.184c-1.219,0.659-2.452,1.05-3.833,1.05
			c-1.916,0-3.644-0.783-5.395-1.422c-1.259-0.452-2.474-1.008-3.606-1.71c-3.502-2.162-7.724-6.384-9.886-9.886
			c-0.702-1.132-1.257-2.348-1.71-3.604c-0.639-1.75-1.422-3.48-1.422-5.396c0-1.381,0.391-2.616,1.05-3.831
			c0.515-0.927,1.174-2.081,2.184-2.513c0.679-0.31,2.121-0.639,2.862-0.639c0.144,0,0.288,0,0.434,0.061
			c0.432,0.146,0.884,1.154,1.091,1.566c0.659,1.174,1.298,2.369,1.977,3.523c0.329,0.535,0.947,1.194,0.947,1.833
			c0,1.255-3.727,3.089-3.727,4.202c0,0.556,0.515,1.278,0.803,1.771c2.081,3.75,4.675,6.344,8.422,8.424
			c0.495,0.288,1.215,0.803,1.772,0.803c1.111,0,2.947-3.727,4.202-3.727c0.639,0,1.296,0.618,1.831,0.947
			c1.156,0.679,2.348,1.318,3.523,1.977c0.414,0.207,1.422,0.659,1.566,1.091c0.063,0.146,0.063,0.29,0.063,0.434
			C520.5,128.557,520.171,129.999,519.861,130.678z"/>
	</g>
	<circle fill="none" stroke="#02956E" stroke-miterlimit="10" cx="506" cy="119.635" r="35"/>
	<rect x="461" y="74.635" fill="none" stroke="#000000" stroke-miterlimit="10" width="90" height="90"/>
</g>
<circle fill="none" stroke="#E2E2E2" stroke-miterlimit="10" cx="508.384" cy="239.983" r="40"/>
<rect x="458.384" y="190.103" fill="none" stroke="#000000" stroke-miterlimit="10" width="100" height="100"/>
<circle fill="none" stroke="#E2E2E2" stroke-miterlimit="10" cx="608.203" cy="239.983" r="40"/>
<rect x="558.203" y="190.103" fill="none" stroke="#000000" stroke-miterlimit="10" width="100" height="100"/>
<circle fill="none" stroke="#E2E2E2" stroke-miterlimit="10" cx="708.709" cy="239.983" r="40"/>
<rect x="658.709" y="190.103" fill="none" stroke="#000000" stroke-miterlimit="10" width="100" height="100"/>
<circle fill="none" stroke="#E2E2E2" stroke-miterlimit="10" cx="809.212" cy="239.983" r="40"/>
<rect x="759.212" y="190.103" fill="none" stroke="#000000" stroke-miterlimit="10" width="100" height="100"/>
<circle fill="none" stroke="#E2E2E2" stroke-miterlimit="10" cx="909.031" cy="239.983" r="40"/>
<rect x="859.031" y="190.103" fill="none" stroke="#000000" stroke-miterlimit="10" width="100" height="100"/>
<circle fill="none" stroke="#E2E2E2" stroke-miterlimit="10" cx="1009.537" cy="239.983" r="40"/>
<rect x="959.537" y="190.103" fill="none" stroke="#000000" stroke-miterlimit="10" width="100" height="100"/>
<path fill="#E2E2E2" d="M694.46,111.922h1.952v-1.9c0-0.894,0-2.123,0.651-2.906c0.542-0.894,1.41-1.453,2.928-1.453
	c2.386,0,3.47,0.335,3.47,0.335l-0.434,2.906c0,0-0.759-0.223-1.518-0.223s-1.41,0.223-1.41,1.006v2.235h3.036l-0.217,2.794h-2.928
	v9.947h-3.578v-9.835h-1.952V111.922z"/>
<path fill="#E2E2E2" d="M787.96,109.67c-0.662,0.321-1.374,0.538-2.121,0.636c0.762-0.5,1.348-1.292,1.624-2.235
	c-0.714,0.463-1.504,0.799-2.345,0.98c-0.674-0.785-1.633-1.276-2.696-1.276c-2.039,0-3.693,1.808-3.693,4.039
	c0,0.317,0.033,0.625,0.096,0.92c-3.069-0.168-5.79-1.776-7.612-4.22c-0.318,0.597-0.5,1.29-0.5,2.031
	c0,1.401,0.652,2.638,1.643,3.362c-0.605-0.021-1.175-0.203-1.673-0.505c0,0.017,0,0.034,0,0.051c0,1.957,1.273,3.59,2.962,3.961
	c-0.31,0.092-0.636,0.142-0.973,0.142c-0.238,0-0.469-0.025-0.695-0.072c0.47,1.605,1.834,2.773,3.45,2.805
	c-1.264,1.083-2.856,1.729-4.586,1.729c-0.298,0-0.592-0.019-0.881-0.056c1.634,1.146,3.575,1.815,5.661,1.815
	c6.793,0,10.507-6.155,10.507-11.492c0-0.175-0.004-0.349-0.011-0.523C786.839,111.192,787.465,110.48,787.96,109.67z"/>
<path fill="#E2E2E2" d="M853.878,122.663h-3.812v-12.1h3.812V122.663z M863.513,110.863c1.482,0,2.541,0.4,3.282,1.3
	c0.741,0.9,1.165,2.1,1.165,3.6v6.9h-3.812v-6.5c0-1.7-0.635-2.5-1.906-2.5c-1.059,0-1.694,0.5-2.012,1.4v7.6h-3.812
	c0-7.3,0-11.3,0-12.1h3.071l0.212,2.4h0.106C860.654,111.563,861.925,110.863,863.513,110.863z M849.96,107.463
	c0-1.2,0.635-1.8,2.012-1.8c1.271,0,2.012,0.6,2.012,1.8s-0.635,1.8-2.012,1.8C850.596,109.263,849.96,108.663,849.96,107.463z"/>
<g>
	<g>
		<path fill="#E2E2E2" d="M934.943,114.669c-0.003,0.795,0,1.587,0.003,2.383c1.335,0.037,2.67,0.02,4.005,0.047
			c-0.337,1.156-1.105,2.232-2.269,2.65c-2.249,0.992-5.119-0.304-5.827-2.667c-0.854-2.262,0.544-4.992,2.853-5.651
			c1.432-0.505,2.907,0.063,4.132,0.809c0.621-0.581,1.201-1.203,1.772-1.831c-1.392-1.166-3.18-1.881-5.019-1.724
			c-3.608,0.043-6.765,3.378-6.628,6.987c-0.06,2.921,1.949,5.708,4.712,6.617c2.603,0.875,5.804,0.221,7.536-2.012
			c1.265-1.564,1.552-3.649,1.415-5.597C939.398,114.659,937.169,114.666,934.943,114.669z M947.964,114.663
			c-0.003-0.665-0.01-1.333-0.013-1.998h-1.986c-0.007,0.665-0.013,1.333-0.017,1.998c-0.667,0.007-1.331,0.01-1.996,0.013v1.992
			c0.664,0.003,1.331,0.007,1.996,0.013c0.007,0.665,0.007,1.33,0.013,1.998c0.661,0,1.325-0.003,1.989,0
			c0.003-0.668,0.007-1.333,0.013-2.002c0.664-0.003,1.332-0.007,1.996-0.01v-1.992
			C949.296,114.673,948.629,114.669,947.964,114.663z"/>
	</g>
</g>
<g>
	<g>
		<path fill="#E2E2E2" d="M1029.74,111.114c0,0-0.215-1.568-0.875-2.258c-0.837-0.906-1.774-0.911-2.204-0.964
			c-3.079-0.23-7.696-0.23-7.696-0.23h-0.01c0,0-4.618,0-7.697,0.23c-0.43,0.053-1.367,0.057-2.204,0.964
			c-0.66,0.69-0.874,2.258-0.874,2.258s-0.22,1.841-0.22,3.682v1.726c0,1.841,0.22,3.682,0.22,3.682s0.215,1.567,0.874,2.258
			c0.837,0.906,1.936,0.877,2.426,0.972c1.76,0.174,7.48,0.228,7.48,0.228s4.623-0.007,7.701-0.237
			c0.43-0.053,1.368-0.058,2.204-0.964c0.659-0.691,0.875-2.258,0.875-2.258s0.22-1.841,0.22-3.682v-1.726
			C1029.96,112.955,1029.74,111.114,1029.74,111.114z M1016.663,118.816v-6.407l5.845,3.139L1016.663,118.816z"/>
	</g>
</g>
<rect x="658.96" y="75.163" fill="none" stroke="#000000" stroke-miterlimit="10" width="80" height="80"/>
<circle fill="none" stroke="#E2E2E2" stroke-miterlimit="10" cx="698.96" cy="115.163" r="20"/>
<rect x="738.96" y="75.163" fill="none" stroke="#000000" stroke-miterlimit="10" width="80" height="80"/>
<circle fill="none" stroke="#E2E2E2" stroke-miterlimit="10" cx="778.96" cy="115.163" r="20"/>
<rect x="818.96" y="75.163" fill="none" stroke="#000000" stroke-miterlimit="10" width="80" height="80"/>
<circle fill="none" stroke="#E2E2E2" stroke-miterlimit="10" cx="858.96" cy="115.163" r="20"/>
<rect x="898.96" y="75.163" fill="none" stroke="#000000" stroke-miterlimit="10" width="80" height="80"/>
<circle fill="none" stroke="#E2E2E2" stroke-miterlimit="10" cx="938.96" cy="115.163" r="20"/>
<rect x="978.96" y="75.163" fill="none" stroke="#000000" stroke-miterlimit="10" width="80" height="80"/>
<circle fill="none" stroke="#E2E2E2" stroke-miterlimit="10" cx="1018.96" cy="115.163" r="20"/>
<g>
	<g>
		<g>
			<path fill="#06956E" d="M601.955,134.135h-15.411c-3.435,0-6.229-2.908-6.229-6.482v-16.037c0-3.574,2.794-6.482,6.229-6.482
				h13.375c0.706,0,1.279,0.596,1.279,1.33s-0.572,1.33-1.279,1.33h-13.375c-2.025,0-3.672,1.714-3.672,3.821v16.037
				c0,2.107,1.647,3.821,3.672,3.821h15.411c2.025,0,3.672-1.714,3.672-3.821v-5.808c0-0.735,0.572-1.33,1.279-1.33
				c0.706,0,1.279,0.596,1.279,1.33v5.808C608.184,131.227,605.389,134.135,601.955,134.135z"/>
		</g>
		<g>
			<path fill="#06956E" d="M589.969,123.878l0.056,4.412c0.002,0.181,0.143,0.327,0.317,0.33l4.239,0.057
				c0.087,0.001,0.17-0.034,0.231-0.098l13.968-14.534l-4.749-4.941l-13.968,14.534
				C590.002,123.701,589.968,123.788,589.969,123.878z M604.058,111.285l0.005,0.006c0.15,0.156,0.15,0.409,0,0.564l-10.659,11.092
				c-0.15,0.156-0.393,0.156-0.542,0l-0.005-0.006c-0.15-0.156-0.15-0.409,0-0.564l10.659-11.092
				C603.666,111.13,603.908,111.13,604.058,111.285z M610.696,108.945l-1.765-1.837c-0.824-0.857-2.159-0.857-2.983-0.001
				l-1.187,1.235l4.749,4.941l1.187-1.235C611.52,111.192,611.52,109.802,610.696,108.945z"/>
		</g>
	</g>
	<circle fill="none" stroke="#02956E" stroke-miterlimit="10" cx="595.814" cy="119.635" r="35"/>
	<rect x="550.814" y="74.635" fill="none" stroke="#000000" stroke-miterlimit="10" width="90" height="90"/>
</g>
<g>
	<path fill="none" stroke="#E2E2E2" stroke-miterlimit="10" d="M722.002,623.226c-11.028,0-20-8.972-20-20s8.972-20,20-20
		s20,8.972,20,20S733.03,623.226,722.002,623.226z M722.002,583.627c-10.807,0-19.599,8.792-19.599,19.599
		c0,10.806,8.792,19.598,19.599,19.598c10.806,0,19.598-8.792,19.598-19.598C741.6,592.419,732.808,583.627,722.002,583.627z"/>
</g>
<path fill="#E2E2E2" d="M717.994,600.155h1.737v-1.8c0-0.847,0-2.012,0.579-2.753c0.482-0.847,1.254-1.376,2.605-1.376
	c2.123,0,3.087,0.318,3.087,0.318l-0.386,2.753c0,0-0.675-0.212-1.351-0.212c-0.675,0-1.254,0.212-1.254,0.953v2.118h2.701
	l-0.193,2.647h-2.605v9.424h-3.184v-9.318h-1.737V600.155z"/>
<g>
	<path fill="none" stroke="#E2E2E2" stroke-miterlimit="10" d="M792.002,623.226c-11.028,0-20-8.972-20-20s8.972-20,20-20
		s20,8.972,20,20S803.03,623.226,792.002,623.226z M792.002,583.627c-10.807,0-19.599,8.792-19.599,19.599
		c0,10.806,8.792,19.598,19.599,19.598c10.806,0,19.598-8.792,19.598-19.598C811.6,592.419,802.808,583.627,792.002,583.627z"/>
</g>
<g>
	<path fill="none" stroke="#E2E2E2" stroke-miterlimit="10" d="M862.002,623.226c-11.028,0-20-8.972-20-20s8.972-20,20-20
		s20,8.972,20,20S873.03,623.226,862.002,623.226z M862.002,583.627c-10.807,0-19.599,8.792-19.599,19.599
		c0,10.806,8.792,19.598,19.599,19.598c10.806,0,19.598-8.792,19.598-19.598C881.6,592.419,872.808,583.627,862.002,583.627z"/>
</g>
<g>
	<path fill="none" stroke="#E2E2E2" stroke-miterlimit="10" d="M932.002,623.226c-11.028,0-20-8.972-20-20s8.972-20,20-20
		s20,8.972,20,20S943.03,623.226,932.002,623.226z M932.002,583.627c-10.807,0-19.599,8.792-19.599,19.599
		c0,10.806,8.792,19.598,19.599,19.598c10.806,0,19.598-8.792,19.598-19.598C951.6,592.419,942.808,583.627,932.002,583.627z"/>
</g>
<g>
	<path fill="none" stroke="#E2E2E2" stroke-miterlimit="10" d="M1002.002,623.226c-11.028,0-20-8.972-20-20s8.972-20,20-20
		s20,8.972,20,20S1013.03,623.226,1002.002,623.226z M1002.002,583.627c-10.807,0-19.599,8.792-19.599,19.599
		c0,10.806,8.792,19.598,19.599,19.598c10.806,0,19.598-8.792,19.598-19.598C1021.6,592.419,1012.808,583.627,1002.002,583.627z"/>
</g>
</svg>
