<?xml version="1.0" encoding="utf-8"?>
<!-- Generator: Adobe Illustrator 17.0.0, SVG Export Plug-In . SVG Version: 6.00 Build 0)  -->
<!DOCTYPE svg PUBLIC "-//W3C//DTD SVG 1.1//EN" "http://www.w3.org/Graphics/SVG/1.1/DTD/svg11.dtd">
<svg version="1.1" id="Layer_1" xmlns="http://www.w3.org/2000/svg" xmlns:xlink="http://www.w3.org/1999/xlink" x="0px" y="0px"
	 width="89px" height="89px" viewBox="0 0 89 89" enable-background="new 0 0 89 89" xml:space="preserve">
<g>
	<path fill="#02956E" d="M61.707,58.486c-0.537,1.253-1.968,2.07-3.119,2.71c-1.509,0.817-3.042,1.304-4.755,1.304
		c-2.378,0-4.526-0.971-6.699-1.765c-1.56-0.562-3.068-1.252-4.474-2.122c-4.347-2.684-9.588-7.926-12.273-12.273
		c-0.87-1.406-1.56-2.915-2.123-4.474c-0.792-2.173-1.764-4.321-1.764-6.698c0-1.714,0.486-3.247,1.304-4.756
		c0.639-1.151,1.457-2.583,2.71-3.12c0.844-0.383,2.634-0.792,3.554-0.792c0.179,0,0.358,0,0.537,0.077
		c0.537,0.179,1.099,1.431,1.355,1.943c0.818,1.457,1.611,2.94,2.455,4.372c0.409,0.665,1.176,1.483,1.176,2.276
		c0,1.559-4.628,3.835-4.628,5.215c0,0.691,0.639,1.586,0.997,2.199c2.582,4.653,5.804,7.875,10.457,10.457
		c0.614,0.358,1.509,0.997,2.199,0.997c1.381,0,3.657-4.628,5.216-4.628c0.792,0,1.61,0.767,2.276,1.176
		c1.431,0.844,2.915,1.636,4.372,2.455c0.511,0.256,1.764,0.818,1.943,1.355c0.077,0.179,0.077,0.358,0.077,0.537
		C62.5,55.852,62.091,57.642,61.707,58.486z"/>
</g>
</svg>
