<?xml version="1.0" encoding="utf-8"?>
<!-- Generator: Adobe Illustrator 17.1.0, SVG Export Plug-In . SVG Version: 6.00 Build 0)  -->
<!DOCTYPE svg PUBLIC "-//W3C//DTD SVG 1.1//EN" "http://www.w3.org/Graphics/SVG/1.1/DTD/svg11.dtd">
<svg version="1.1" id="Layer_1" xmlns="http://www.w3.org/2000/svg" xmlns:xlink="http://www.w3.org/1999/xlink" x="0px" y="0px"
	 width="41px" height="41px" viewBox="0 0 41 41" enable-background="new 0 0 41 41" xml:space="preserve">
<g>
	<path fill="#00A176" d="M12.7,17c5.2,0,10.4,0,15.6,0c0,1.1,0,2.2,0,3.2c0,1.5,0,3.1-0.1,4.6c0,1.3,0,2.6-0.1,3.9
		c0,0.7,0,1.4-0.1,2.1c0,0.1-0.1,0.3-0.2,0.3c-0.3,0.2-0.7,0.3-1.1,0.3c-4.1,0-8.3,0-12.4,0c-0.4,0-0.7-0.2-1-0.4
		c-0.1,0-0.1-0.2-0.1-0.3c-0.1-1.3-0.1-2.7-0.1-4c-0.1-1.5-0.1-3.1-0.2-4.6c-0.1-1.6-0.1-3.1-0.2-4.7C12.8,17.4,12.7,17.2,12.7,17z"
		/>
	<path fill="#00A176" d="M20.5,16.1c-2.8,0-5.6,0-8.5,0c-0.3,0-0.4,0-0.5-0.3c0-0.1-0.2-0.2-0.3-0.2c-0.3-0.1-0.6-0.1-0.9-0.1
		c-0.2,0-0.4-0.2-0.4-0.4c-0.1-0.8-0.1-1.5,0.1-2.3c0-0.1,0.1-0.2,0.2-0.3c0.2-0.2,0.4-0.4,0.7-0.6c0.4-0.3,0.7-0.5,1.2-0.5
		c0.5,0,0.9-0.2,1.3-0.5c0.2-0.2,0.5-0.3,0.7-0.4c0.2-0.1,0.3-0.1,0.2-0.4c-0.1-0.4,0.1-0.6,0.5-0.6c3.6,0,7.1,0,10.7,0
		c0.4,0,0.5,0.1,0.5,0.4c0,0.3,0.2,0.4,0.4,0.5c0.4,0,0.8,0.3,1.1,0.5c0.4,0.3,0.9,0.4,1.5,0.5c0.2,0,0.4,0.1,0.5,0.2
		c0.4,0.3,0.8,0.6,1.2,0.9c0.1,0.1,0.2,0.3,0.2,0.5c0,0.7,0,1.3,0,2c0,0.4-0.1,0.5-0.5,0.5c-0.3,0-0.5,0.1-0.8,0.1
		c-0.2,0-0.3,0.1-0.3,0.2c-0.1,0.2-0.2,0.3-0.4,0.3C26.2,16.1,23.4,16.1,20.5,16.1z M20.5,12c-2.2,0-4.3,0-6.5,0c-0.1,0-0.2,0-0.2,0
		c-0.3,0-0.5,0.2-0.5,0.5c0,0.2,0.1,0.5,0.4,0.6c0.1,0,0.2,0,0.4,0c4.3,0,8.6,0,12.9,0c0.1,0,0.3,0,0.4-0.1c0.2-0.1,0.4-0.3,0.3-0.5
		c0-0.3-0.2-0.4-0.5-0.5c-0.1,0-0.2,0-0.3,0C24.9,12,22.7,12,20.5,12z"/>
</g>
</svg>
