<?xml version="1.0" encoding="utf-8"?>
<!-- Generator: Adobe Illustrator 17.0.0, SVG Export Plug-In . SVG Version: 6.00 Build 0)  -->
<!DOCTYPE svg PUBLIC "-//W3C//DTD SVG 1.1//EN" "http://www.w3.org/Graphics/SVG/1.1/DTD/svg11.dtd">
<svg version="1.1" id="Layer_1" xmlns="http://www.w3.org/2000/svg" xmlns:xlink="http://www.w3.org/1999/xlink" x="0px" y="0px"
	 width="80px" height="80px" viewBox="0 0 80 80" enable-background="new 0 0 80 80" xml:space="preserve">
<g>
	<g>
		<path fill="#06956E" d="M20.5,21.661c0.47,0,0.912,0,1.354,0c2.724,0,5.447,0.007,8.17-0.011c0.226-0.002,0.52-0.117,0.664-0.28
			c0.806-0.918,1.744-1.63,2.92-2.023c0.132-0.044,0.285-0.179,0.329-0.306c0.602-1.723,1.879-2.717,3.596-3.192
			c1.756-0.485,3.524-0.48,5.26,0.113c1.546,0.529,2.671,1.512,3.264,3.049c0.054,0.14,0.214,0.293,0.358,0.339
			c1.18,0.383,2.148,1.066,2.925,2.007c0.205,0.248,0.42,0.31,0.719,0.309c2.955-0.007,5.909-0.004,8.864-0.004
			c0.179,0,0.357,0,0.576,0c0,14.295,0,28.551,0,42.837c-12.998,0-25.98,0-39,0C20.5,50.226,20.5,35.97,20.5,21.661z M22.595,62.391
			c11.626,0,23.217,0,34.799,0c0-12.891,0-25.745,0-38.587c-2.207,0-4.372,0-6.488,0c0.255,1.129,0.504,2.231,0.759,3.36
			c-7.818,0-15.526,0-23.344,0c0.285-1.163,0.554-2.261,0.827-3.373c-2.156,0-4.342,0-6.553,0
			C22.595,36.663,22.595,49.506,22.595,62.391z M48.974,25.082c-0.883-2.217-2.156-3.848-4.713-3.928
			c-0.128-1.87-0.722-2.732-2.234-3.178c-1.327-0.391-2.671-0.378-3.991,0.056c-0.94,0.309-1.758,0.885-1.926,1.859
			c-0.17,0.988-0.665,1.298-1.578,1.474c-1.54,0.295-3.249,2.236-3.412,3.718C37.038,25.082,42.953,25.082,48.974,25.082z"/>
	</g>
	<path fill="#06956E" d="M37.118,51.107c0.605-0.554,1.205-1.06,1.753-1.614c3.96-4.005,7.91-8.021,11.864-12.032
		c0.087-0.088,0.172-0.181,0.271-0.255c0.323-0.24,0.74-0.214,1.028,0.056c0.295,0.277,0.338,0.713,0.087,1.04
		c-0.105,0.137-0.234,0.256-0.356,0.38c-4.606,4.675-9.213,9.35-13.819,14.024c-0.553,0.561-0.934,0.559-1.486-0.001
		c-2.116-2.147-4.23-4.297-6.352-6.438c-0.28-0.283-0.419-0.587-0.277-0.965c0.213-0.568,0.906-0.661,1.38-0.184
		c1.014,1.021,2.021,2.049,3.032,3.074C35.218,49.18,36.194,50.169,37.118,51.107z"/>
</g>
</svg>
