<?xml version="1.0" encoding="utf-8"?>
<!-- Generator: Adobe Illustrator 17.0.0, SVG Export Plug-In . SVG Version: 6.00 Build 0)  -->
<!DOCTYPE svg PUBLIC "-//W3C//DTD SVG 1.1//EN" "http://www.w3.org/Graphics/SVG/1.1/DTD/svg11.dtd">
<svg version="1.1" id="Layer_1" xmlns="http://www.w3.org/2000/svg" xmlns:xlink="http://www.w3.org/1999/xlink" x="0px" y="0px"
	 width="40px" height="40px" viewBox="0 0 40 40" enable-background="new 0 0 40 40" xml:space="preserve">
<g>
	<g>
		<path fill="#E2E2E2" d="M15.984,19.006c-0.003,0.795,0,1.587,0.003,2.383c1.334,0.037,2.669,0.02,4.003,0.047
			c-0.337,1.156-1.104,2.232-2.269,2.65c-2.249,0.992-5.118-0.304-5.825-2.667c-0.854-2.262,0.544-4.992,2.852-5.651
			c1.431-0.505,2.906,0.063,4.13,0.809c0.621-0.581,1.201-1.203,1.772-1.831c-1.391-1.166-3.179-1.881-5.018-1.724
			c-3.607,0.043-6.763,3.378-6.626,6.987c-0.06,2.921,1.948,5.708,4.711,6.617c2.602,0.875,5.802,0.221,7.533-2.012
			c1.264-1.564,1.551-3.649,1.415-5.597C20.437,18.996,18.209,19.003,15.984,19.006z M29.001,19
			c-0.003-0.665-0.01-1.333-0.013-1.998c-0.664,0-1.324,0-1.985,0c-0.007,0.665-0.013,1.333-0.017,1.998
			c-0.667,0.007-1.331,0.01-1.995,0.013c0,0.665,0,1.327,0,1.992c0.664,0.003,1.331,0.007,1.995,0.013
			c0.007,0.665,0.007,1.33,0.013,1.998c0.661,0,1.325-0.003,1.988,0c0.003-0.668,0.007-1.333,0.013-2.002
			c0.664-0.003,1.331-0.007,1.995-0.01c0-0.665,0-1.327,0-1.992C30.333,19.01,29.665,19.006,29.001,19z"/>
	</g>
</g>
</svg>
