<?xml version="1.0" encoding="utf-8"?>
<!-- Generator: Adobe Illustrator 17.1.0, SVG Export Plug-In . SVG Version: 6.00 Build 0)  -->
<!DOCTYPE svg PUBLIC "-//W3C//DTD SVG 1.1//EN" "http://www.w3.org/Graphics/SVG/1.1/DTD/svg11.dtd">
<svg version="1.1" id="Layer_1" xmlns="http://www.w3.org/2000/svg" xmlns:xlink="http://www.w3.org/1999/xlink" x="0px" y="0px"
	 width="41px" height="41px" viewBox="0 0 41 41" enable-background="new 0 0 41 41" xml:space="preserve">
<g>
	<path fill="#00A176" d="M20.5,32.8c-2.3,0-4.6,0-6.9,0c-1,0-1.6-0.6-1.6-1.6c0-4.2,0-8.3,0-12.5c0-0.9,0.6-1.5,1.5-1.6
		c0.2,0,0.2-0.1,0.2-0.3c0-0.6,0-1.2,0-1.8c0-3.3,2.2-6.1,5.5-6.8c3.6-0.8,7.4,1.8,8,5.4c0.1,1,0.1,2,0.1,3c0,0.3,0.1,0.4,0.4,0.4
		c0.8,0,1.4,0.7,1.4,1.5c0,3.1,0,6.3,0,9.4c0,1.1,0,2.1,0,3.2c0,0.9-0.6,1.6-1.6,1.6C25.1,32.8,22.8,32.8,20.5,32.8z M20.5,17.1
		c1,0,2,0,2.9,0c0.2,0,0.3,0,0.3-0.2c0-0.9,0-1.8-0.1-2.6c-0.2-1.5-1.6-2.7-3.2-2.7s-2.9,1.1-3.2,2.5c-0.1,0.9-0.1,1.8-0.1,2.7
		c0,0.3,0.1,0.4,0.4,0.4C18.6,17.1,19.5,17.1,20.5,17.1z"/>
</g>
</svg>
