<?xml version="1.0" encoding="utf-8"?>
<!-- Generator: Adobe Illustrator 17.1.0, SVG Export Plug-In . SVG Version: 6.00 Build 0)  -->
<!DOCTYPE svg PUBLIC "-//W3C//DTD SVG 1.1//EN" "http://www.w3.org/Graphics/SVG/1.1/DTD/svg11.dtd">
<svg version="1.1" id="Layer_1" xmlns="http://www.w3.org/2000/svg" xmlns:xlink="http://www.w3.org/1999/xlink" x="0px" y="0px"
	 viewBox="0 0 26 26" enable-background="new 0 0 26 26" xml:space="preserve">
<path fill="#FFFFFF" d="M19.5,8.4c-0.5,0.2-1,0.4-1.5,0.5c0.6-0.4,1-1,1.2-1.7c-0.5,0.3-1.1,0.6-1.7,0.7c-0.5-0.6-1.2-1-1.9-1
	c-1.5,0-2.7,1.4-2.7,3c0,0.2,0,0.5,0.1,0.7c-2.2-0.1-4.2-1.3-5.5-3.2C7.2,8,7,8.5,7,9.1c0,1.1,0.5,2,1.2,2.5c-0.4,0-0.8-0.2-1.2-0.4
	c0,0,0,0,0,0c0,1.5,0.9,2.7,2.1,3c-0.2,0.1-0.5,0.1-0.7,0.1c-0.2,0-0.3,0-0.5-0.1c0.3,1.2,1.3,2.1,2.5,2.1c-0.9,0.8-2.1,1.3-3.3,1.3
	c-0.2,0-0.4,0-0.6,0c1.2,0.9,2.6,1.4,4.1,1.4c4.9,0,7.6-4.6,7.6-8.6c0-0.1,0-0.3,0-0.4C18.7,9.6,19.1,9,19.5,8.4z"/>
</svg>
