<?xml version="1.0" encoding="utf-8"?>
<!-- Generator: Adobe Illustrator 17.0.0, SVG Export Plug-In . SVG Version: 6.00 Build 0)  -->
<!DOCTYPE svg PUBLIC "-//W3C//DTD SVG 1.1//EN" "http://www.w3.org/Graphics/SVG/1.1/DTD/svg11.dtd">
<svg version="1.1" id="Layer_1" xmlns="http://www.w3.org/2000/svg" xmlns:xlink="http://www.w3.org/1999/xlink" x="0px" y="0px"
	 width="70px" height="70px" viewBox="0 0 70 70" enable-background="new 0 0 70 70" xml:space="preserve">
<g>
	<g>
		<path fill="#06956E" d="M41.14,49.5H25.729c-3.435,0-6.229-2.908-6.229-6.482V26.982c0-3.574,2.794-6.482,6.229-6.482h13.375
			c0.706,0,1.279,0.596,1.279,1.33s-0.572,1.33-1.279,1.33H25.729c-2.025,0-3.672,1.714-3.672,3.821v16.037
			c0,2.107,1.647,3.821,3.672,3.821H41.14c2.025,0,3.672-1.714,3.672-3.821v-5.808c0-0.735,0.572-1.33,1.279-1.33
			s1.279,0.596,1.279,1.33v5.808C47.369,46.592,44.575,49.5,41.14,49.5z"/>
	</g>
	<g>
		<path fill="#06956E" d="M29.154,39.243l0.056,4.412c0.002,0.181,0.143,0.327,0.317,0.33l4.239,0.057
			c0.087,0.001,0.17-0.034,0.231-0.098l13.968-14.534l-4.749-4.941L29.248,39.002C29.187,39.066,29.153,39.153,29.154,39.243z
			 M43.244,26.651l0.005,0.006c0.15,0.156,0.15,0.409,0,0.564L32.59,38.313c-0.15,0.156-0.393,0.156-0.542,0l-0.005-0.006
			c-0.15-0.156-0.15-0.409,0-0.564l10.659-11.092C42.851,26.495,43.094,26.495,43.244,26.651z M49.882,24.31l-1.765-1.837
			c-0.824-0.857-2.159-0.857-2.983-0.001l-1.187,1.235l4.749,4.941l1.187-1.235C50.706,26.557,50.706,25.167,49.882,24.31z"/>
	</g>
</g>
</svg>
