<?xml version="1.0" encoding="utf-8"?>
<!-- Generator: Adobe Illustrator 17.0.0, SVG Export Plug-In . SVG Version: 6.00 Build 0)  -->
<!DOCTYPE svg PUBLIC "-//W3C//DTD SVG 1.1//EN" "http://www.w3.org/Graphics/SVG/1.1/DTD/svg11.dtd">
<svg version="1.1" id="Layer_1" xmlns="http://www.w3.org/2000/svg" xmlns:xlink="http://www.w3.org/1999/xlink" x="0px" y="0px"
	 width="60px" height="60px" viewBox="0 0 60 60" enable-background="new 0 0 60 60" xml:space="preserve">
<g>
	<path fill="#02956E" d="M41.232,39.13c-0.351,0.818-1.285,1.352-2.036,1.769c-0.985,0.534-1.986,0.851-3.104,0.851
		c-1.553,0-2.954-0.634-4.373-1.152c-1.018-0.367-2.003-0.817-2.921-1.385c-2.837-1.752-6.259-5.174-8.011-8.011
		c-0.568-0.918-1.018-1.903-1.386-2.921c-0.517-1.419-1.151-2.82-1.151-4.373c0-1.119,0.317-2.12,0.851-3.105
		c0.417-0.751,0.951-1.686,1.769-2.037c0.551-0.25,1.719-0.517,2.32-0.517c0.117,0,0.234,0,0.351,0.05
		c0.351,0.117,0.718,0.934,0.885,1.268c0.534,0.951,1.052,1.919,1.602,2.854c0.267,0.434,0.768,0.968,0.768,1.486
		c0,1.018-3.021,2.503-3.021,3.404c0,0.451,0.417,1.035,0.651,1.436c1.686,3.038,3.789,5.141,6.826,6.826
		c0.401,0.234,0.985,0.651,1.435,0.651c0.901,0,2.387-3.021,3.405-3.021c0.517,0,1.051,0.5,1.485,0.768
		c0.934,0.551,1.903,1.068,2.854,1.602c0.334,0.167,1.151,0.534,1.268,0.885c0.05,0.117,0.05,0.234,0.05,0.351
		C41.75,37.411,41.483,38.579,41.232,39.13z"/>
</g>
</svg>
