<?xml version="1.0" encoding="utf-8"?>
<!-- Generator: Adobe Illustrator 17.1.0, SVG Export Plug-In . SVG Version: 6.00 Build 0)  -->
<!DOCTYPE svg PUBLIC "-//W3C//DTD SVG 1.1//EN" "http://www.w3.org/Graphics/SVG/1.1/DTD/svg11.dtd">
<svg version="1.1" id="Layer_1" xmlns="http://www.w3.org/2000/svg" xmlns:xlink="http://www.w3.org/1999/xlink" x="0px" y="0px"
	 width="41px" height="41px" viewBox="0 0 41 41" enable-background="new 0 0 41 41" xml:space="preserve">
<rect x="0.5" y="0.5" fill="none" width="40" height="40"/>
<g>
	<path fill="#00A176" d="M6.2,29c0-0.1,0.1-0.1,0.1-0.2c0.1-0.4,0.3-0.8,0.6-1.1c0.7-0.7,1.4-1.4,2-2c0.7-0.7,1.5-1,2.4-1
		c5.6,0,11.2,0,16.8,0c0.9,0,1.6,0.3,2.3,0.9c0.7,0.7,1.5,1.5,2.2,2.2c0.4,0.4,0.6,1,0.6,1.6c0,0.5-0.3,0.7-0.8,0.7
		c-0.6,0-1.3,0-1.9,0c-7.7,0-15.5,0-23.2,0c-0.6,0-1-0.1-1.1-0.7C6.2,29.3,6.2,29.2,6.2,29z M19.7,28.3c0.8,0,1.6,0,2.4,0
		c0.2,0,0.3,0,0.4-0.2c0.1-0.4-0.5-1.4-0.9-1.5c-0.1,0-0.2,0-0.3,0c-1,0-2.1,0-3.1,0c-0.1,0-0.3,0-0.4,0.1c-0.3,0.4-0.5,0.8-0.7,1.2
		c-0.1,0.3,0,0.4,0.4,0.4C18.2,28.3,18.9,28.3,19.7,28.3z"/>
	<path fill="#00A176" d="M19.7,23.9c-2.9,0-5.9,0-8.8,0C9.8,23.9,9,23.1,9,22c0-3.8,0-7.6,0-11.4c0-1.1,0.8-1.9,1.9-1.9
		c5.9,0,11.8,0,17.7,0c1.1,0,1.9,0.8,1.9,1.9c0,3.8,0,7.7,0,11.5c0,1.1-0.8,1.9-1.9,1.9C25.6,23.9,22.7,23.9,19.7,23.9z M11,21.9
		c0.1,0,0.3,0,0.4,0c5.6,0,11.1,0,16.7,0c0.3,0,0.4-0.1,0.4-0.4c0-3.5,0-7,0-10.5c0-0.3-0.1-0.4-0.4-0.4c-5.6,0-11.1,0-16.7,0
		c-0.3,0-0.4,0.1-0.4,0.4c0,3.5,0,7,0,10.5C11,21.6,11,21.7,11,21.9z"/>
	<path fill="#00A176" d="M17.1,17.9c0.1-0.1,0.1-0.2,0.2-0.3c0.4-0.4,0.8-0.8,1.2-1.2c0.3-0.3,0.3-0.4,0-0.6c-0.5-0.6-0.5-0.7,0.2-1
		c1.1-0.4,2.1-0.8,3.2-1.2c0.1,0,0.3,0,0.4,0c0,0.1,0,0.3-0.1,0.4c-0.4,1.1-0.8,2.1-1.2,3.2c0,0.1-0.1,0.2-0.1,0.3
		c-0.2,0.3-0.4,0.4-0.7,0.1c-0.5-0.5-0.5-0.5-1,0c-0.3,0.3-0.7,0.7-1,1c-0.1,0.2-0.3,0.2-0.5,0.1C17.4,18.6,17.1,18.4,17.1,17.9z"/>
</g>
</svg>
