<?xml version="1.0" encoding="utf-8"?>
<!-- Generator: Adobe Illustrator 17.0.0, SVG Export Plug-In . SVG Version: 6.00 Build 0)  -->
<!DOCTYPE svg PUBLIC "-//W3C//DTD SVG 1.1//EN" "http://www.w3.org/Graphics/SVG/1.1/DTD/svg11.dtd">
<svg version="1.1" id="Layer_1" xmlns="http://www.w3.org/2000/svg" xmlns:xlink="http://www.w3.org/1999/xlink" x="0px" y="0px"
	 width="89px" height="89px" viewBox="0 0 89 89" enable-background="new 0 0 89 89" xml:space="preserve">
<g>
	<g>
		<path fill="#06956E" d="M52,63.03l-20.176-0.575c-4.497-0.128-8.05-3.891-7.922-8.387l0.575-20.176
			c0.128-4.496,3.891-8.05,8.387-7.922l17.51,0.499c0.924,0.026,1.652,0.797,1.626,1.721c-0.026,0.924-0.797,1.652-1.721,1.626
			l-17.51-0.499c-2.651-0.076-4.869,2.019-4.944,4.67l-0.575,20.176c-0.076,2.651,2.019,4.869,4.67,4.944l20.176,0.575
			c2.651,0.076,4.869-2.019,4.944-4.67l0.208-7.307c0.026-0.924,0.797-1.652,1.721-1.626c0.924,0.026,1.652,0.797,1.626,1.721
			l-0.208,7.307C60.259,59.604,56.496,63.158,52,63.03z"/>
	</g>
	<g>
		<path fill="#06956E" d="M36.676,49.679l-0.085,5.552c-0.004,0.228,0.175,0.417,0.403,0.427l5.547,0.23
			c0.113,0.005,0.224-0.037,0.306-0.114l18.807-17.765l-6.04-6.394L36.808,49.379C36.725,49.457,36.678,49.565,36.676,49.679z
			 M55.573,34.362l0.007,0.007c0.19,0.202,0.181,0.52-0.02,0.71L41.207,48.636c-0.202,0.19-0.52,0.181-0.71-0.02l-0.007-0.007
			c-0.19-0.202-0.181-0.52,0.02-0.71l14.353-13.557C55.064,34.151,55.382,34.16,55.573,34.362z M64.347,31.665l-2.245-2.377
			c-1.048-1.109-2.796-1.159-3.905-0.112l-1.599,1.51l6.04,6.394l1.599-1.51C65.345,34.523,65.395,32.774,64.347,31.665z"/>
	</g>
</g>
</svg>
