<?xml version="1.0" encoding="utf-8"?>
<!-- Generator: Adobe Illustrator 17.0.0, SVG Export Plug-In . SVG Version: 6.00 Build 0)  -->
<!DOCTYPE svg PUBLIC "-//W3C//DTD SVG 1.1//EN" "http://www.w3.org/Graphics/SVG/1.1/DTD/svg11.dtd">
<svg version="1.1" id="Layer_1" xmlns="http://www.w3.org/2000/svg" xmlns:xlink="http://www.w3.org/1999/xlink" x="0px" y="0px"
	 width="40px" height="40px" viewBox="0 0 40 40" enable-background="new 0 0 40 40" xml:space="preserve">
<path fill="#E2E2E2" d="M15.2,28.52h-3.6V16.392h3.6V28.52z M24.3,16.692c1.4,0,2.4,0.401,3.1,1.303c0.7,0.902,1.1,2.105,1.1,3.608
	v6.916h-3.6v-6.515c0-1.704-0.6-2.506-1.8-2.506c-1,0-1.6,0.501-1.9,1.403v7.617h-3.6c0-7.317,0-11.326,0-12.128h2.9l0.2,2.406h0.1
	C21.6,17.394,22.8,16.692,24.3,16.692z M11.5,13.285c0-1.203,0.6-1.804,1.9-1.804c1.2,0,1.9,0.601,1.9,1.804s-0.6,1.804-1.9,1.804
	S11.5,14.487,11.5,13.285z"/>
</svg>
