<svg id="Layer_1" data-name="Layer 1" xmlns="http://www.w3.org/2000/svg" width="60" height="60" viewBox="0 0 60 60"><defs><style>.cls-1{fill:#02956e;}</style></defs><title>req-info</title><path class="cls-1" d="M29.45,46.35l0-.16-1.86-.24,0,.16c0,.35-.39,3.34.87,5.13l.11.15,1.55-1.06L30,50.18C29.26,49.16,29.36,47,29.45,46.35Zm1.38-11.54-1.57-1-.11.15a3.23,3.23,0,0,0,.06,3.72l.13.13,1.45-1.17-.11-.15c-.5-.58,0-1.42.06-1.52Zm-2.85,8,1.09-1.52-.13-.09a2.82,2.82,0,0,1-1-2.46l0-.18-1.88-.13,0,.18a4.75,4.75,0,0,0,1.79,4.11Zm6.61-25.3h6a5.84,5.84,0,0,0-1.14-2.83L35,9.44a3.87,3.87,0,0,0-1.12-.86v8.25A.69.69,0,0,0,34.59,17.51ZM24.77,42l-1.82.53.06.16c.18.62.48,2.52-.44,3.34l-.15.11,1.25,1.41.13-.13c2-1.75,1.07-5.11,1-5.24Zm-.83-7.61a6,6,0,0,1-2.85,3.71l-.17.07.79,1.7.15-.07a7.84,7.84,0,0,0,3.92-5l0-.16L24,34.17ZM38,35.45l0-.16L36.19,35l0,.18A6.45,6.45,0,0,0,37.83,40l.11.15L39.41,39l-.11-.13A4.89,4.89,0,0,1,38,35.45ZM45.47,29H40.64l0-10.48H34.59a1.78,1.78,0,0,1-1.84-1.68V8.58a3.05,3.05,0,0,0-.57-.07H21a1.76,1.76,0,0,0-1.66,1.83l0,18.62H14.53a1,1,0,0,0-1,1v1.68a1,1,0,0,0,1,1H45.47a1,1,0,0,0,1-1V30A1,1,0,0,0,45.47,29ZM33.09,44c-.83-.82-.64-3.3-.42-4.38l0-.18L30.87,39l0,.16c-.09.44-.83,4.33.94,6.08l.13.13,1.33-1.31Zm3.57-2.56.07-.15-1.64-.89-.09.15A3.42,3.42,0,0,0,35.93,45l.15.09,1.09-1.52L37,43.52A1.6,1.6,0,0,1,36.67,41.4ZM32.6,38.5l1.8.58.06-.16c.48-1.46.11-4.44,0-5l0-.18L32.6,34l0,.16a12.75,12.75,0,0,1,0,4.18Zm1.73,8.78,0-.18-1.86.27,0,.16a6.19,6.19,0,0,0,2,3.85l.15.11L35.75,50l-.15-.11A4.34,4.34,0,0,1,34.33,47.28Z"/></svg>