<svg id="Layer_1" data-name="Layer 1" xmlns="http://www.w3.org/2000/svg" width="60" height="60" viewBox="0 0 60 60"><defs><style>.cls-1{fill:#fff;}</style></defs><title>req-recalls-wh</title><path class="cls-1" d="M48,18.69a3.92,3.92,0,0,0-4-3.86H41.36c0,.17,0,.32,0,.47,0,1,0,2.06-.06,3.08a3.45,3.45,0,0,1-3.44,3,9.57,9.57,0,0,1-1.65-.07,3.4,3.4,0,0,1-2.85-3.12c-.05-.94,0-1.87,0-2.81,0-.17,0-.34,0-.53H26c0,.16,0,.33,0,.49A28.43,28.43,0,0,1,26,18.59a3.39,3.39,0,0,1-3.41,2.81,8.18,8.18,0,0,1-2-.16A3.39,3.39,0,0,1,18,18c0-1.05,0-2.11,0-3.22a14,14,0,0,0-3.19.17A3.94,3.94,0,0,0,12,18.74c0,.47,0,.94,0,1.41Q12,33,12,45.94a3.94,3.94,0,0,0,3,3.94l.5.13h29l.38-.11A3.91,3.91,0,0,0,48,46.17Q48,32.43,48,18.69ZM43.33,42.37a2.44,2.44,0,0,1-2.55,2.47H19.23a2.46,2.46,0,0,1-2.56-2.47q0-6.86,0-13.72a2.55,2.55,0,0,1,2.68-2.58h21.3a2.52,2.52,0,0,1,2.67,2.58Q43.34,35.52,43.33,42.37Zm-6-22.72a2.31,2.31,0,0,0,2.35-2.37c0-.82,0-1.64,0-2.46s0-1.62,0-2.42a2.92,2.92,0,0,0-.08-.73,2.35,2.35,0,0,0-4.6.59c0,1.67,0,3.33,0,5A2.33,2.33,0,0,0,37.35,19.66ZM19.55,17.9A2.35,2.35,0,0,0,22,19.65a2.3,2.3,0,0,0,2.13-2.22c0-1.68,0-3.36,0-5a2.34,2.34,0,1,0-4.68,0c0,.82,0,1.64,0,2.46s0,1.61,0,2.42A2.89,2.89,0,0,0,19.55,17.9Zm21.2,11.25h-5.2a.74.74,0,0,0,0,.14c0,1.54,0,3.07,0,4.61,0,.26.13.29.35.29h4.55c.27,0,.35-.09.34-.34,0-1,0-2,0-2.93C40.75,30.34,40.75,29.76,40.75,29.15ZM24,36.83H19.42a2.72,2.72,0,0,0-.3,0v5h5.16a1,1,0,0,0,0-.16c0-1.54,0-3.07,0-4.61C24.33,36.85,24.19,36.82,24,36.83Zm11.85,0c-.3,0-.31.15-.31.37,0,1.46,0,2.91,0,4.37,0,.1,0,.2,0,.31h5.18v-5l-.19,0Zm-8.13-2.63h4.44l.36,0a1.2,1.2,0,0,0,0-.21c0-1.51,0-3,0-4.53,0-.29-.15-.31-.38-.31-1.49,0-3,0-4.48,0-.3,0-.39.09-.39.38q0,2.17,0,4.34C27.28,34.12,27.4,34.2,27.69,34.19Zm4.41,2.63c-1.45,0-2.9,0-4.36,0h-.39a1.43,1.43,0,0,0,0,.24c0,1.51,0,3,0,4.53,0,.29.15.31.38.3,1.49,0,3,0,4.48,0,.3,0,.39-.09.39-.38,0-1.43,0-2.87,0-4.3C32.54,36.89,32.42,36.82,32.09,36.82Z"/></svg>