<svg id="Layer_1" data-name="Layer 1" xmlns="http://www.w3.org/2000/svg" width="60" height="60" viewBox="0 0 60 60"><defs><style>.cls-1{fill:#fff;}</style></defs><title>req-products-wh</title><path class="cls-1" d="M51.69,17.08q-15,0-30.06,0c-.69,0-1-.17-1.18-.93-.3-1.49-.76-2.94-1.11-4.42-.12-.54-.33-.76-.88-.75-3.31,0-6.61,0-9.92,0a2.28,2.28,0,0,0-1.71.87,3.36,3.36,0,0,0-.24,2.26,1.9,1.9,0,0,0,2,1.32c2.15,0,4.3,0,6.44,0,.58,0,.84.18,1,.78.37,1.62.82,3.21,1.22,4.82q2.27,9,4.51,18.08c.19.76.48,1.07,1.29,1.06q11.71-.05,23.42,0c.84,0,1.24-.21,1.46-1.12,1-4,2-8.08,3.07-12.11l2.52-9.92ZM40.6,42.27a3.43,3.43,0,0,0-3.28,3.38A3.32,3.32,0,0,0,40.6,49a3.18,3.18,0,0,0,3.22-3.34A3.28,3.28,0,0,0,40.6,42.27Zm-12.39,0A3.4,3.4,0,0,0,25,45.72,3.28,3.28,0,0,0,28.33,49a3.25,3.25,0,0,0,3.18-3.4A3.34,3.34,0,0,0,28.21,42.27Z"/></svg>