<?xml version="1.0" encoding="utf-8"?>
<!-- Generator: Adobe Illustrator 17.1.0, SVG Export Plug-In . SVG Version: 6.00 Build 0)  -->
<!DOCTYPE svg PUBLIC "-//W3C//DTD SVG 1.1//EN" "http://www.w3.org/Graphics/SVG/1.1/DTD/svg11.dtd">
<svg version="1.1" id="Layer_1" xmlns="http://www.w3.org/2000/svg" xmlns:xlink="http://www.w3.org/1999/xlink" x="0px" y="0px"
	 width="41px" height="41px" viewBox="0 0 41 41" enable-background="new 0 0 41 41" xml:space="preserve">
<g>
	<path fill="#00A076" d="M20.5,38.6c-10,0-18.1-8.1-18.1-18.1S10.5,2.4,20.5,2.4c10,0,18.1,8.1,18.1,18.1S30.5,38.6,20.5,38.6
		L20.5,38.6z M20.5,3.5c-9.4,0-17,7.6-17,17s7.6,17,17,17c9.4,0,17-7.6,17-17S29.9,3.5,20.5,3.5L20.5,3.5z M20.5,3.5"/>
	<path fill="#00A076" d="M17.1,28.2l-6.5-6.5l0.8-0.8l5.7,5.7l12.3-12.3l0.8,0.8L17.1,28.2z M17.1,28.2"/>
</g>
</svg>
